<svg version="1.1" id="Layer_1" xmlns="http://www.w3.org/2000/svg" xmlns:xlink="http://www.w3.org/1999/xlink" x="0px" y="0px"
	 width="100%" viewBox="0 0 496 496" enable-background="new 0 0 496 496" xml:space="preserve">
<path fill="#000000" opacity="1.000000" stroke="none" 
	d="
M251.207947,228.459076 
	C248.855652,229.442337 246.957275,229.595154 245.252701,227.992294 
	C240.186707,223.228622 234.993866,222.536346 228.681213,226.139343 
	C222.794266,229.499374 216.562592,232.432877 209.736252,233.699478 
	C207.634521,234.089447 205.609375,234.223358 204.295029,232.381973 
	C203.088898,230.692245 203.999451,228.875061 204.791183,227.190018 
	C206.605637,223.328323 210.142136,221.366623 213.542328,219.270294 
	C215.242645,218.222015 217.036392,217.326065 218.746292,216.292450 
	C223.797211,213.239304 223.948914,210.464096 219.106018,207.122528 
	C217.164001,205.782547 216.452835,204.784286 217.741684,202.299927 
	C219.354507,199.191071 218.161652,196.487732 214.613342,195.392929 
	C211.801331,194.525299 210.709061,193.122681 213.253632,190.950775 
	C214.999390,189.460709 214.400024,188.110321 213.852707,186.512238 
	C213.262848,184.789932 212.483627,183.100708 212.714203,181.190231 
	C212.888031,179.749908 213.646698,178.661057 214.847229,177.986252 
	C216.348068,177.142654 217.361542,178.182663 218.264954,179.197876 
	C224.312256,185.993652 230.552246,192.633636 236.291855,199.680786 
	C239.036285,203.050446 241.164795,204.276901 245.370743,201.919113 
	C251.748901,198.343628 258.389130,195.121811 265.196777,192.463577 
	C270.309845,190.467041 271.421661,187.247177 270.638062,182.394394 
	C270.320923,180.430374 268.449188,177.828461 270.987549,176.474686 
	C273.797729,174.975937 274.694885,178.383743 276.433777,179.634109 
	C276.959564,180.012207 277.416504,180.486038 277.892639,180.905121 
	C280.194214,180.351791 279.679657,177.186844 282.105286,176.796249 
	C284.092590,177.710831 283.461456,179.692932 283.256744,181.082230 
	C282.562866,185.791092 284.678436,188.393341 288.715576,190.445068 
	C292.023529,192.126175 295.629303,193.570969 298.467529,196.593430 
	C294.988495,199.085571 291.541748,197.597229 288.614868,196.869843 
	C281.680542,195.146606 275.874390,196.068298 270.115387,200.602936 
	C264.524200,205.005432 258.200653,208.477875 251.398315,212.876297 
	C263.447235,219.799988 275.367065,225.574799 286.798309,233.219131 
	C283.785126,236.047195 280.576172,235.503540 277.410919,234.868927 
	C273.275177,234.039764 269.280701,231.752487 264.902588,234.174332 
	C263.904541,234.726395 262.293213,234.300552 261.771515,233.229126 
	C259.630829,228.832825 255.461075,228.994308 251.207947,228.459076 
z"/>
<path fill="#000000" opacity="1.000000" stroke="none" 
	d="
M265.215149,255.268646 
	C275.160706,258.580292 276.762665,262.757202 271.820526,272.095154 
	C275.949921,275.384827 277.719635,279.734344 275.355988,284.732941 
	C272.954132,289.812378 268.228638,291.270386 262.903320,291.357880 
	C248.640686,291.592255 248.647217,291.619843 248.637451,277.388367 
	C248.633347,271.406311 248.771439,265.416626 248.508133,259.445221 
	C248.359772,256.080780 249.757294,254.935959 252.836319,255.010269 
	C256.821411,255.106445 260.808228,255.132797 265.215149,255.268646 
M260.908234,276.342224 
	C258.667908,276.210724 257.409882,277.130493 257.486755,279.510834 
	C257.529633,280.839020 257.322601,282.455536 259.002045,282.807648 
	C261.282776,283.285736 263.670776,283.441071 265.787384,282.123108 
	C266.847687,281.462891 267.432434,280.316498 266.983429,279.096619 
	C266.068634,276.611237 263.822571,276.458130 260.908234,276.342224 
M262.211823,268.894196 
	C264.092712,268.364532 265.974945,267.526825 264.913055,265.206268 
	C264.071716,263.367645 261.985168,263.288513 260.109131,263.437073 
	C258.193909,263.588745 257.652100,264.951294 257.646454,266.553772 
	C257.636658,269.335510 259.687531,269.036774 262.211823,268.894196 
z"/>
<path fill="#000000" opacity="1.000000" stroke="none" 
	d="
M210.481827,256.967407 
	C218.114700,254.880264 225.684509,254.270340 232.750916,257.763702 
	C238.024704,260.370880 239.441635,268.771271 235.054428,273.413269 
	C231.590057,277.078857 232.775711,279.642090 234.781342,282.979919 
	C236.190811,285.325562 238.192520,287.506592 238.134369,290.529449 
	C230.861725,292.463470 229.769043,292.014618 226.627502,285.891541 
	C223.660339,280.108368 223.660324,280.108368 220.403427,278.562714 
	C218.291290,281.157318 219.382294,284.251587 219.317581,287.063324 
	C219.242706,290.317780 217.896851,291.412476 214.757339,291.398926 
	C211.774277,291.386047 209.957489,290.656799 210.010071,287.272919 
	C210.165039,277.301849 210.237808,267.329559 210.481827,256.967407 
M225.379974,263.793945 
	C223.337036,263.467407 220.781784,262.285706 219.696014,264.800232 
	C218.856796,266.743744 218.183243,269.779938 220.491623,271.092987 
	C222.939514,272.485352 225.758820,271.425354 227.586151,269.255951 
	C229.445953,267.048004 228.285446,265.318665 225.379974,263.793945 
z"/>
<path fill="#000000" opacity="1.000000" stroke="none" 
	d="
M286.048309,261.262665 
	C285.808380,257.369080 286.499451,254.970657 290.816406,255.043777 
	C295.158447,255.117310 295.514038,257.647095 295.427612,260.988434 
	C295.311340,265.483398 295.347778,269.985260 295.446808,274.481354 
	C295.486786,276.295105 295.725769,278.132782 296.123718,279.903534 
	C296.683868,282.396149 298.282898,284.238708 300.890961,284.297729 
	C303.494324,284.356598 305.090515,282.564117 305.926483,280.152863 
	C307.278534,276.252930 306.441986,272.221222 306.605835,268.252258 
	C306.722504,265.425598 306.774170,262.574860 306.540588,259.760925 
	C306.284851,256.679535 307.132080,255.015244 310.545959,255.061707 
	C313.787109,255.105804 315.461304,256.191986 315.351990,259.756531 
	C315.168182,265.748474 315.458618,271.755737 315.246490,277.745850 
	C314.927277,286.758331 310.069366,291.993744 302.091644,292.310181 
	C292.541809,292.688965 287.548340,288.487793 286.610779,278.690918 
	C286.072845,273.070404 286.215149,267.384766 286.048309,261.262665 
z"/>
<path fill="#000000" opacity="1.000000" stroke="none" 
	d="
M178.134125,283.019073 
	C178.789093,285.638092 180.046356,287.710815 179.840805,290.097504 
	C173.954803,292.655365 171.960175,292.017578 169.933472,286.237305 
	C168.964249,283.472992 167.163223,283.256287 164.906952,283.360077 
	C162.518539,283.469910 159.956833,282.706268 158.542236,285.875732 
	C155.761154,292.106873 155.634506,292.050354 148.991684,290.663116 
	C147.997787,288.247314 149.523575,286.175140 150.161896,284.048889 
	C152.602921,275.917908 155.403152,267.891357 157.698669,259.721680 
	C158.752686,255.970398 160.909729,255.415527 164.313980,255.457901 
	C167.668945,255.499634 169.921051,255.938568 170.961136,259.737610 
	C173.068924,267.436859 175.638168,275.009827 178.134125,283.019073 
M166.570282,273.439972 
	C165.856430,270.864960 165.142578,268.289978 164.428711,265.714966 
	C163.160797,269.210876 161.361038,272.392975 161.852921,276.096649 
	C163.973373,276.224121 165.845596,276.536896 166.570282,273.439972 
z"/>
<path fill="#000000" opacity="1.000000" stroke="none" 
	d="
M352.240173,280.980591 
	C351.764984,287.463409 347.997009,290.627045 342.507080,291.879028 
	C336.699738,293.203461 331.260498,292.059875 326.572479,288.232727 
	C325.030182,286.973633 325.681732,285.521301 326.769196,284.316895 
	C328.037598,282.912109 328.952820,280.678467 331.549011,281.805511 
	C333.225098,282.533203 334.833862,283.426025 336.535675,284.081665 
	C338.785950,284.948578 341.107452,284.678955 342.172089,282.434235 
	C343.413269,279.817230 340.850311,279.085144 339.163055,278.207764 
	C336.953827,277.058960 334.611816,276.166534 332.395660,275.029785 
	C328.308289,272.933197 326.220367,269.527954 326.412445,264.926086 
	C326.608337,260.233063 329.278229,257.163116 333.516235,255.611023 
	C338.428528,253.811935 343.330872,254.074738 347.906891,256.818298 
	C349.447174,257.741760 351.421021,258.820648 350.125946,261.061829 
	C349.000793,263.008972 347.766052,265.239899 344.681854,264.085144 
	C341.891876,263.040527 337.990936,260.318848 336.668518,264.618378 
	C335.555969,268.235687 340.356720,268.537750 342.885925,269.626312 
	C347.881104,271.776184 352.157227,274.313782 352.240173,280.980591 
z"/>
<path fill="#000000" opacity="1.000000" stroke="none" 
	d="
M188.702637,264.120056 
	C188.703110,262.477448 188.799149,261.305176 188.687149,260.153198 
	C188.368698,256.877899 189.396851,255.361877 193.081223,255.381653 
	C196.506683,255.400040 197.931305,256.421509 197.896576,259.892670 
	C197.806870,268.863068 197.844864,277.835602 197.927826,286.806396 
	C197.959152,290.193054 196.546692,291.428497 193.112411,291.420349 
	C189.465164,291.411652 188.611359,289.760132 188.668961,286.529999 
	C188.799316,279.221985 188.705719,271.910034 188.702637,264.120056 
z"/>
<path fill="#000000" opacity="1.000000" stroke="none" 
	d="
M265.674347,310.737305 
	C268.426544,307.704895 271.314178,307.176910 274.169464,309.673920 
	C276.842529,312.011597 277.166656,315.122528 275.681274,318.261932 
	C274.345398,321.085297 271.768188,321.711914 268.965149,321.142822 
	C264.988800,320.335419 263.751160,316.598083 265.674347,310.737305 
z"/>
<path fill="#000000" opacity="1.000000" stroke="none" 
	d="
M315.412354,309.158875 
	C317.847900,308.009064 318.765503,309.163116 318.956604,311.153076 
	C319.098938,312.634949 319.093597,314.146759 318.985596,315.632996 
	C318.848236,317.522919 319.664429,319.977020 317.298035,320.905396 
	C314.706177,321.922241 314.292633,318.926483 312.752350,317.790863 
	C311.638031,318.743866 312.256104,321.528992 309.851776,320.931488 
	C307.735596,320.405579 308.179291,318.354095 308.042847,316.767365 
	C307.957703,315.777496 307.953461,314.769653 308.031158,313.779144 
	C308.179260,311.891632 307.348450,309.509766 309.846558,308.594391 
	C312.215637,307.726318 313.047699,310.133881 314.359802,311.706940 
	C314.750854,310.617218 314.972534,309.999451 315.412354,309.158875 
z"/>
<path fill="#000000" opacity="1.000000" stroke="none" 
	d="
M228.455078,317.521667 
	C228.737045,318.643097 229.243958,319.514923 229.064911,320.210114 
	C228.743317,321.458984 226.921661,321.501282 226.702347,320.961853 
	C225.145660,317.133087 219.283371,324.585358 219.031784,317.954315 
	C218.981293,316.623749 218.869690,315.283936 218.968048,313.961914 
	C219.120590,311.911987 218.369720,309.355377 221.188370,308.472382 
	C223.478516,307.754913 225.832718,307.701019 227.805511,309.413025 
	C229.934052,311.260223 229.783661,313.429108 228.554764,315.732300 
	C228.339035,316.136627 228.424515,316.701630 228.455078,317.521667 
z"/>
<path fill="#000000" opacity="1.000000" stroke="none" 
	d="
M288.287720,308.521729 
	C291.561340,311.359955 288.817657,311.638031 286.399109,312.603302 
	C289.555145,313.053406 291.396973,314.210114 291.055450,317.294922 
	C290.850616,319.145081 290.090698,320.485352 288.319183,320.987823 
	C285.777161,321.708893 283.374390,321.373383 281.532379,319.281860 
	C279.576538,317.061005 279.399536,314.509216 280.619202,311.904022 
	C282.079559,308.784760 284.620331,307.712524 288.287720,308.521729 
z"/>
<path fill="#000000" opacity="1.000000" stroke="none" 
	d="
M199.837311,317.420929 
	C197.847717,321.469818 194.819107,322.283966 191.439194,320.531189 
	C187.942856,318.718048 187.538300,315.453186 188.859390,311.987427 
	C190.028625,308.920013 192.421906,307.564056 195.546829,308.429565 
	C199.932419,309.644287 200.729004,313.008636 199.837311,317.420929 
M192.807709,316.522888 
	C193.564896,317.408386 194.565781,317.759766 195.200897,316.661041 
	C196.128174,315.056854 196.478500,313.313171 194.328873,311.943848 
	C192.525925,312.761902 192.208069,314.196045 192.807709,316.522888 
z"/>
<path fill="#000000" opacity="1.000000" stroke="none" 
	d="
M210.926239,310.459869 
	C212.013489,307.930756 213.938538,307.754547 214.574509,309.718018 
	C215.697540,313.185059 215.881149,317.029755 213.108093,320.028900 
	C210.946259,322.367035 206.505661,321.604950 204.985062,318.774597 
	C204.454407,317.786865 204.040588,316.545776 204.119492,315.460083 
	C204.293320,313.068542 202.551971,309.157135 206.212509,308.893738 
	C209.488770,308.657990 207.837204,312.449249 208.293518,314.471161 
	C208.507065,315.417419 208.388687,316.454254 209.804153,316.936707 
	C211.485733,315.124359 210.517014,312.846130 210.926239,310.459869 
z"/>
<path fill="#000000" opacity="1.000000" stroke="none" 
	d="
M294.898560,320.895538 
	C293.389740,316.543854 295.605438,312.997986 297.280060,309.580658 
	C298.369202,307.358032 300.975555,307.813904 301.900299,310.142914 
	C303.209045,313.438995 304.810211,316.760406 304.734589,320.350616 
	C302.048676,322.315369 301.097778,319.545929 299.771942,318.884857 
	C297.682251,318.861084 297.244293,321.479706 294.898560,320.895538 
z"/>
<path fill="#000000" opacity="1.000000" stroke="none" 
	d="
M241.165543,320.553070 
	C238.663605,316.652802 242.845734,318.300507 243.645172,316.999023 
	C241.933151,315.399353 239.071030,314.334564 240.122025,311.183044 
	C240.840134,309.029694 242.748260,308.281555 244.876572,308.221985 
	C246.259857,308.183258 247.696426,308.554749 248.175842,309.970673 
	C248.828186,311.897369 246.872406,311.855652 245.718994,312.493958 
	C247.357254,314.288086 250.292526,315.492401 248.752426,318.552856 
	C247.173798,321.689819 244.429382,321.765533 241.165543,320.553070 
z"/>
<path fill="#000000" opacity="1.000000" stroke="none" 
	d="
M179.342575,320.781616 
	C177.835876,316.827454 176.673843,313.078308 175.259521,308.515167 
	C178.807526,309.096100 182.019058,310.616455 185.471909,308.765625 
	C182.983368,312.848938 184.544815,318.378632 179.342575,320.781616 
z"/>
<path fill="#000000" opacity="1.000000" stroke="none" 
	d="
M256.875671,321.331116 
	C254.207520,321.363861 253.021103,320.168640 253.050186,318.026276 
	C253.091644,314.973999 252.027161,311.754303 254.008102,308.947540 
	C254.485229,308.271545 255.475220,308.300140 256.280945,308.716217 
	C257.509033,309.350372 257.801147,310.612091 257.559753,311.678955 
	C256.730194,315.345245 257.795502,318.003235 261.370850,319.303650 
	C260.720001,322.086853 258.728424,321.062744 256.875671,321.331116 
z"/>
</svg>