<?xml version="1.0" standalone="no"?>
<!DOCTYPE svg PUBLIC "-//W3C//DTD SVG 20010904//EN"
 "http://www.w3.org/TR/2001/REC-SVG-20010904/DTD/svg10.dtd">
<svg version="1.0" xmlns="http://www.w3.org/2000/svg"
 width="1024.000000pt" height="1024.000000pt" viewBox="0 0 1024.000000 1024.000000"
 preserveAspectRatio="xMidYMid meet">

<g transform="translate(0.000000,1024.000000) scale(0.100000,-0.100000)"
fill="#000000" stroke="none">
<path d="M4150 6525 l0 -205 60 0 c79 0 153 17 186 42 64 51 85 183 42 268
-39 75 -92 99 -220 100 l-68 0 0 -205z m190 100 c34 -34 40 -135 11 -182 -20
-32 -89 -62 -111 -48 -12 7 -14 248 -3 259 14 13 78 -5 103 -29z"/>
<path d="M4640 6525 l0 -206 128 3 127 3 0 35 0 35 -82 3 -83 3 0 44 0 45 65
0 65 0 0 40 0 40 -65 0 -65 0 0 40 0 40 80 0 80 0 0 40 0 40 -125 0 -125 0 0
-205z"/>
<path d="M5080 6525 l0 -205 120 0 120 0 0 40 0 40 -80 0 -80 0 0 165 0 165
-40 0 -40 0 0 -205z"/>
<path d="M5390 6690 l0 -40 55 0 55 0 0 -165 0 -165 45 0 45 0 0 165 0 165 55
0 55 0 0 40 0 40 -155 0 -155 0 0 -40z"/>
<path d="M5901 6698 c-5 -18 -33 -106 -60 -194 -28 -89 -51 -167 -51 -173 0
-8 14 -11 42 -9 40 3 41 5 55 51 l14 47 63 0 64 0 12 -50 12 -50 44 0 c26 0
44 5 44 11 0 7 -23 84 -51 173 -27 88 -55 176 -60 194 -10 31 -12 32 -64 32
-52 0 -54 -1 -64 -32z m103 -185 c7 -22 5 -23 -38 -23 -25 0 -46 3 -46 8 0 7
4 23 31 122 l12 45 17 -65 c9 -36 20 -75 24 -87z"/>
<path d="M5099 5603 c-1 -27 -4 -120 -8 -207 l-6 -159 -48 -14 c-56 -16 -125
-79 -146 -133 -8 -19 -15 -36 -16 -37 -1 -2 -55 4 -121 12 -147 18 -154 18
-154 1 0 -10 30 -17 113 -25 156 -17 157 -18 157 -52 0 -21 -5 -29 -18 -29
-21 0 -1536 137 -1610 145 l-52 6 16 -33 c15 -33 19 -35 102 -47 262 -37 1006
-152 1009 -155 3 -2 0 -13 -6 -24 -32 -61 5 -169 69 -203 111 -60 240 16 240
140 0 45 3 46 73 35 l37 -7 0 -78 c0 -64 -3 -79 -15 -79 -9 0 -15 9 -15 25 0
19 -5 25 -20 25 -19 0 -21 -5 -18 -62 3 -67 21 -87 38 -44 8 22 16 26 50 26
34 0 42 -4 50 -26 17 -43 35 -23 38 44 3 57 1 62 -18 62 -15 0 -20 -6 -20 -25
0 -18 -5 -25 -20 -25 -34 0 -23 37 27 91 53 56 62 57 148 14 26 -14 63 -25 81
-25 53 0 64 -8 63 -49 0 -31 -1 -33 -9 -13 -10 25 -20 28 -38 10 -14 -14 -16
-77 -3 -97 12 -19 41 -6 41 19 0 32 54 24 58 -8 2 -15 9 -22 20 -20 13 3 17
15 17 57 0 56 -21 84 -32 42 -8 -33 -23 -25 -23 13 0 30 4 34 31 40 17 3 41 6
53 6 12 0 44 11 72 24 86 41 83 42 141 -16 55 -55 68 -88 33 -88 -15 0 -20 7
-20 25 0 19 -5 25 -20 25 -19 0 -21 -5 -18 -62 3 -67 21 -87 38 -44 8 22 16
26 50 26 34 0 42 -4 50 -26 17 -43 35 -23 38 44 3 57 1 62 -18 62 -15 0 -20
-6 -20 -25 0 -16 -6 -25 -15 -25 -12 0 -15 15 -15 79 l0 78 38 7 c69 11 72 10
72 -35 0 -92 65 -159 155 -159 101 0 169 69 162 165 -2 28 -7 57 -11 66 -9 20
-48 13 601 110 l492 74 16 33 16 34 -48 -6 c-59 -8 -1591 -146 -1615 -146 -13
0 -18 8 -18 29 0 34 -1 34 163 52 77 9 107 16 107 25 0 17 -8 17 -154 -1 -66
-8 -120 -14 -121 -12 -1 1 -8 18 -16 37 -21 54 -90 117 -146 133 l-48 14 -6
154 c-4 85 -7 178 -8 207 -1 45 -4 52 -21 52 -17 0 -20 -7 -21 -47z m110 -432
c85 -44 130 -138 117 -247 -13 -116 -47 -139 -206 -139 -172 0 -205 30 -205
180 1 107 33 163 120 208 42 23 127 21 174 -2z m-1049 -196 c140 -13 257 -24
260 -25 3 0 -10 -7 -28 -15 -31 -13 -54 -12 -265 20 -349 53 -344 56 33 20z
m2200 19 c-8 -2 -119 -20 -247 -39 -211 -32 -234 -33 -265 -20 -18 8 -28 15
-23 15 244 27 578 55 535 44z m-1651 -69 c85 -8 155 -16 156 -17 1 -2 5 -18 8
-36 6 -28 4 -33 -11 -28 -9 2 -73 12 -141 22 -105 15 -128 22 -158 46 -42 33
-50 32 146 13z m968 -13 c-30 -24 -53 -31 -158 -46 -68 -10 -132 -20 -141 -22
-15 -5 -17 0 -11 28 3 18 7 34 8 36 3 3 254 29 304 31 l34 1 -36 -28z m-1144
-33 c39 -30 53 -85 34 -132 -18 -41 -68 -77 -108 -77 -39 0 -92 41 -106 81
-15 47 -6 84 29 119 24 25 38 30 77 30 34 0 56 -6 74 -21z m1325 -9 c54 -53
46 -135 -17 -177 -42 -28 -76 -29 -119 -3 -46 28 -68 82 -53 131 16 53 53 79
112 79 39 0 53 -5 77 -30z m-1048 -67 c0 -10 -32 -43 -42 -43 -4 0 -8 11 -8
25 0 20 5 25 25 25 14 0 25 -3 25 -7z m670 -25 l0 -31 -25 23 c-14 13 -25 27
-25 32 0 4 11 8 25 8 21 0 25 -5 25 -32z"/>
<path d="M4981 5053 c-8 -21 -16 -44 -18 -50 -4 -10 2 -10 27 -2 19 7 81 10
159 7 l128 -4 -15 43 -16 43 -126 0 -126 0 -13 -37z m249 -3 c0 -6 -43 -10
-110 -10 -67 0 -110 4 -110 10 0 6 43 10 110 10 67 0 110 -4 110 -10z"/>
<path d="M4430 4815 c-26 -32 13 -81 48 -59 34 22 22 74 -18 74 -10 0 -23 -7
-30 -15z m40 -25 c0 -5 -4 -10 -10 -10 -5 0 -10 5 -10 10 0 6 5 10 10 10 6 0
10 -4 10 -10z"/>
<path d="M5750 4815 c-26 -32 13 -81 48 -59 34 22 22 74 -18 74 -10 0 -23 -7
-30 -15z m40 -25 c0 -5 -4 -10 -10 -10 -5 0 -10 5 -10 10 0 6 5 10 10 10 6 0
10 -4 10 -10z"/>
<path d="M4641 3648 c-12 -40 -41 -135 -65 -210 l-44 -138 48 0 48 0 12 50 12
50 68 0 68 0 12 -50 12 -50 49 0 c27 0 49 2 49 4 0 1 -4 16 -9 32 -6 16 -35
109 -66 207 l-56 177 -58 0 -58 0 -22 -72z m106 -84 c16 -67 18 -87 8 -90 -19
-8 -80 0 -78 9 1 4 10 43 20 87 10 44 20 80 23 80 3 0 15 -39 27 -86z"/>
<path d="M5060 3510 l0 -210 45 0 45 0 0 210 0 210 -45 0 -45 0 0 -210z"/>
<path d="M5360 3510 l0 -210 45 0 45 0 0 81 0 80 28 -3 c23 -2 33 -15 67 -80
l40 -78 53 0 53 0 -32 58 c-71 124 -67 110 -41 127 50 36 67 117 36 176 -23
45 -67 59 -189 59 l-105 0 0 -210z m202 123 c46 -41 6 -103 -67 -103 l-45 0 0
60 0 60 47 0 c29 0 53 -6 65 -17z"/>
</g>
</svg>
