<svg version="1.1" id="Layer_1" xmlns="http://www.w3.org/2000/svg" xmlns:xlink="http://www.w3.org/1999/xlink" x="0px" y="0px"
	 width="100%" viewBox="0 0 900 340" enable-background="new 0 0 900 340" xml:space="preserve">
<path fill="#00427F" opacity="1.000000" stroke="none" 
	d="
M898.000000,0.999999 
	C898.999573,1.000000 899.999207,1.000000 900.999084,1.000000 
	C900.999390,114.287453 900.999390,227.574905 900.999390,341.000000 
	C896.381653,341.000000 891.762451,341.000000 887.143250,341.000000 
	C593.261230,341.000000 299.379181,341.004364 5.497230,340.858734 
	C4.208967,340.858093 0.871147,343.327148 1.243078,338.400208 
	C1.938986,337.533600 2.391815,337.266815 2.937883,337.429077 
	C4.810772,338.238220 6.590366,338.951019 8.370077,338.951324 
	C303.597778,339.001129 598.825439,338.999939 894.053162,339.000702 
	C895.641602,339.000702 897.229980,339.000671 899.000610,339.000671 
	C899.000610,337.011688 899.000671,335.692871 899.000671,334.374023 
	C898.999878,225.579620 898.999084,116.785210 898.997070,7.990803 
	C898.997070,6.824666 899.212708,5.587299 898.886047,4.518066 
	C898.676514,3.832144 897.656067,3.393915 897.121582,2.611722 
	C897.496033,1.919186 897.747986,1.459592 898.000000,0.999999 
z"/>
<path fill="#034281" opacity="1.000000" stroke="none" 
	d="
M2.844645,337.000031 
	C2.391815,337.266815 1.938986,337.533600 1.243078,337.900208 
	C1.000000,225.705154 1.000000,113.410309 1.000000,1.000000 
	C299.692505,1.000000 598.385010,1.000000 897.538757,0.999999 
	C897.747986,1.459592 897.496033,1.919186 896.658081,2.684832 
	C598.475281,2.990883 300.878296,2.990883 3.010349,2.990883 
	C3.010349,5.396551 3.010353,7.204763 3.010349,9.012976 
	C3.010072,116.345871 3.010683,223.678757 3.002653,331.011658 
	C3.002503,333.007782 2.899603,335.003906 2.844645,337.000031 
z"/>
<path fill="#FFFEFE" opacity="1.000000" stroke="none" 
	d="
M2.937884,337.429077 
	C2.899603,335.003906 3.002503,333.007782 3.002653,331.011658 
	C3.010683,223.678757 3.010072,116.345871 3.010349,9.012976 
	C3.010353,7.204763 3.010349,5.396551 3.010349,2.990883 
	C300.878296,2.990883 598.475281,2.990883 896.535645,2.917773 
	C897.656067,3.393915 898.676514,3.832144 898.886047,4.518066 
	C899.212708,5.587299 898.997070,6.824666 898.997070,7.990803 
	C898.999084,116.785210 898.999878,225.579620 899.000671,334.374023 
	C899.000671,335.692871 899.000610,337.011688 899.000610,339.000671 
	C897.229980,339.000671 895.641602,339.000702 894.053162,339.000702 
	C598.825439,338.999939 303.597778,339.001129 8.370077,338.951324 
	C6.590366,338.951019 4.810772,338.238220 2.937884,337.429077 
M711.990417,221.506088 
	C709.775085,221.506088 707.559692,221.506088 705.344360,221.506088 
	C705.292236,221.838440 705.240173,222.170807 705.188049,222.503159 
	C706.135864,222.969238 707.083740,223.435318 708.708679,224.287170 
	C709.671082,224.524811 710.627380,224.940506 711.596802,224.973679 
	C728.939392,225.567307 744.185364,231.996460 758.515625,241.339905 
	C769.695007,248.628952 781.513550,254.691544 794.694397,257.598450 
	C807.536072,260.430542 820.470398,261.657501 834.688721,259.959259 
	C827.963074,257.142700 822.266296,254.908798 816.695618,252.395401 
	C800.483398,245.080704 786.549438,234.355499 773.393311,222.139328 
	C782.204163,222.139328 791.015076,222.139328 800.966736,222.139328 
	C789.567017,205.554230 772.408936,206.849152 756.074585,205.217773 
	C760.857239,210.341553 765.639832,215.465332 770.707092,220.894104 
	C768.780212,221.250259 767.346313,221.515305 765.092346,221.553604 
	C747.646545,221.628723 730.200806,221.703842 711.990417,221.506088 
M749.651550,203.750259 
	C750.763184,203.791885 751.874817,203.833511 753.533997,204.058640 
	C753.373352,203.333206 753.212708,202.607773 752.818054,201.256042 
	C723.924072,166.130310 704.431946,126.301285 693.438293,81.432434 
	C691.769470,83.276215 690.404846,84.468803 689.419678,85.919128 
	C672.196777,111.274368 668.962524,138.398911 682.597046,165.834442 
	C695.097839,190.988724 718.893616,199.578476 745.662415,203.261780 
	C746.729675,203.329529 747.796936,203.397278 749.651550,203.750259 
M162.454758,179.982773 
	C153.699783,158.207397 144.978088,136.418564 136.176483,114.662056 
	C131.440903,102.956245 131.377670,103.122551 118.687477,102.995300 
	C115.116348,102.959488 113.510269,104.062790 112.214462,107.439835 
	C99.393143,140.853745 86.363289,174.187622 73.407303,207.549927 
	C71.200508,213.232513 69.063896,218.942352 66.588928,225.443161 
	C73.922569,225.443161 80.526237,225.329010 87.122681,225.497482 
	C89.889000,225.568146 91.261948,224.652359 92.189400,221.972214 
	C94.856567,214.264725 97.953712,206.706238 100.634148,199.003006 
	C101.558876,196.345444 102.938148,195.395050 105.709511,195.421906 
	C117.041275,195.531708 128.376129,195.540466 139.706985,195.381332 
	C142.773941,195.338272 144.055511,196.675491 145.052200,199.355911 
	C147.894684,207.000229 150.923080,214.578918 154.070847,222.102890 
	C154.616318,223.406662 156.068863,225.223801 157.158478,225.263458 
	C164.743973,225.539520 172.344284,225.409302 180.728638,225.409302 
	C174.513306,209.926147 168.644440,195.306046 162.454758,179.982773 
M636.408630,201.500687 
	C636.320740,188.505310 636.604919,175.493866 636.043884,162.518951 
	C635.441711,148.592606 627.449707,139.199814 613.750000,136.983170 
	C605.981140,135.726151 597.825439,135.809006 589.954529,136.517288 
	C581.364929,137.290268 573.299805,140.445465 565.996704,145.838028 
	C568.796021,151.098816 571.420044,156.030182 574.072266,161.014572 
	C583.065186,156.018082 591.901672,152.788345 601.793823,154.891968 
	C609.081055,156.441635 612.293030,161.087051 611.514526,169.148880 
	C608.610107,169.148880 605.588074,168.813568 602.666565,169.213165 
	C594.627319,170.312775 586.311646,170.740601 578.685913,173.219971 
	C564.854309,177.717041 558.677063,189.670197 561.064514,204.537750 
	C563.117065,217.318924 574.132080,226.541260 587.775696,227.171707 
	C597.665955,227.628723 606.512756,224.954559 614.337708,218.859482 
	C620.144287,229.316315 629.629700,224.101471 637.466187,225.474777 
	C637.093750,217.384842 636.751099,209.942764 636.408630,201.500687 
M331.174469,227.006332 
	C337.845001,224.765045 344.515564,222.523758 351.573853,220.152191 
	C355.913788,225.506561 365.673401,227.647766 373.961029,224.637222 
	C373.618195,217.855438 373.077423,211.239334 372.992676,204.617386 
	C372.824310,191.457153 373.122467,178.288956 372.832611,165.132751 
	C372.453735,147.933777 362.680847,137.675903 345.522675,135.948013 
	C343.203888,135.714508 340.870758,135.497910 338.543762,135.492599 
	C325.665344,135.463211 313.574127,138.191711 302.457458,145.725021 
	C305.246613,150.988052 307.857788,155.915207 310.534302,160.965729 
	C319.492218,156.164856 328.269257,152.769836 338.161621,154.872223 
	C345.513245,156.434647 348.594879,160.757416 348.022644,169.120880 
	C345.605347,169.120880 343.115967,168.950729 340.657501,169.153946 
	C334.195587,169.688049 327.623474,169.797821 321.316528,171.126846 
	C302.562286,175.078934 293.333649,189.935165 298.275665,207.414032 
	C302.038574,220.722702 313.469604,227.749924 331.174469,227.006332 
M412.857666,176.529480 
	C411.328430,167.741089 414.083405,161.956314 423.057678,158.557755 
	C437.610931,153.046448 445.038635,157.362717 445.234192,172.827927 
	C445.432098,188.476883 445.297028,204.129944 445.329010,219.781174 
	C445.332611,221.534332 445.474426,223.287216 445.549225,224.974121 
	C453.809784,224.974121 461.507507,224.974121 469.139557,224.974121 
	C469.139557,203.863678 469.630768,183.209579 468.990570,162.590607 
	C468.437195,144.768021 455.288544,133.595535 437.618835,135.907227 
	C430.259003,136.870071 423.234741,140.486969 416.101379,143.019531 
	C414.602020,143.551865 413.293396,144.621399 411.689514,145.565414 
	C406.531677,135.433945 397.602448,137.652542 389.216919,137.455261 
	C389.216919,166.995270 389.216919,196.016647 389.216919,225.144180 
	C397.191101,225.144180 404.789642,225.144180 412.857635,225.144180 
	C412.857635,209.071701 412.857635,193.295593 412.857666,176.529480 
M176.780441,169.841019 
	C182.722046,184.317307 188.663956,198.793457 194.605133,213.269913 
	C199.002106,223.983734 201.388046,225.437866 212.987259,225.534805 
	C216.161026,225.561325 217.662094,224.519226 218.857361,221.621964 
	C228.824371,197.462250 238.949966,173.367966 249.020096,149.250763 
	C250.590530,145.489716 252.122528,141.712646 253.903732,137.380051 
	C246.508850,137.380051 240.020432,137.548553 233.547653,137.303741 
	C230.632812,137.193481 229.450089,138.352768 228.555893,140.908844 
	C226.137314,147.822357 223.483932,154.653992 220.904846,161.511017 
	C216.932541,172.072220 212.944519,182.627502 208.563461,194.245239 
	C207.149231,190.535019 206.126419,187.930527 205.160721,185.305008 
	C199.758759,170.618210 194.401550,155.914764 188.928177,141.254669 
	C188.400024,139.840027 187.224625,137.616302 186.274445,137.576767 
	C178.897598,137.269867 171.502243,137.407349 163.345703,137.407349 
	C167.966766,148.608459 172.204315,158.879990 176.780441,169.841019 
M531.271362,207.324814 
	C527.021057,206.820038 522.447266,207.150955 518.581116,205.653992 
	C506.926422,201.141327 501.303680,186.334427 505.243958,172.145447 
	C508.619965,159.988312 519.706848,152.475983 532.301392,154.628738 
	C538.546204,155.696152 544.546509,158.194550 551.357483,160.257599 
	C551.357483,155.643982 551.099854,150.689072 551.452820,145.778076 
	C551.669373,142.765732 550.723877,141.276871 548.032349,140.086533 
	C519.475708,127.457275 484.850739,140.819962 480.352386,176.003632 
	C477.750092,196.357437 487.325989,216.182114 504.316284,223.368790 
	C520.981201,230.417831 537.228271,227.651993 552.881104,219.692169 
	C553.826294,219.211533 554.884277,217.229126 554.606384,216.352036 
	C553.025635,211.361877 551.054688,206.495346 549.447815,202.204620 
	C543.252258,204.005463 537.717224,205.614304 531.271362,207.324814 
M277.352478,225.429031 
	C279.810608,225.429031 282.268738,225.429031 284.834381,225.429031 
	C284.834381,195.844604 284.834381,166.825546 284.834381,137.741455 
	C276.816437,137.741455 269.112640,137.741455 261.333191,137.741455 
	C261.333191,167.023743 261.333191,195.916107 261.333191,225.428650 
	C266.486023,225.428650 271.437042,225.428650 277.352478,225.429031 
M279.702118,102.549515 
	C270.211731,99.120094 261.831451,102.866875 259.920868,111.393600 
	C258.472809,117.856110 261.984222,124.484596 268.068176,126.773270 
	C274.545959,129.210083 282.124084,126.546890 285.401733,120.681702 
	C288.869080,114.477066 287.011658,107.887184 279.702118,102.549515 
z"/>
<path fill="#EF3537" opacity="1.000000" stroke="none" 
	d="
M162.615158,180.334351 
	C168.644440,195.306046 174.513306,209.926147 180.728638,225.409302 
	C172.344284,225.409302 164.743973,225.539520 157.158478,225.263458 
	C156.068863,225.223801 154.616318,223.406662 154.070847,222.102890 
	C150.923080,214.578918 147.894684,207.000229 145.052200,199.355911 
	C144.055511,196.675491 142.773941,195.338272 139.706985,195.381332 
	C128.376129,195.540466 117.041275,195.531708 105.709511,195.421906 
	C102.938148,195.395050 101.558876,196.345444 100.634148,199.003006 
	C97.953712,206.706238 94.856567,214.264725 92.189400,221.972214 
	C91.261948,224.652359 89.889000,225.568146 87.122681,225.497482 
	C80.526237,225.329010 73.922569,225.443161 66.588928,225.443161 
	C69.063896,218.942352 71.200508,213.232513 73.407303,207.549927 
	C86.363289,174.187622 99.393143,140.853745 112.214462,107.439835 
	C113.510269,104.062790 115.116348,102.959488 118.687477,102.995300 
	C131.377670,103.122551 131.440903,102.956245 136.176483,114.662056 
	C144.978088,136.418564 153.699783,158.207397 162.615158,180.334351 
M127.489876,151.980484 
	C126.095535,148.004196 124.701195,144.027924 122.985023,139.133881 
	C118.357674,151.700974 114.113380,163.227737 109.724121,175.148224 
	C118.677956,175.148224 126.764381,175.148224 134.784866,175.148224 
	C134.939148,174.553802 135.166321,174.192337 135.079529,173.937988 
	C132.662918,166.855820 130.214478,159.784485 127.489876,151.980484 
z"/>
<path fill="#EE3537" opacity="1.000000" stroke="none" 
	d="
M636.408569,202.000702 
	C636.751099,209.942764 637.093750,217.384842 637.466187,225.474777 
	C629.629700,224.101471 620.144287,229.316315 614.337708,218.859482 
	C606.512756,224.954559 597.665955,227.628723 587.775696,227.171707 
	C574.132080,226.541260 563.117065,217.318924 561.064514,204.537750 
	C558.677063,189.670197 564.854309,177.717041 578.685913,173.219971 
	C586.311646,170.740601 594.627319,170.312775 602.666565,169.213165 
	C605.588074,168.813568 608.610107,169.148880 611.514526,169.148880 
	C612.293030,161.087051 609.081055,156.441635 601.793823,154.891968 
	C591.901672,152.788345 583.065186,156.018082 574.072266,161.014572 
	C571.420044,156.030182 568.796021,151.098816 565.996704,145.838028 
	C573.299805,140.445465 581.364929,137.290268 589.954529,136.517288 
	C597.825439,135.809006 605.981140,135.726151 613.750000,136.983170 
	C627.449707,139.199814 635.441711,148.592606 636.043884,162.518951 
	C636.604919,175.493866 636.320740,188.505310 636.408569,202.000702 
M584.754883,198.277115 
	C585.243713,199.835114 585.421997,201.592865 586.273987,202.917236 
	C590.422424,209.365677 607.001770,209.630463 611.464050,203.403748 
	C611.739136,203.019897 611.977112,202.503464 611.980286,202.046997 
	C612.016174,196.818405 612.003174,191.589478 612.003174,185.819641 
	C605.667419,186.265686 600.029297,186.363586 594.483398,187.129410 
	C587.680725,188.068756 585.169678,191.012985 584.754883,198.277115 
z"/>
<path fill="#EE3537" opacity="1.000000" stroke="none" 
	d="
M330.714111,227.039490 
	C313.469604,227.749924 302.038574,220.722702 298.275665,207.414032 
	C293.333649,189.935165 302.562286,175.078934 321.316528,171.126846 
	C327.623474,169.797821 334.195587,169.688049 340.657501,169.153946 
	C343.115967,168.950729 345.605347,169.120880 348.022644,169.120880 
	C348.594879,160.757416 345.513245,156.434647 338.161621,154.872223 
	C328.269257,152.769836 319.492218,156.164856 310.534302,160.965729 
	C307.857788,155.915207 305.246613,150.988052 302.457458,145.725021 
	C313.574127,138.191711 325.665344,135.463211 338.543762,135.492599 
	C340.870758,135.497910 343.203888,135.714508 345.522675,135.948013 
	C362.680847,137.675903 372.453735,147.933777 372.832611,165.132751 
	C373.122467,178.288956 372.824310,191.457153 372.992676,204.617386 
	C373.077423,211.239334 373.618195,217.855438 373.961029,224.637222 
	C365.673401,227.647766 355.913788,225.506561 351.573853,220.152191 
	C344.515564,222.523758 337.845001,224.765045 330.714111,227.039490 
M324.919189,189.322113 
	C318.422699,195.573975 320.349426,204.735764 328.851593,207.224976 
	C334.879578,208.989807 340.742645,207.944839 346.095215,204.729782 
	C347.209839,204.060257 348.419708,202.515656 348.485352,201.314209 
	C348.754333,196.391571 348.597656,191.445679 348.597656,185.009521 
	C340.395569,186.402466 332.985168,187.660950 324.919189,189.322113 
z"/>
<path fill="#EF3537" opacity="1.000000" stroke="none" 
	d="
M412.857666,177.024490 
	C412.857635,193.295593 412.857635,209.071701 412.857635,225.144180 
	C404.789642,225.144180 397.191101,225.144180 389.216919,225.144180 
	C389.216919,196.016647 389.216919,166.995270 389.216919,137.455261 
	C397.602448,137.652542 406.531677,135.433945 411.689514,145.565414 
	C413.293396,144.621399 414.602020,143.551865 416.101379,143.019531 
	C423.234741,140.486969 430.259003,136.870071 437.618835,135.907227 
	C455.288544,133.595535 468.437195,144.768021 468.990570,162.590607 
	C469.630768,183.209579 469.139557,203.863678 469.139557,224.974121 
	C461.507507,224.974121 453.809784,224.974121 445.549225,224.974121 
	C445.474426,223.287216 445.332611,221.534332 445.329010,219.781174 
	C445.297028,204.129944 445.432098,188.476883 445.234192,172.827927 
	C445.038635,157.362717 437.610931,153.046448 423.057678,158.557755 
	C414.083405,161.956314 411.328430,167.741089 412.857666,177.024490 
z"/>
<path fill="#EF3537" opacity="1.000000" stroke="none" 
	d="
M745.083191,202.971741 
	C718.893616,199.578476 695.097839,190.988724 682.597046,165.834442 
	C668.962524,138.398911 672.196777,111.274368 689.419678,85.919128 
	C690.404846,84.468803 691.769470,83.276215 693.438293,81.432434 
	C704.431946,126.301285 723.924072,166.130310 752.914734,201.900940 
	C753.003113,202.988953 752.994751,203.432053 752.986450,203.875153 
	C751.874817,203.833511 750.763184,203.791885 748.973755,203.457535 
	C747.225037,203.100464 746.154114,203.036102 745.083191,202.971741 
z"/>
<path fill="#EF3739" opacity="1.000000" stroke="none" 
	d="
M176.611160,169.496262 
	C172.204315,158.879990 167.966766,148.608459 163.345703,137.407349 
	C171.502243,137.407349 178.897598,137.269867 186.274445,137.576767 
	C187.224625,137.616302 188.400024,139.840027 188.928177,141.254669 
	C194.401550,155.914764 199.758759,170.618210 205.160721,185.305008 
	C206.126419,187.930527 207.149231,190.535019 208.563461,194.245239 
	C212.944519,182.627502 216.932541,172.072220 220.904846,161.511017 
	C223.483932,154.653992 226.137314,147.822357 228.555893,140.908844 
	C229.450089,138.352768 230.632812,137.193481 233.547653,137.303741 
	C240.020432,137.548553 246.508850,137.380051 253.903732,137.380051 
	C252.122528,141.712646 250.590530,145.489716 249.020096,149.250763 
	C238.949966,173.367966 228.824371,197.462250 218.857361,221.621964 
	C217.662094,224.519226 216.161026,225.561325 212.987259,225.534805 
	C201.388046,225.437866 199.002106,223.983734 194.605133,213.269913 
	C188.663956,198.793457 182.722046,184.317307 176.611160,169.496262 
z"/>
<path fill="#EE3638" opacity="1.000000" stroke="none" 
	d="
M531.726807,207.273987 
	C537.717224,205.614304 543.252258,204.005463 549.447815,202.204620 
	C551.054688,206.495346 553.025635,211.361877 554.606384,216.352036 
	C554.884277,217.229126 553.826294,219.211533 552.881104,219.692169 
	C537.228271,227.651993 520.981201,230.417831 504.316284,223.368790 
	C487.325989,216.182114 477.750092,196.357437 480.352386,176.003632 
	C484.850739,140.819962 519.475708,127.457275 548.032349,140.086533 
	C550.723877,141.276871 551.669373,142.765732 551.452820,145.778076 
	C551.099854,150.689072 551.357483,155.643982 551.357483,160.257599 
	C544.546509,158.194550 538.546204,155.696152 532.301392,154.628738 
	C519.706848,152.475983 508.619965,159.988312 505.243958,172.145447 
	C501.303680,186.334427 506.926422,201.141327 518.581116,205.653992 
	C522.447266,207.150955 527.021057,206.820038 531.726807,207.273987 
z"/>
<path fill="#EF3638" opacity="1.000000" stroke="none" 
	d="
M276.870270,225.428833 
	C271.437042,225.428650 266.486023,225.428650 261.333191,225.428650 
	C261.333191,195.916107 261.333191,167.023743 261.333191,137.741455 
	C269.112640,137.741455 276.816437,137.741455 284.834381,137.741455 
	C284.834381,166.825546 284.834381,195.844604 284.834381,225.429031 
	C282.268738,225.429031 279.810608,225.429031 276.870270,225.428833 
z"/>
<path fill="#EE383A" opacity="1.000000" stroke="none" 
	d="
M773.074219,222.965668 
	C786.549438,234.355499 800.483398,245.080704 816.695618,252.395401 
	C822.266296,254.908798 827.963074,257.142700 834.688721,259.959259 
	C820.470398,261.657501 807.536072,260.430542 794.694397,257.598450 
	C781.513550,254.691544 769.695007,248.628952 758.515625,241.339905 
	C744.185364,231.996460 728.939392,225.567307 711.596802,224.973679 
	C710.627380,224.940506 709.671082,224.524811 708.460327,223.793091 
	C709.726379,222.792343 711.240662,222.285660 712.755005,221.778961 
	C730.200806,221.703842 747.646545,221.628723 765.750916,221.918396 
	C768.631042,222.510681 770.852661,222.738174 773.074219,222.965668 
z"/>
<path fill="#EE383A" opacity="1.000000" stroke="none" 
	d="
M280.044922,102.721062 
	C287.011658,107.887184 288.869080,114.477066 285.401733,120.681702 
	C282.124084,126.546890 274.545959,129.210083 268.068176,126.773270 
	C261.984222,124.484596 258.472809,117.856110 259.920868,111.393600 
	C261.831451,102.866875 270.211731,99.120094 280.044922,102.721062 
z"/>
<path fill="#EF4346" opacity="1.000000" stroke="none" 
	d="
M773.233765,222.552490 
	C770.852661,222.738174 768.631042,222.510681 766.160889,222.031769 
	C767.346313,221.515305 768.780212,221.250259 770.707092,220.894104 
	C765.639832,215.465332 760.857239,210.341553 756.074585,205.217773 
	C772.408936,206.849152 789.567017,205.554230 800.966736,222.139328 
	C791.015076,222.139328 782.204163,222.139328 773.233765,222.552490 
z"/>
<path fill="#EF4346" opacity="1.000000" stroke="none" 
	d="
M712.372681,221.642532 
	C711.240662,222.285660 709.726379,222.792343 708.121826,223.600220 
	C707.083740,223.435318 706.135864,222.969238 705.188049,222.503159 
	C705.240173,222.170807 705.292236,221.838440 705.344360,221.506088 
	C707.559692,221.506088 709.775085,221.506088 712.372681,221.642532 
z"/>
<path fill="#EF4346" opacity="1.000000" stroke="none" 
	d="
M745.372803,203.116760 
	C746.154114,203.036102 747.225037,203.100464 748.580078,203.314911 
	C747.796936,203.397278 746.729675,203.329529 745.372803,203.116760 
z"/>
<path fill="#EF4346" opacity="1.000000" stroke="none" 
	d="
M753.260254,203.966888 
	C752.994751,203.432053 753.003113,202.988953 753.031738,202.214096 
	C753.212708,202.607773 753.373352,203.333206 753.260254,203.966888 
z"/>
<path fill="#FDF9F7" opacity="1.000000" stroke="none" 
	d="
M127.630577,152.345932 
	C130.214478,159.784485 132.662918,166.855820 135.079529,173.937988 
	C135.166321,174.192337 134.939148,174.553802 134.784866,175.148224 
	C126.764381,175.148224 118.677956,175.148224 109.724121,175.148224 
	C114.113380,163.227737 118.357674,151.700974 122.985023,139.133881 
	C124.701195,144.027924 126.095535,148.004196 127.630577,152.345932 
z"/>
<path fill="#FDF9F8" opacity="1.000000" stroke="none" 
	d="
M584.730103,197.853363 
	C585.169678,191.012985 587.680725,188.068756 594.483398,187.129410 
	C600.029297,186.363586 605.667419,186.265686 612.003174,185.819641 
	C612.003174,191.589478 612.016174,196.818405 611.980286,202.046997 
	C611.977112,202.503464 611.739136,203.019897 611.464050,203.403748 
	C607.001770,209.630463 590.422424,209.365677 586.273987,202.917236 
	C585.421997,201.592865 585.243713,199.835114 584.730103,197.853363 
z"/>
<path fill="#FCF6F5" opacity="1.000000" stroke="none" 
	d="
M325.247009,189.120773 
	C332.985168,187.660950 340.395569,186.402466 348.597656,185.009521 
	C348.597656,191.445679 348.754333,196.391571 348.485352,201.314209 
	C348.419708,202.515656 347.209839,204.060257 346.095215,204.729782 
	C340.742645,207.944839 334.879578,208.989807 328.851593,207.224976 
	C320.349426,204.735764 318.422699,195.573975 325.247009,189.120773 
z"/>
</svg>