<?xml version="1.0" standalone="no"?>
<!DOCTYPE svg PUBLIC "-//W3C//DTD SVG 20010904//EN"
 "http://www.w3.org/TR/2001/REC-SVG-20010904/DTD/svg10.dtd">
<svg version="1.0" xmlns="http://www.w3.org/2000/svg"
 width="225.000000pt" height="225.000000pt" viewBox="0 0 225.000000 225.000000"
 preserveAspectRatio="xMidYMid meet">

<g transform="translate(0.000000,225.000000) scale(0.100000,-0.100000)"
fill="#000000" stroke="none">
<path d="M475 1273 c-22 -58 -125 -334 -125 -338 0 -3 21 -5 46 -5 42 0 47 3
57 30 11 29 13 30 78 30 65 0 67 -1 78 -30 9 -27 14 -30 55 -30 26 0 46 3 46
8 0 4 -29 84 -63 177 l-64 170 -50 3 c-41 2 -52 0 -58 -15z m95 -205 c0 -5
-18 -8 -40 -8 -22 0 -40 4 -40 9 0 7 20 68 36 111 5 13 43 -86 44 -112z"/>
<path d="M1280 1110 l0 -180 45 0 45 0 0 180 0 180 -45 0 -45 0 0 -180z"/>
<path d="M1670 1240 c0 -49 1 -50 30 -50 19 0 30 5 30 14 0 8 10 16 23 18 14
2 23 11 25 26 3 19 -1 22 -32 22 -20 0 -36 5 -36 10 0 6 -9 10 -20 10 -17 0
-20 -7 -20 -50z"/>
<path d="M1850 1221 c0 -14 6 -17 25 -13 28 5 33 17 9 26 -26 10 -34 7 -34
-13z"/>
<path d="M740 1160 l0 -30 62 0 62 0 -67 -68 c-55 -55 -67 -73 -67 -100 l0
-32 125 0 125 0 0 30 0 30 -72 0 -72 0 67 68 c55 55 67 73 67 100 l0 32 -115
0 -115 0 0 -30z"/>
<path d="M990 1096 c0 -140 19 -175 96 -176 27 0 50 7 68 21 19 15 24 16 20 5
-5 -13 2 -16 40 -16 l46 0 0 130 0 130 -45 0 -45 0 0 -88 c0 -96 -7 -112 -51
-112 -35 0 -39 13 -39 116 l0 84 -45 0 -45 0 0 -94z"/>
<path d="M1803 1163 c9 -2 23 -2 30 0 6 3 -1 5 -18 5 -16 0 -22 -2 -12 -5z"/>
<path d="M1868 1143 c7 -3 16 -2 19 1 4 3 -2 6 -13 5 -11 0 -14 -3 -6 -6z"/>
<path d="M1740 1110 c0 -16 -7 -20 -35 -20 -34 0 -35 -1 -35 -41 0 -23 4 -38
10 -34 5 3 18 0 28 -6 27 -17 96 -3 88 17 -3 9 -6 20 -6 25 0 5 -11 9 -25 9
-14 0 -25 5 -25 10 0 6 7 10 16 10 11 0 13 6 9 19 -5 17 0 20 37 24 42 3 41 4
-9 5 -47 2 -53 0 -53 -18z"/>
<path d="M1708 983 c-11 -3 -18 -14 -18 -29 0 -19 5 -24 25 -24 18 0 25 5 25
20 0 11 5 20 10 20 6 0 10 5 10 10 0 10 -21 11 -52 3z"/>
</g>
</svg>
