<svg version="1.1" id="Layer_1" xmlns="http://www.w3.org/2000/svg" xmlns:xlink="http://www.w3.org/1999/xlink" x="0px" y="0px"
	 width="100%" viewBox="0 0 1200 688" enable-background="new 0 0 1200 688" xml:space="preserve">
<path fill="#000000" opacity="1.000000" stroke="none" 
	d="
M863.000000,689.000000 
	C575.371338,689.000000 288.242676,689.000000 1.056998,689.000000 
	C1.056998,459.735016 1.056998,230.470032 1.056998,1.102517 
	C400.878723,1.102517 800.757446,1.102517 1200.818115,1.102517 
	C1200.818115,230.333221 1200.818115,459.666595 1200.818115,689.000000 
	C1088.469971,689.000000 975.984985,689.000000 863.000000,689.000000 
M930.972778,451.994812 
	C930.981873,493.992188 931.291809,535.993042 930.807312,577.984741 
	C930.671021,589.793518 938.306885,597.118713 949.795837,597.092590 
	C1027.624268,596.915649 1105.453613,596.912842 1183.281738,597.151733 
	C1190.147217,597.172791 1195.164917,593.697510 1195.076416,585.030640 
	C1194.848633,562.700928 1195.003174,540.367310 1194.998535,518.035278 
	C1194.996948,510.237152 1191.736572,507.001831 1183.880493,507.001434 
	C1133.216797,506.998840 1082.552979,507.000397 1031.889282,506.999786 
	C1023.019958,506.999664 1021.000305,504.948273 1021.000366,495.950836 
	C1021.000427,377.624298 1021.000366,259.297791 1021.000122,140.971252 
	C1021.000122,139.638016 1021.108887,138.293152 1020.973572,136.973557 
	C1020.415222,131.530594 1016.928101,128.032745 1011.791199,128.022141 
	C987.959351,127.972923 964.127197,127.961075 940.295410,128.026657 
	C933.871826,128.044342 931.005798,131.072510 931.004517,137.438217 
	C930.995972,180.935715 931.002441,224.433197 930.992310,267.930695 
	C930.991821,269.926056 930.877625,271.921387 930.438965,273.356262 
	C919.566895,246.259659 904.474304,221.740707 884.749207,200.236191 
	C862.953064,176.473907 837.397217,157.786682 808.189087,143.877121 
	C776.711365,128.886703 743.448547,121.777466 708.919556,121.189262 
	C693.260620,120.922516 677.550171,123.680740 661.005615,125.022346 
	C659.672974,124.994896 658.330383,125.062675 657.009155,124.925186 
	C644.627625,123.636848 632.270447,122.027924 619.861572,121.127411 
	C614.151062,120.712997 608.303223,121.356987 602.584290,122.061493 
	C588.973633,123.738144 575.237915,124.956047 561.852539,127.780197 
	C539.322876,132.533691 517.688660,140.401855 498.128784,152.649811 
	C483.656708,161.711884 469.318298,171.358429 456.429718,182.491943 
	C436.677277,199.554642 420.363525,219.762268 407.533997,242.748367 
	C395.954590,263.494629 387.007111,285.135925 381.975372,308.372986 
	C380.856232,313.541382 377.965607,317.206451 371.594971,317.153473 
	C334.103577,316.841888 296.608276,316.987915 259.114288,317.010284 
	C251.224487,317.015015 248.002838,320.274139 248.001343,328.070038 
	C247.996948,350.899719 247.998306,373.729370 248.000580,396.559052 
	C248.001389,404.709381 250.336227,406.999542 258.639069,406.999847 
	C291.300476,407.001129 323.962006,407.039337 356.623230,406.966034 
	C362.788940,406.952209 367.593140,410.167969 367.158661,417.349243 
	C366.535828,427.643219 366.815094,438.007538 367.069092,448.332947 
	C367.221802,454.540222 364.814240,459.445587 360.738495,463.740234 
	C350.164215,474.882568 338.426331,484.483124 325.211639,492.488739 
	C301.203979,507.032867 274.969635,513.182739 247.348450,513.803772 
	C237.926178,514.015686 228.278030,512.778748 219.034042,510.798798 
	C183.434174,503.173615 153.634338,485.448090 130.703781,457.060059 
	C109.534714,430.852753 98.546898,400.433411 97.243477,366.900330 
	C96.788132,355.185699 98.135056,343.166809 100.410370,331.632355 
	C104.343590,311.693237 112.452850,293.220337 124.162094,276.502563 
	C139.232895,254.985428 158.456512,238.079330 182.068039,226.564880 
	C198.846130,218.382828 216.541733,212.726212 235.403580,212.070068 
	C246.248520,211.692810 257.235260,211.039932 267.950134,212.291733 
	C284.140442,214.183228 299.640533,219.315430 314.516663,226.107300 
	C318.962585,228.137115 322.470825,227.049011 325.010376,222.910095 
	C329.434174,215.700302 333.893219,208.510773 338.212311,201.238419 
	C346.443512,187.378998 354.590424,173.469498 362.763702,159.575714 
	C364.902161,155.940536 364.392761,152.577042 361.271912,149.850677 
	C359.440308,148.250595 357.395050,146.656937 355.162415,145.792801 
	C341.245117,140.406143 327.388184,134.805634 313.241943,130.082596 
	C294.810608,123.928894 275.538269,121.856850 256.256561,121.197426 
	C244.432968,120.793060 232.436615,121.563057 220.710052,123.190598 
	C206.396347,125.177208 191.963913,127.536713 178.147385,131.637222 
	C142.577148,142.193832 111.187439,160.593170 83.886330,185.720566 
	C70.151283,198.362030 58.344147,212.756821 47.969494,228.279160 
	C34.220520,248.850067 23.926470,271.015717 16.903240,294.781494 
	C10.789853,315.468506 7.892664,336.632690 7.174093,358.053955 
	C6.827734,368.379211 8.183730,378.778168 9.023568,389.123077 
	C10.588431,408.398621 15.424447,426.900177 21.881596,445.112000 
	C32.854004,476.058594 50.103382,503.113708 71.960426,527.319458 
	C84.363350,541.055176 98.697945,552.732910 114.095062,562.940613 
	C138.419907,579.067078 164.614075,590.947754 193.316696,597.216309 
	C216.207672,602.215759 239.156189,605.565613 262.603363,602.958008 
	C275.263611,601.549988 287.956299,600.151062 300.487091,597.920837 
	C325.595795,593.451782 348.680450,583.396362 370.667358,570.771362 
	C391.169067,558.999207 409.234375,544.110535 425.541656,527.018616 
	C432.050781,520.196289 433.968201,520.239258 440.692383,527.243774 
	C453.053741,540.120667 466.257172,551.982544 481.057343,562.024231 
	C497.151825,572.944214 514.256104,582.016174 532.492920,588.657654 
	C551.018433,595.404236 570.049072,600.471619 589.841431,602.001831 
	C594.932312,602.395447 600.024414,602.807373 605.123474,603.054382 
	C612.716919,603.422241 620.358826,604.284973 627.904602,603.788879 
	C638.987976,603.060242 650.004700,601.318176 661.888062,600.097717 
	C667.808777,600.818420 673.755249,601.373840 679.645569,602.289795 
	C699.527954,605.381775 719.425354,604.428345 739.166687,601.680420 
	C769.875854,597.405762 798.842285,587.731934 825.871826,572.231140 
	C854.230347,555.968201 878.024353,534.602173 898.105591,509.016815 
	C911.931641,491.401093 922.214661,471.694672 930.972778,451.994812 
z"/>
<path fill="#FF7020" opacity="1.000000" stroke="none" 
	d="
M661.049866,600.007935 
	C650.004700,601.318176 638.987976,603.060242 627.904602,603.788879 
	C620.358826,604.284973 612.716919,603.422241 605.123474,603.054382 
	C600.024414,602.807373 594.932312,602.395447 589.841431,602.001831 
	C570.049072,600.471619 551.018433,595.404236 532.492920,588.657654 
	C514.256104,582.016174 497.151825,572.944214 481.057343,562.024231 
	C466.257172,551.982544 453.053741,540.120667 440.692383,527.243774 
	C433.968201,520.239258 432.050781,520.196289 425.541656,527.018616 
	C409.234375,544.110535 391.169067,558.999207 370.667358,570.771362 
	C348.680450,583.396362 325.595795,593.451782 300.487091,597.920837 
	C287.956299,600.151062 275.263611,601.549988 262.603363,602.958008 
	C239.156189,605.565613 216.207672,602.215759 193.316696,597.216309 
	C164.614075,590.947754 138.419907,579.067078 114.095062,562.940613 
	C98.697945,552.732910 84.363350,541.055176 71.960426,527.319458 
	C50.103382,503.113708 32.854004,476.058594 21.881596,445.112000 
	C15.424447,426.900177 10.588431,408.398621 9.023568,389.123077 
	C8.183730,378.778168 6.827734,368.379211 7.174093,358.053955 
	C7.892664,336.632690 10.789853,315.468506 16.903240,294.781494 
	C23.926470,271.015717 34.220520,248.850067 47.969494,228.279160 
	C58.344147,212.756821 70.151283,198.362030 83.886330,185.720566 
	C111.187439,160.593170 142.577148,142.193832 178.147385,131.637222 
	C191.963913,127.536713 206.396347,125.177208 220.710052,123.190598 
	C232.436615,121.563057 244.432968,120.793060 256.256561,121.197426 
	C275.538269,121.856850 294.810608,123.928894 313.241943,130.082596 
	C327.388184,134.805634 341.245117,140.406143 355.162415,145.792801 
	C357.395050,146.656937 359.440308,148.250595 361.271912,149.850677 
	C364.392761,152.577042 364.902161,155.940536 362.763702,159.575714 
	C354.590424,173.469498 346.443512,187.378998 338.212311,201.238419 
	C333.893219,208.510773 329.434174,215.700302 325.010376,222.910095 
	C322.470825,227.049011 318.962585,228.137115 314.516663,226.107300 
	C299.640533,219.315430 284.140442,214.183228 267.950134,212.291733 
	C257.235260,211.039932 246.248520,211.692810 235.403580,212.070068 
	C216.541733,212.726212 198.846130,218.382828 182.068039,226.564880 
	C158.456512,238.079330 139.232895,254.985428 124.162094,276.502563 
	C112.452850,293.220337 104.343590,311.693237 100.410370,331.632355 
	C98.135056,343.166809 96.788132,355.185699 97.243477,366.900330 
	C98.546898,400.433411 109.534714,430.852753 130.703781,457.060059 
	C153.634338,485.448090 183.434174,503.173615 219.034042,510.798798 
	C228.278030,512.778748 237.926178,514.015686 247.348450,513.803772 
	C274.969635,513.182739 301.203979,507.032867 325.211639,492.488739 
	C338.426331,484.483124 350.164215,474.882568 360.738495,463.740234 
	C364.814240,459.445587 367.221802,454.540222 367.069092,448.332947 
	C366.815094,438.007538 366.535828,427.643219 367.158661,417.349243 
	C367.593140,410.167969 362.788940,406.952209 356.623230,406.966034 
	C323.962006,407.039337 291.300476,407.001129 258.639069,406.999847 
	C250.336227,406.999542 248.001389,404.709381 248.000580,396.559052 
	C247.998306,373.729370 247.996948,350.899719 248.001343,328.070038 
	C248.002838,320.274139 251.224487,317.015015 259.114288,317.010284 
	C296.608276,316.987915 334.103577,316.841888 371.594971,317.153473 
	C377.965607,317.206451 380.856232,313.541382 381.975372,308.372986 
	C387.007111,285.135925 395.954590,263.494629 407.533997,242.748367 
	C420.363525,219.762268 436.677277,199.554642 456.429718,182.491943 
	C469.318298,171.358429 483.656708,161.711884 498.128784,152.649811 
	C517.688660,140.401855 539.322876,132.533691 561.852539,127.780197 
	C575.237915,124.956047 588.973633,123.738144 602.584290,122.061493 
	C608.303223,121.356987 614.151062,120.712997 619.861572,121.127411 
	C632.270447,122.027924 644.627625,123.636848 657.009155,124.925186 
	C658.330383,125.062675 659.672974,124.994896 661.680481,125.348557 
	C682.240723,129.616760 701.536133,135.433701 720.030884,143.802124 
	C764.453918,163.902359 800.141113,194.121857 825.592712,235.867203 
	C842.547668,263.676422 852.711487,293.858734 856.320557,326.365143 
	C858.379944,344.914856 859.093323,363.413208 855.697632,381.702667 
	C848.233093,421.906891 828.710205,455.359802 797.040161,481.381256 
	C770.209229,503.426605 739.235229,514.653137 704.504089,514.946472 
	C696.457336,515.014404 688.340515,514.071655 680.364502,512.871948 
	C674.149902,511.937164 668.103821,509.881927 661.132446,508.108276 
	C663.088074,507.074097 663.914612,506.480225 664.836731,506.172424 
	C684.988525,499.445892 702.948853,488.845520 718.733887,474.756958 
	C732.592224,462.388000 743.659363,447.634399 751.976624,431.059296 
	C760.068604,414.933350 766.150879,397.968384 766.981140,379.746368 
	C767.581238,366.577545 768.389709,353.184296 766.706482,340.202087 
	C764.378113,322.243805 758.190674,305.229858 749.253906,289.196747 
	C739.827515,272.285217 727.883545,257.511169 712.908081,245.537109 
	C690.767212,227.833801 665.801819,216.351807 637.230469,212.710190 
	C620.088013,210.525269 603.319519,210.828445 586.596680,214.684280 
	C553.139771,222.398514 525.939697,240.293900 504.101959,266.470184 
	C479.329071,296.164764 466.706329,330.658356 465.206207,369.140259 
	C464.854462,378.163452 466.275421,387.265686 467.023285,396.319794 
	C468.669891,416.254669 473.328705,435.559631 480.895111,453.996246 
	C512.858643,531.880127 571.982605,577.352234 652.557251,597.007385 
	C655.459351,597.715393 658.222168,598.994812 661.049866,600.007935 
z"/>
<path fill="#25221D" opacity="1.000000" stroke="none" 
	d="
M661.468994,600.052856 
	C658.222168,598.994812 655.459351,597.715393 652.557251,597.007385 
	C571.982605,577.352234 512.858643,531.880127 480.895111,453.996246 
	C473.328705,435.559631 468.669891,416.254669 467.023285,396.319794 
	C466.275421,387.265686 464.854462,378.163452 465.206207,369.140259 
	C466.706329,330.658356 479.329071,296.164764 504.101959,266.470184 
	C525.939697,240.293900 553.139771,222.398514 586.596680,214.684280 
	C603.319519,210.828445 620.088013,210.525269 637.230469,212.710190 
	C665.801819,216.351807 690.767212,227.833801 712.908081,245.537109 
	C727.883545,257.511169 739.827515,272.285217 749.253906,289.196747 
	C758.190674,305.229858 764.378113,322.243805 766.706482,340.202087 
	C768.389709,353.184296 767.581238,366.577545 766.981140,379.746368 
	C766.150879,397.968384 760.068604,414.933350 751.976624,431.059296 
	C743.659363,447.634399 732.592224,462.388000 718.733887,474.756958 
	C702.948853,488.845520 684.988525,499.445892 664.836731,506.172424 
	C663.914612,506.480225 663.088074,507.074097 661.132446,508.108276 
	C668.103821,509.881927 674.149902,511.937164 680.364502,512.871948 
	C688.340515,514.071655 696.457336,515.014404 704.504089,514.946472 
	C739.235229,514.653137 770.209229,503.426605 797.040161,481.381256 
	C828.710205,455.359802 848.233093,421.906891 855.697632,381.702667 
	C859.093323,363.413208 858.379944,344.914856 856.320557,326.365143 
	C852.711487,293.858734 842.547668,263.676422 825.592712,235.867203 
	C800.141113,194.121857 764.453918,163.902359 720.030884,143.802124 
	C701.536133,135.433701 682.240723,129.616760 662.109253,125.370758 
	C677.550171,123.680740 693.260620,120.922516 708.919556,121.189262 
	C743.448547,121.777466 776.711365,128.886703 808.189087,143.877121 
	C837.397217,157.786682 862.953064,176.473907 884.749207,200.236191 
	C904.474304,221.740707 919.566895,246.259659 930.678101,274.110046 
	C930.934753,302.820068 930.979736,330.776398 930.962524,358.732635 
	C930.943542,389.516083 930.867493,420.299500 930.816284,451.082916 
	C922.214661,471.694672 911.931641,491.401093 898.105591,509.016815 
	C878.024353,534.602173 854.230347,555.968201 825.871826,572.231140 
	C798.842285,587.731934 769.875854,597.405762 739.166687,601.680420 
	C719.425354,604.428345 699.527954,605.381775 679.645569,602.289795 
	C673.755249,601.373840 667.808777,600.818420 661.468994,600.052856 
z"/>
<path fill="#FF7020" opacity="1.000000" stroke="none" 
	d="
M930.894531,451.538879 
	C930.867493,420.299500 930.943542,389.516083 930.962524,358.732635 
	C930.979736,330.776398 930.934753,302.820068 930.866821,274.390259 
	C930.877625,271.921387 930.991821,269.926056 930.992310,267.930695 
	C931.002441,224.433197 930.995972,180.935715 931.004517,137.438217 
	C931.005798,131.072510 933.871826,128.044342 940.295410,128.026657 
	C964.127197,127.961075 987.959351,127.972923 1011.791199,128.022141 
	C1016.928101,128.032745 1020.415222,131.530594 1020.973572,136.973557 
	C1021.108887,138.293152 1021.000122,139.638016 1021.000122,140.971252 
	C1021.000366,259.297791 1021.000427,377.624298 1021.000366,495.950836 
	C1021.000305,504.948273 1023.019958,506.999664 1031.889282,506.999786 
	C1082.552979,507.000397 1133.216797,506.998840 1183.880493,507.001434 
	C1191.736572,507.001831 1194.996948,510.237152 1194.998535,518.035278 
	C1195.003174,540.367310 1194.848633,562.700928 1195.076416,585.030640 
	C1195.164917,593.697510 1190.147217,597.172791 1183.281738,597.151733 
	C1105.453613,596.912842 1027.624268,596.915649 949.795837,597.092590 
	C938.306885,597.118713 930.671021,589.793518 930.807312,577.984741 
	C931.291809,535.993042 930.981873,493.992188 930.894531,451.538879 
z"/>
</svg>