<?xml version="1.0" encoding="UTF-8"?>
<svg xmlns="http://www.w3.org/2000/svg" xmlns:xlink="http://www.w3.org/1999/xlink" width="150px" height="150px" viewBox="0 0 113 113" version="1.1">
<g id="surface1">
<path style=" stroke:none;fill-rule:nonzero;fill:rgb(35.294118%,21.568627%,58.431373%);fill-opacity:1;" d="M 77.71875 113.125 C 51.8125 113.125 25.96875 113.125 0.125 113.125 C 0.125 75.457031 0.125 37.792969 0.125 0.125 C 37.792969 0.125 75.457031 0.125 113.125 0.125 C 113.125 37.792969 113.125 75.457031 113.125 113.125 C 101.34375 113.125 89.5625 113.125 77.71875 113.125 M 65.101562 36.171875 C 65.136719 36.203125 65.171875 36.230469 65.195312 36.257812 C 65.195312 36.257812 65.199219 36.246094 65.195312 36.335938 C 65.316406 36.441406 65.433594 36.546875 65.546875 36.65625 C 65.546875 36.65625 65.546875 36.644531 65.578125 36.703125 C 65.609375 36.730469 65.640625 36.757812 65.664062 36.785156 C 65.664062 36.785156 65.667969 36.78125 65.675781 36.847656 C 65.730469 36.914062 65.785156 36.976562 65.898438 37.074219 C 65.910156 37.117188 65.925781 37.160156 65.957031 37.296875 C 66.28125 38.082031 66.605469 38.867188 66.933594 39.652344 C 67.058594 39.953125 67.195312 40.25 67.378906 40.625 C 67.386719 40.6875 67.398438 40.746094 67.355469 40.886719 C 67.351562 41.09375 67.34375 41.296875 67.34375 41.503906 C 67.34375 42.703125 67.414062 43.914062 67.328125 45.109375 C 67.265625 46.011719 67 46.898438 66.832031 47.820312 C 66.832031 47.820312 66.808594 47.835938 66.730469 47.878906 C 66.554688 48.273438 66.378906 48.664062 66.191406 49.109375 C 66.15625 49.152344 66.125 49.195312 66.003906 49.261719 C 65.894531 49.460938 65.785156 49.660156 65.667969 49.851562 C 65.667969 49.851562 65.675781 49.851562 65.585938 49.867188 C 65.496094 50.007812 65.402344 50.148438 65.296875 50.347656 C 65.253906 50.390625 65.210938 50.429688 65.113281 50.507812 C 65.089844 50.542969 65.066406 50.578125 65.042969 50.601562 C 65.042969 50.601562 65.050781 50.601562 64.996094 50.632812 C 64.96875 50.667969 64.941406 50.699219 64.914062 50.722656 C 64.914062 50.722656 64.921875 50.726562 64.839844 50.742188 C 64.78125 50.820312 64.722656 50.898438 64.640625 51.035156 C 64.617188 51.070312 64.582031 51.089844 64.464844 51.117188 C 64.421875 51.175781 64.375 51.234375 64.3125 51.246094 C 64.3125 51.246094 64.335938 51.289062 64.246094 51.269531 C 64.136719 51.382812 64.027344 51.5 63.910156 51.605469 C 63.910156 51.605469 63.917969 51.609375 63.84375 51.621094 C 63.796875 51.675781 63.746094 51.730469 63.667969 51.742188 C 63.667969 51.742188 63.703125 51.785156 63.613281 51.769531 C 63.515625 51.855469 63.414062 51.945312 63.3125 52.019531 C 63.3125 52.019531 63.324219 52.023438 63.230469 52.011719 C 63.082031 52.128906 62.929688 52.246094 62.765625 52.386719 C 62.765625 52.386719 62.742188 52.382812 62.664062 52.402344 C 62.621094 52.433594 62.578125 52.46875 62.539062 52.492188 C 62.539062 52.492188 62.542969 52.496094 62.445312 52.488281 C 62.1875 52.625 61.925781 52.761719 61.667969 52.886719 C 61.667969 52.886719 61.679688 52.890625 61.578125 52.878906 C 60.472656 53.121094 59.371094 53.367188 58.148438 53.613281 C 53.660156 53.609375 49.171875 53.609375 44.628906 53.539062 C 42.964844 49.050781 39.355469 46.707031 34.671875 47.078125 C 30.613281 47.402344 26.816406 51.125 26.515625 55.183594 C 26.394531 56.78125 26.472656 58.398438 26.472656 60.007812 C 26.46875 70.65625 26.46875 81.304688 26.472656 91.953125 C 26.472656 92.539062 26.425781 93.140625 26.535156 93.707031 C 26.742188 94.789062 26.894531 95.921875 27.339844 96.910156 C 28.597656 99.6875 30.894531 101.191406 33.859375 101.589844 C 37.460938 102.074219 40.609375 101.152344 42.832031 98.085938 C 44.042969 96.414062 44.335938 94.445312 44.335938 92.421875 C 44.335938 84.074219 44.335938 75.726562 44.335938 67.375 C 44.335938 67.140625 44.335938 66.90625 44.335938 66.671875 C 44.394531 66.65625 44.453125 66.636719 44.511719 66.621094 C 44.699219 66.832031 44.894531 67.039062 45.074219 67.257812 C 49.046875 72.082031 53.015625 76.910156 56.984375 81.742188 C 61.394531 87.101562 65.855469 92.421875 70.1875 97.847656 C 72.449219 100.683594 75.292969 101.964844 78.835938 101.652344 C 82.484375 101.328125 84.839844 99.167969 86.183594 95.90625 C 87.496094 92.726562 86.8125 89.84375 84.464844 87.347656 C 78.480469 80.980469 72.488281 74.617188 66.5 68.25 C 65.761719 67.464844 65.03125 66.671875 64.246094 65.828125 C 64.566406 65.769531 64.789062 65.726562 65.011719 65.683594 C 69.707031 64.835938 74.019531 63.089844 77.902344 60.277344 C 82.945312 56.625 85.683594 51.707031 86.125 45.515625 C 86.417969 41.417969 86.070312 37.363281 84.964844 33.398438 C 83.578125 28.445312 80.851562 24.433594 76.515625 21.574219 C 72.53125 18.9375 68.101562 17.53125 63.417969 16.859375 C 61.828125 16.628906 60.222656 16.527344 58.550781 16.292969 C 58.367188 16.261719 58.1875 16.207031 58.007812 16.203125 C 54.917969 16.199219 51.832031 16.203125 48.742188 16.210938 C 48.570312 16.210938 48.398438 16.304688 48.117188 16.402344 C 45.722656 16.410156 43.324219 16.417969 40.835938 16.375 C 38.890625 16.359375 36.941406 16.34375 34.992188 16.335938 C 34.878906 16.335938 34.769531 16.421875 34.574219 16.527344 C 32.558594 16.667969 30.714844 17.246094 29.199219 18.648438 C 27.339844 20.375 26.574219 22.585938 26.496094 25.054688 C 26.429688 27.167969 26.425781 29.28125 26.433594 31.394531 C 26.441406 33.585938 27.148438 35.53125 28.578125 37.207031 C 30.609375 39.585938 33.265625 40.578125 36.378906 40.6875 C 36.46875 40.652344 36.5625 40.621094 36.714844 40.503906 C 36.785156 40.492188 36.851562 40.480469 37.003906 40.515625 C 38.4375 40.582031 39.621094 39.851562 40.851562 39.28125 C 40.953125 39.238281 40.988281 39.042969 41.058594 38.921875 C 41.058594 38.921875 41.054688 38.917969 41.140625 38.917969 C 41.277344 38.785156 41.410156 38.652344 41.546875 38.53125 C 41.546875 38.53125 41.535156 38.527344 41.613281 38.523438 C 41.679688 38.457031 41.742188 38.390625 41.828125 38.285156 C 41.828125 38.285156 41.871094 38.273438 41.957031 38.253906 C 42.066406 38.128906 42.175781 38.003906 42.289062 37.890625 C 42.289062 37.890625 42.277344 37.882812 42.367188 37.886719 C 42.5 37.714844 42.632812 37.542969 42.804688 37.386719 C 42.804688 37.386719 42.761719 37.375 42.832031 37.34375 C 42.859375 37.304688 42.886719 37.265625 42.917969 37.183594 C 42.933594 37.15625 42.953125 37.140625 43.074219 37.117188 C 43.144531 36.996094 43.210938 36.871094 43.285156 36.761719 C 43.285156 36.761719 43.273438 36.765625 43.339844 36.71875 C 43.363281 36.671875 43.390625 36.625 43.414062 36.546875 C 43.414062 36.546875 43.445312 36.535156 43.53125 36.519531 C 43.664062 36.269531 43.796875 36.015625 43.9375 35.773438 C 43.9375 35.773438 43.925781 35.773438 43.976562 35.730469 C 43.992188 35.691406 44.007812 35.648438 44.03125 35.628906 C 44.03125 35.628906 44.011719 35.613281 44.101562 35.597656 C 44.371094 34.996094 44.765625 34.421875 44.878906 33.792969 C 45.007812 33.085938 45.351562 33 45.949219 33.011719 C 50.0625 33.070312 54.179688 33.109375 58.386719 33.066406 C 58.472656 33.058594 58.554688 33.050781 58.703125 33.097656 C 60.058594 33.5625 61.410156 34.023438 62.761719 34.484375 C 62.816406 34.5 62.886719 34.480469 62.9375 34.484375 C 62.9375 34.484375 62.9375 34.46875 62.96875 34.546875 C 63.042969 34.570312 63.113281 34.597656 63.175781 34.625 C 63.175781 34.625 63.175781 34.617188 63.203125 34.699219 C 63.328125 34.75 63.449219 34.804688 63.5625 34.863281 C 63.5625 34.863281 63.566406 34.851562 63.59375 34.929688 C 63.757812 35.035156 63.921875 35.136719 64.066406 35.246094 C 64.066406 35.246094 64.066406 35.222656 64.09375 35.296875 C 64.164062 35.332031 64.230469 35.363281 64.289062 35.402344 C 64.289062 35.402344 64.289062 35.390625 64.328125 35.445312 C 64.367188 35.46875 64.40625 35.488281 64.433594 35.511719 C 64.433594 35.511719 64.433594 35.496094 64.453125 35.554688 C 64.5 35.589844 64.546875 35.625 64.652344 35.679688 C 64.652344 35.679688 64.675781 35.734375 64.710938 35.800781 C 64.75 35.828125 64.792969 35.855469 64.808594 35.886719 C 64.808594 35.886719 64.8125 35.863281 64.84375 35.929688 C 64.882812 35.949219 64.921875 35.972656 64.949219 36 C 64.949219 36 64.949219 35.980469 64.972656 36.046875 C 65.011719 36.066406 65.054688 36.089844 65.0625 36.144531 C 65.0625 36.144531 65.089844 36.105469 65.101562 36.171875 Z M 65.101562 36.171875 "/>
<path style=" stroke:none;fill-rule:nonzero;fill:rgb(100%,99.607843%,100%);fill-opacity:1;" d="M 40.925781 16.429688 C 43.324219 16.417969 45.722656 16.410156 48.230469 16.390625 C 51.769531 16.375 55.195312 16.371094 58.625 16.363281 C 60.222656 16.527344 61.828125 16.628906 63.417969 16.859375 C 68.101562 17.53125 72.53125 18.9375 76.515625 21.574219 C 80.851562 24.433594 83.578125 28.445312 84.964844 33.398438 C 86.070312 37.363281 86.417969 41.417969 86.125 45.515625 C 85.683594 51.707031 82.945312 56.625 77.902344 60.277344 C 74.019531 63.089844 69.707031 64.835938 65.011719 65.683594 C 64.789062 65.726562 64.566406 65.769531 64.246094 65.828125 C 65.03125 66.671875 65.761719 67.464844 66.5 68.25 C 72.488281 74.617188 78.480469 80.980469 84.464844 87.347656 C 86.8125 89.84375 87.496094 92.726562 86.183594 95.90625 C 84.839844 99.167969 82.484375 101.328125 78.835938 101.652344 C 75.292969 101.964844 72.449219 100.683594 70.1875 97.847656 C 65.855469 92.421875 61.394531 87.101562 56.984375 81.742188 C 53.015625 76.910156 49.046875 72.082031 45.074219 67.257812 C 44.894531 67.039062 44.699219 66.832031 44.511719 66.621094 C 44.453125 66.636719 44.394531 66.65625 44.335938 66.671875 C 44.335938 66.90625 44.335938 67.140625 44.335938 67.375 C 44.335938 75.726562 44.335938 84.074219 44.335938 92.421875 C 44.335938 94.445312 44.042969 96.414062 42.832031 98.085938 C 40.609375 101.152344 37.460938 102.074219 33.859375 101.589844 C 30.894531 101.191406 28.597656 99.6875 27.339844 96.910156 C 26.894531 95.921875 26.742188 94.789062 26.535156 93.707031 C 26.425781 93.140625 26.472656 92.539062 26.472656 91.953125 C 26.46875 81.304688 26.46875 70.65625 26.472656 60.007812 C 26.472656 58.398438 26.394531 56.78125 26.515625 55.183594 C 26.816406 51.125 30.613281 47.402344 34.671875 47.078125 C 39.355469 46.707031 42.964844 49.050781 44.671875 53.632812 C 44.941406 53.746094 45.167969 53.785156 45.394531 53.785156 C 48.195312 53.792969 51 53.796875 53.804688 53.785156 C 55.289062 53.78125 56.773438 53.75 58.3125 53.734375 C 59.46875 53.460938 60.574219 53.175781 61.679688 52.890625 C 61.679688 52.890625 61.667969 52.886719 61.710938 52.886719 C 62.019531 52.757812 62.28125 52.625 62.542969 52.496094 C 62.542969 52.496094 62.539062 52.492188 62.578125 52.492188 C 62.660156 52.457031 62.703125 52.417969 62.742188 52.382812 C 62.742188 52.382812 62.765625 52.386719 62.8125 52.367188 C 63.015625 52.238281 63.167969 52.132812 63.324219 52.023438 C 63.324219 52.023438 63.3125 52.019531 63.351562 52.015625 C 63.496094 51.933594 63.597656 51.859375 63.703125 51.785156 C 63.703125 51.785156 63.667969 51.742188 63.71875 51.75 C 63.820312 51.710938 63.871094 51.660156 63.917969 51.609375 C 63.917969 51.609375 63.910156 51.605469 63.949219 51.597656 C 64.105469 51.488281 64.21875 51.386719 64.335938 51.289062 C 64.335938 51.289062 64.3125 51.246094 64.355469 51.253906 C 64.449219 51.210938 64.496094 51.15625 64.542969 51.101562 C 64.582031 51.089844 64.617188 51.070312 64.683594 50.992188 C 64.792969 50.875 64.855469 50.800781 64.921875 50.726562 C 64.921875 50.726562 64.914062 50.722656 64.945312 50.71875 C 65.003906 50.675781 65.027344 50.640625 65.050781 50.601562 C 65.050781 50.601562 65.042969 50.601562 65.074219 50.59375 C 65.125 50.550781 65.144531 50.511719 65.167969 50.472656 C 65.210938 50.429688 65.253906 50.390625 65.339844 50.296875 C 65.484375 50.113281 65.578125 49.984375 65.675781 49.851562 C 65.675781 49.851562 65.667969 49.851562 65.703125 49.828125 C 65.855469 49.617188 65.972656 49.425781 66.089844 49.234375 C 66.125 49.195312 66.15625 49.152344 66.230469 49.054688 C 66.449219 48.609375 66.628906 48.222656 66.808594 47.835938 C 66.808594 47.835938 66.832031 47.820312 66.863281 47.773438 C 67.707031 45.46875 67.847656 43.160156 67.40625 40.804688 C 67.398438 40.746094 67.386719 40.6875 67.355469 40.542969 C 67.078125 39.28125 66.714844 38.152344 65.941406 37.199219 C 65.925781 37.160156 65.910156 37.117188 65.863281 37.027344 C 65.773438 36.910156 65.722656 36.847656 65.667969 36.78125 C 65.667969 36.78125 65.664062 36.785156 65.660156 36.753906 C 65.621094 36.695312 65.585938 36.667969 65.546875 36.644531 C 65.546875 36.644531 65.546875 36.65625 65.535156 36.617188 C 65.417969 36.46875 65.308594 36.359375 65.199219 36.246094 C 65.199219 36.246094 65.195312 36.257812 65.191406 36.226562 C 65.15625 36.164062 65.121094 36.132812 65.089844 36.105469 C 65.089844 36.105469 65.0625 36.144531 65.0625 36.097656 C 65.023438 36.027344 64.988281 36.003906 64.949219 35.980469 C 64.949219 35.980469 64.949219 36 64.941406 35.964844 C 64.894531 35.910156 64.851562 35.886719 64.8125 35.863281 C 64.8125 35.863281 64.808594 35.886719 64.804688 35.851562 C 64.761719 35.789062 64.71875 35.761719 64.675781 35.734375 C 64.675781 35.734375 64.652344 35.679688 64.613281 35.640625 C 64.527344 35.566406 64.480469 35.53125 64.433594 35.496094 C 64.433594 35.496094 64.433594 35.511719 64.421875 35.480469 C 64.371094 35.429688 64.332031 35.410156 64.289062 35.390625 C 64.289062 35.390625 64.289062 35.402344 64.273438 35.367188 C 64.195312 35.296875 64.132812 35.261719 64.066406 35.222656 C 64.066406 35.222656 64.066406 35.246094 64.054688 35.207031 C 63.882812 35.066406 63.722656 34.957031 63.566406 34.851562 C 63.566406 34.851562 63.5625 34.863281 63.546875 34.828125 C 63.410156 34.734375 63.292969 34.675781 63.175781 34.617188 C 63.175781 34.617188 63.175781 34.625 63.160156 34.59375 C 63.074219 34.53125 63.007812 34.5 62.9375 34.46875 C 62.9375 34.46875 62.9375 34.484375 62.917969 34.449219 C 61.574219 33.652344 60.144531 33.222656 58.636719 33.039062 C 58.554688 33.050781 58.472656 33.058594 58.300781 33.085938 C 57.851562 33.039062 57.488281 32.917969 57.125 32.914062 C 53.195312 32.859375 49.269531 32.828125 45.339844 32.789062 C 45.21875 32.789062 45.097656 32.808594 45.042969 32.8125 C 44.6875 33.78125 44.351562 34.695312 44.011719 35.613281 C 44.011719 35.613281 44.03125 35.628906 43.996094 35.636719 C 43.949219 35.6875 43.9375 35.730469 43.925781 35.773438 C 43.925781 35.773438 43.9375 35.773438 43.902344 35.796875 C 43.726562 36.058594 43.585938 36.296875 43.445312 36.535156 C 43.445312 36.535156 43.414062 36.546875 43.378906 36.585938 C 43.320312 36.667969 43.296875 36.71875 43.273438 36.765625 C 43.273438 36.765625 43.285156 36.761719 43.246094 36.777344 C 43.136719 36.910156 43.058594 37.023438 42.984375 37.136719 C 42.953125 37.140625 42.933594 37.15625 42.882812 37.21875 C 42.820312 37.296875 42.789062 37.335938 42.761719 37.375 C 42.761719 37.375 42.804688 37.386719 42.75 37.398438 C 42.554688 37.570312 42.417969 37.726562 42.277344 37.882812 C 42.277344 37.882812 42.289062 37.890625 42.25 37.898438 C 42.09375 38.03125 41.984375 38.152344 41.871094 38.273438 C 41.871094 38.273438 41.828125 38.285156 41.785156 38.316406 C 41.675781 38.40625 41.605469 38.46875 41.535156 38.527344 C 41.535156 38.527344 41.546875 38.53125 41.507812 38.539062 C 41.332031 38.667969 41.191406 38.792969 41.054688 38.917969 C 41.054688 38.917969 41.058594 38.921875 41.011719 38.929688 C 39.746094 39.785156 38.378906 40.253906 36.917969 40.472656 C 36.851562 40.480469 36.785156 40.492188 36.660156 40.53125 C 36.503906 40.601562 36.410156 40.644531 36.316406 40.6875 C 33.265625 40.578125 30.609375 39.585938 28.578125 37.207031 C 27.148438 35.53125 26.441406 33.585938 26.433594 31.394531 C 26.425781 29.28125 26.429688 27.167969 26.496094 25.054688 C 26.574219 22.585938 27.339844 20.375 29.199219 18.648438 C 30.714844 17.246094 32.558594 16.667969 34.671875 16.503906 C 36.824219 16.460938 38.875 16.445312 40.925781 16.429688 Z M 40.925781 16.429688 "/>
<path style=" stroke:none;fill-rule:nonzero;fill:rgb(38.039216%,27.058824%,55.294118%);fill-opacity:1;" d="M 44.058594 35.605469 C 44.351562 34.695312 44.6875 33.78125 45.042969 32.8125 C 45.097656 32.808594 45.21875 32.789062 45.339844 32.789062 C 49.269531 32.828125 53.195312 32.859375 57.125 32.914062 C 57.488281 32.917969 57.851562 33.039062 58.253906 33.128906 C 54.179688 33.109375 50.0625 33.070312 45.949219 33.011719 C 45.351562 33 45.007812 33.085938 44.878906 33.792969 C 44.765625 34.421875 44.371094 34.996094 44.058594 35.605469 Z M 44.058594 35.605469 "/>
<path style=" stroke:none;fill-rule:nonzero;fill:rgb(30.588235%,18.039216%,48.627451%);fill-opacity:1;" d="M 58.257812 53.726562 C 56.773438 53.75 55.289062 53.78125 53.804688 53.785156 C 51 53.796875 48.195312 53.792969 45.394531 53.785156 C 45.167969 53.785156 44.941406 53.746094 44.699219 53.664062 C 49.171875 53.609375 53.660156 53.609375 58.207031 53.640625 C 58.261719 53.667969 58.257812 53.726562 58.257812 53.726562 Z M 58.257812 53.726562 "/>
<path style=" stroke:none;fill-rule:nonzero;fill:rgb(37.254902%,26.27451%,54.509804%);fill-opacity:1;" d="M 67.378906 40.847656 C 67.847656 43.160156 67.707031 45.46875 66.859375 47.761719 C 67 46.898438 67.265625 46.011719 67.328125 45.109375 C 67.414062 43.914062 67.34375 42.703125 67.34375 41.503906 C 67.34375 41.296875 67.351562 41.09375 67.378906 40.847656 Z M 67.378906 40.847656 "/>
<path style=" stroke:none;fill-rule:nonzero;fill:rgb(23.921569%,10.980392%,41.960784%);fill-opacity:1;" d="M 58.585938 16.328125 C 55.195312 16.371094 51.769531 16.375 48.285156 16.367188 C 48.398438 16.304688 48.570312 16.210938 48.742188 16.210938 C 51.832031 16.203125 54.917969 16.199219 58.007812 16.203125 C 58.1875 16.207031 58.367188 16.261719 58.585938 16.328125 Z M 58.585938 16.328125 "/>
<path style=" stroke:none;fill-rule:nonzero;fill:rgb(37.254902%,26.27451%,54.509804%);fill-opacity:1;" d="M 58.671875 33.070312 C 60.144531 33.222656 61.574219 33.652344 62.921875 34.449219 C 62.886719 34.480469 62.816406 34.5 62.761719 34.484375 C 61.410156 34.023438 60.058594 33.5625 58.671875 33.070312 Z M 58.671875 33.070312 "/>
<path style=" stroke:none;fill-rule:nonzero;fill:rgb(38.039216%,27.058824%,55.294118%);fill-opacity:1;" d="M 36.960938 40.492188 C 38.378906 40.253906 39.746094 39.785156 41.011719 38.929688 C 40.988281 39.042969 40.953125 39.238281 40.851562 39.28125 C 39.621094 39.851562 38.4375 40.582031 36.960938 40.492188 Z M 36.960938 40.492188 "/>
<path style=" stroke:none;fill-rule:nonzero;fill:rgb(21.176471%,7.058824%,41.176471%);fill-opacity:1;" d="M 40.882812 16.402344 C 38.875 16.445312 36.824219 16.460938 34.714844 16.476562 C 34.769531 16.421875 34.878906 16.335938 34.992188 16.335938 C 36.941406 16.34375 38.890625 16.359375 40.882812 16.402344 Z M 40.882812 16.402344 "/>
<path style=" stroke:none;fill-rule:nonzero;fill:rgb(37.254902%,26.27451%,54.509804%);fill-opacity:1;" d="M 65.949219 37.25 C 66.714844 38.152344 67.078125 39.28125 67.328125 40.503906 C 67.195312 40.25 67.058594 39.953125 66.933594 39.652344 C 66.605469 38.867188 66.28125 38.082031 65.949219 37.25 Z M 65.949219 37.25 "/>
<path style=" stroke:none;fill-rule:nonzero;fill:rgb(37.254902%,26.27451%,54.509804%);fill-opacity:1;" d="M 58.3125 53.734375 C 58.257812 53.726562 58.261719 53.667969 58.265625 53.640625 C 59.371094 53.367188 60.472656 53.121094 61.628906 52.882812 C 60.574219 53.175781 59.46875 53.460938 58.3125 53.734375 Z M 58.3125 53.734375 "/>
<path style=" stroke:none;fill-rule:nonzero;fill:rgb(37.254902%,26.27451%,54.509804%);fill-opacity:1;" d="M 66.769531 47.859375 C 66.628906 48.222656 66.449219 48.609375 66.234375 49.027344 C 66.378906 48.664062 66.554688 48.273438 66.769531 47.859375 Z M 66.769531 47.859375 "/>
<path style=" stroke:none;fill-rule:nonzero;fill:rgb(37.254902%,26.27451%,54.509804%);fill-opacity:1;" d="M 62.496094 52.492188 C 62.28125 52.625 62.019531 52.757812 61.710938 52.894531 C 61.925781 52.761719 62.1875 52.625 62.496094 52.492188 Z M 62.496094 52.492188 "/>
<path style=" stroke:none;fill-rule:nonzero;fill:rgb(38.039216%,27.058824%,55.294118%);fill-opacity:1;" d="M 43.488281 36.527344 C 43.585938 36.296875 43.726562 36.058594 43.898438 35.792969 C 43.796875 36.015625 43.664062 36.269531 43.488281 36.527344 Z M 43.488281 36.527344 "/>
<path style=" stroke:none;fill-rule:nonzero;fill:rgb(38.039216%,27.058824%,55.294118%);fill-opacity:1;" d="M 42.324219 37.886719 C 42.417969 37.726562 42.554688 37.570312 42.730469 37.390625 C 42.632812 37.542969 42.5 37.714844 42.324219 37.886719 Z M 42.324219 37.886719 "/>
<path style=" stroke:none;fill-rule:nonzero;fill:rgb(37.254902%,26.27451%,54.509804%);fill-opacity:1;" d="M 63.277344 52.019531 C 63.167969 52.132812 63.015625 52.238281 62.816406 52.355469 C 62.929688 52.246094 63.082031 52.128906 63.277344 52.019531 Z M 63.277344 52.019531 "/>
<path style=" stroke:none;fill-rule:nonzero;fill:rgb(37.254902%,26.27451%,54.509804%);fill-opacity:1;" d="M 66.046875 49.25 C 65.972656 49.425781 65.855469 49.617188 65.707031 49.832031 C 65.785156 49.660156 65.894531 49.460938 66.046875 49.25 Z M 66.046875 49.25 "/>
<path style=" stroke:none;fill-rule:nonzero;fill:rgb(37.254902%,26.27451%,54.509804%);fill-opacity:1;" d="M 64.292969 51.277344 C 64.21875 51.386719 64.105469 51.488281 63.953125 51.601562 C 64.027344 51.5 64.136719 51.382812 64.292969 51.277344 Z M 64.292969 51.277344 "/>
<path style=" stroke:none;fill-rule:nonzero;fill:rgb(37.254902%,26.27451%,54.509804%);fill-opacity:1;" d="M 65.632812 49.859375 C 65.578125 49.984375 65.484375 50.113281 65.347656 50.265625 C 65.402344 50.148438 65.496094 50.007812 65.632812 49.859375 Z M 65.632812 49.859375 "/>
<path style=" stroke:none;fill-rule:nonzero;fill:rgb(37.254902%,26.27451%,54.509804%);fill-opacity:1;" d="M 65.199219 36.292969 C 65.308594 36.359375 65.417969 36.46875 65.539062 36.617188 C 65.433594 36.546875 65.316406 36.441406 65.199219 36.292969 Z M 65.199219 36.292969 "/>
<path style=" stroke:none;fill-rule:nonzero;fill:rgb(38.039216%,27.058824%,55.294118%);fill-opacity:1;" d="M 41.097656 38.917969 C 41.191406 38.792969 41.332031 38.667969 41.507812 38.53125 C 41.410156 38.652344 41.277344 38.785156 41.097656 38.917969 Z M 41.097656 38.917969 "/>
<path style=" stroke:none;fill-rule:nonzero;fill:rgb(38.039216%,27.058824%,55.294118%);fill-opacity:1;" d="M 36.347656 40.6875 C 36.410156 40.644531 36.503906 40.601562 36.628906 40.574219 C 36.5625 40.621094 36.46875 40.652344 36.347656 40.6875 Z M 36.347656 40.6875 "/>
<path style=" stroke:none;fill-rule:nonzero;fill:rgb(37.254902%,26.27451%,54.509804%);fill-opacity:1;" d="M 63.578125 34.890625 C 63.722656 34.957031 63.882812 35.066406 64.0625 35.207031 C 63.921875 35.136719 63.757812 35.035156 63.578125 34.890625 Z M 63.578125 34.890625 "/>
<path style=" stroke:none;fill-rule:nonzero;fill:rgb(37.254902%,26.27451%,54.509804%);fill-opacity:1;" d="M 63.191406 34.65625 C 63.292969 34.675781 63.410156 34.734375 63.550781 34.824219 C 63.449219 34.804688 63.328125 34.75 63.191406 34.65625 Z M 63.191406 34.65625 "/>
<path style=" stroke:none;fill-rule:nonzero;fill:rgb(38.039216%,27.058824%,55.294118%);fill-opacity:1;" d="M 41.914062 38.265625 C 41.984375 38.152344 42.09375 38.03125 42.246094 37.894531 C 42.175781 38.003906 42.066406 38.128906 41.914062 38.265625 Z M 41.914062 38.265625 "/>
<path style=" stroke:none;fill-rule:nonzero;fill:rgb(37.254902%,26.27451%,54.509804%);fill-opacity:1;" d="M 63.660156 51.777344 C 63.597656 51.859375 63.496094 51.933594 63.351562 52.019531 C 63.414062 51.945312 63.515625 51.855469 63.660156 51.777344 Z M 63.660156 51.777344 "/>
<path style=" stroke:none;fill-rule:nonzero;fill:rgb(38.039216%,27.058824%,55.294118%);fill-opacity:1;" d="M 43.03125 37.128906 C 43.058594 37.023438 43.136719 36.910156 43.246094 36.773438 C 43.210938 36.871094 43.144531 36.996094 43.03125 37.128906 Z M 43.03125 37.128906 "/>
<path style=" stroke:none;fill-rule:nonzero;fill:rgb(37.254902%,26.27451%,54.509804%);fill-opacity:1;" d="M 65.671875 36.816406 C 65.722656 36.847656 65.773438 36.910156 65.835938 37.007812 C 65.785156 36.976562 65.730469 36.914062 65.671875 36.816406 Z M 65.671875 36.816406 "/>
<path style=" stroke:none;fill-rule:nonzero;fill:rgb(37.254902%,26.27451%,54.509804%);fill-opacity:1;" d="M 64.878906 50.734375 C 64.855469 50.800781 64.792969 50.875 64.695312 50.964844 C 64.722656 50.898438 64.78125 50.820312 64.878906 50.734375 Z M 64.878906 50.734375 "/>
<path style=" stroke:none;fill-rule:nonzero;fill:rgb(38.039216%,27.058824%,55.294118%);fill-opacity:1;" d="M 41.574219 38.527344 C 41.605469 38.46875 41.675781 38.40625 41.777344 38.332031 C 41.742188 38.390625 41.679688 38.457031 41.574219 38.527344 Z M 41.574219 38.527344 "/>
<path style=" stroke:none;fill-rule:nonzero;fill:rgb(37.254902%,26.27451%,54.509804%);fill-opacity:1;" d="M 62.953125 34.507812 C 63.007812 34.5 63.074219 34.53125 63.164062 34.59375 C 63.113281 34.597656 63.042969 34.570312 62.953125 34.507812 Z M 62.953125 34.507812 "/>
<path style=" stroke:none;fill-rule:nonzero;fill:rgb(37.254902%,26.27451%,54.509804%);fill-opacity:1;" d="M 64.082031 35.261719 C 64.132812 35.261719 64.195312 35.296875 64.277344 35.367188 C 64.230469 35.363281 64.164062 35.332031 64.082031 35.261719 Z M 64.082031 35.261719 "/>
<path style=" stroke:none;fill-rule:nonzero;fill:rgb(37.254902%,26.27451%,54.509804%);fill-opacity:1;" d="M 64.441406 35.527344 C 64.480469 35.53125 64.527344 35.566406 64.585938 35.628906 C 64.546875 35.625 64.5 35.589844 64.441406 35.527344 Z M 64.441406 35.527344 "/>
<path style=" stroke:none;fill-rule:nonzero;fill:rgb(37.254902%,26.27451%,54.509804%);fill-opacity:1;" d="M 64.503906 51.109375 C 64.496094 51.15625 64.449219 51.210938 64.367188 51.277344 C 64.375 51.234375 64.421875 51.175781 64.503906 51.109375 Z M 64.503906 51.109375 "/>
<path style=" stroke:none;fill-rule:nonzero;fill:rgb(37.254902%,26.27451%,54.509804%);fill-opacity:1;" d="M 63.882812 51.617188 C 63.871094 51.660156 63.820312 51.710938 63.734375 51.773438 C 63.746094 51.730469 63.796875 51.675781 63.882812 51.617188 Z M 63.882812 51.617188 "/>
<path style=" stroke:none;fill-rule:nonzero;fill:rgb(38.039216%,27.058824%,55.294118%);fill-opacity:1;" d="M 42.796875 37.359375 C 42.789062 37.335938 42.820312 37.296875 42.882812 37.238281 C 42.886719 37.265625 42.859375 37.304688 42.796875 37.359375 Z M 42.796875 37.359375 "/>
<path style=" stroke:none;fill-rule:nonzero;fill:rgb(38.039216%,27.058824%,55.294118%);fill-opacity:1;" d="M 43.304688 36.742188 C 43.296875 36.71875 43.320312 36.667969 43.378906 36.601562 C 43.390625 36.625 43.363281 36.671875 43.304688 36.742188 Z M 43.304688 36.742188 "/>
<path style=" stroke:none;fill-rule:nonzero;fill:rgb(37.254902%,26.27451%,54.509804%);fill-opacity:1;" d="M 64.308594 35.417969 C 64.332031 35.410156 64.371094 35.429688 64.429688 35.476562 C 64.40625 35.488281 64.367188 35.46875 64.308594 35.417969 Z M 64.308594 35.417969 "/>
<path style=" stroke:none;fill-rule:nonzero;fill:rgb(37.254902%,26.27451%,54.509804%);fill-opacity:1;" d="M 62.703125 52.390625 C 62.703125 52.417969 62.660156 52.457031 62.578125 52.496094 C 62.578125 52.46875 62.621094 52.433594 62.703125 52.390625 Z M 62.703125 52.390625 "/>
<path style=" stroke:none;fill-rule:nonzero;fill:rgb(38.039216%,27.058824%,55.294118%);fill-opacity:1;" d="M 43.953125 35.75 C 43.9375 35.730469 43.949219 35.6875 43.992188 35.625 C 44.007812 35.648438 43.992188 35.691406 43.953125 35.75 Z M 43.953125 35.75 "/>
<path style=" stroke:none;fill-rule:nonzero;fill:rgb(37.254902%,26.27451%,54.509804%);fill-opacity:1;" d="M 64.695312 35.769531 C 64.71875 35.761719 64.761719 35.789062 64.816406 35.851562 C 64.792969 35.855469 64.75 35.828125 64.695312 35.769531 Z M 64.695312 35.769531 "/>
<path style=" stroke:none;fill-rule:nonzero;fill:rgb(37.254902%,26.27451%,54.509804%);fill-opacity:1;" d="M 65.5625 36.671875 C 65.585938 36.667969 65.621094 36.695312 65.664062 36.75 C 65.640625 36.757812 65.609375 36.730469 65.5625 36.671875 Z M 65.5625 36.671875 "/>
<path style=" stroke:none;fill-rule:nonzero;fill:rgb(37.254902%,26.27451%,54.509804%);fill-opacity:1;" d="M 65.023438 50.617188 C 65.027344 50.640625 65.003906 50.675781 64.949219 50.722656 C 64.941406 50.699219 64.96875 50.667969 65.023438 50.617188 Z M 65.023438 50.617188 "/>
<path style=" stroke:none;fill-rule:nonzero;fill:rgb(37.254902%,26.27451%,54.509804%);fill-opacity:1;" d="M 65.140625 50.492188 C 65.144531 50.511719 65.125 50.550781 65.074219 50.601562 C 65.066406 50.578125 65.089844 50.542969 65.140625 50.492188 Z M 65.140625 50.492188 "/>
<path style=" stroke:none;fill-rule:nonzero;fill:rgb(37.254902%,26.27451%,54.509804%);fill-opacity:1;" d="M 64.828125 35.894531 C 64.851562 35.886719 64.894531 35.910156 64.949219 35.964844 C 64.921875 35.972656 64.882812 35.949219 64.828125 35.894531 Z M 64.828125 35.894531 "/>
<path style=" stroke:none;fill-rule:nonzero;fill:rgb(37.254902%,26.27451%,54.509804%);fill-opacity:1;" d="M 64.960938 36.015625 C 64.988281 36.003906 65.023438 36.027344 65.078125 36.078125 C 65.054688 36.089844 65.011719 36.066406 64.960938 36.015625 Z M 64.960938 36.015625 "/>
<path style=" stroke:none;fill-rule:nonzero;fill:rgb(37.254902%,26.27451%,54.509804%);fill-opacity:1;" d="M 65.097656 36.140625 C 65.121094 36.132812 65.15625 36.164062 65.199219 36.226562 C 65.171875 36.230469 65.136719 36.203125 65.097656 36.140625 Z M 65.097656 36.140625 "/>
</g>
</svg>
