<svg version="1.1" id="Layer_1" xmlns="http://www.w3.org/2000/svg" xmlns:xlink="http://www.w3.org/1999/xlink" x="0px" y="0px"
	 width="100%" viewBox="0 0 900 900" enable-background="new 0 0 900 900" xml:space="preserve">
<path fill="#5A3795" opacity="1.000000" stroke="none" 
	d="
M619.000000,901.000000 
	C412.666656,901.000000 206.833328,901.000000 1.000000,901.000000 
	C1.000000,601.000000 1.000000,301.000000 1.000000,1.000000 
	C301.000000,1.000000 601.000000,1.000000 901.000000,1.000000 
	C901.000000,301.000000 901.000000,601.000000 901.000000,901.000000 
	C807.166687,901.000000 713.333313,901.000000 619.000000,901.000000 
M518.518311,288.101196 
	C518.791504,288.327362 519.064636,288.553528 519.246460,288.780548 
	C519.246460,288.780548 519.288330,288.699310 519.248474,289.412476 
	C520.207581,290.247742 521.166687,291.083008 522.054016,291.939514 
	C522.054016,291.939514 522.057129,291.864746 522.290894,292.316284 
	C522.542969,292.538696 522.795105,292.761108 522.994019,292.988770 
	C522.994019,292.988770 523.028503,292.947876 523.079712,293.484009 
	C523.522583,293.992432 523.965454,294.500885 524.848999,295.299194 
	C524.965820,295.625000 525.082642,295.950836 525.313904,297.064331 
	C527.908325,303.310394 530.491089,309.561310 533.103027,315.800049 
	C534.109741,318.204651 535.182556,320.581573 536.642517,323.572205 
	C536.717651,324.049896 536.792786,324.527588 536.446350,325.656128 
	C536.418823,327.285828 536.366089,328.915527 536.367981,330.545197 
	C536.379333,340.126770 536.935303,349.746674 536.249084,359.277405 
	C535.731812,366.461060 533.628967,373.530548 532.295532,380.877167 
	C532.295532,380.877167 532.099182,381.006317 531.491943,381.345825 
	C530.078064,384.462891 528.664246,387.579956 527.202332,391.144226 
	C526.924011,391.474640 526.645691,391.805054 525.704590,392.360352 
	C524.825317,393.940979 523.946106,395.521606 523.013428,397.040741 
	C523.013428,397.040741 523.093384,397.056213 522.365662,397.166443 
	C521.640503,398.284210 520.915344,399.401947 520.060608,400.992432 
	C519.716125,401.329254 519.371582,401.666077 518.610718,402.287018 
	C518.419067,402.560486 518.227478,402.833954 518.033447,403.032990 
	C518.033447,403.032990 518.107971,403.034760 517.663391,403.282318 
	C517.449280,403.541718 517.235229,403.801117 517.007812,404.000732 
	C517.007812,404.000732 517.060486,404.032104 516.440063,404.148315 
	C515.961975,404.771271 515.483948,405.394257 514.838074,406.472198 
	C514.637695,406.743378 514.374756,406.923096 513.445862,407.141571 
	C513.089111,407.596191 512.732422,408.050812 512.214417,408.152039 
	C512.214417,408.152039 512.414368,408.485138 511.700958,408.341400 
	C510.819092,409.256958 509.937225,410.172485 509.015076,411.014893 
	C509.015076,411.014893 509.086792,411.057709 508.481384,411.156891 
	C508.103180,411.590332 507.724945,412.023773 507.081146,412.097687 
	C507.081146,412.097687 507.371552,412.437469 506.668060,412.323853 
	C505.869293,413.019501 505.070526,413.715179 504.253571,414.317169 
	C504.253571,414.317169 504.343903,414.347839 503.616394,414.264801 
	C502.410736,415.196747 501.205048,416.128693 499.919006,417.252106 
	C499.919006,417.252106 499.716461,417.206329 499.083740,417.360779 
	C498.744019,417.621643 498.404297,417.882507 498.081146,418.066925 
	C498.081146,418.066925 498.141083,418.117157 497.367004,418.058441 
	C495.291992,419.146240 493.216949,420.234009 491.151367,421.211365 
	C491.151367,421.211365 491.257538,421.243134 490.433197,421.152130 
	C481.650055,423.098999 472.866913,425.045868 463.135925,426.992340 
	C427.386597,426.989929 391.637299,426.987549 355.439484,426.433777 
	C342.205963,390.663086 313.454926,372.002106 276.157349,374.975281 
	C243.824387,377.552704 213.583191,407.198608 211.171295,439.503876 
	C210.219635,452.250458 210.834549,465.118195 210.831924,477.930786 
	C210.814606,562.749634 210.817459,647.568420 210.839447,732.387268 
	C210.840668,737.050415 210.458466,741.831421 211.327393,746.351379 
	C212.982605,754.961609 214.194855,763.974060 217.754211,771.840759 
	C227.760605,793.955994 246.071259,805.948364 269.685364,809.117615 
	C298.376221,812.968201 323.426392,805.650696 341.127045,781.221802 
	C350.775055,767.906494 353.122162,752.214661 353.118866,736.094604 
	C353.105194,669.605957 353.114746,603.117371 353.115753,536.628723 
	C353.115753,534.757263 353.115753,532.885742 353.115753,531.014282 
	C353.580933,530.880615 354.046112,530.746948 354.511292,530.613281 
	C356.008759,532.298645 357.563782,533.936707 358.995209,535.676392 
	C390.628540,574.122131 422.252899,612.575134 453.869202,651.034912 
	C488.978455,693.743652 524.507874,736.117004 559.005615,779.314209 
	C577.043579,801.900940 599.670471,812.104126 627.896057,809.615784 
	C656.969238,807.052856 675.719666,789.837097 686.431213,763.863647 
	C696.884277,738.517151 691.430420,715.566895 672.741150,695.692749 
	C625.052490,644.980652 577.341248,594.289734 529.649414,543.580688 
	C523.764221,537.323242 517.941467,531.007141 511.694763,524.293640 
	C514.254944,523.815308 516.025391,523.475891 517.799194,523.154541 
	C555.198242,516.378601 589.539307,502.499207 620.462463,480.094910 
	C660.629150,450.993530 682.445007,411.834015 685.954041,362.515625 
	C688.277222,329.863739 685.520691,297.577332 676.696716,265.997162 
	C665.672729,226.543503 643.940186,194.615646 609.427795,171.816040 
	C577.671021,150.836777 542.410217,139.618607 505.092865,134.267517 
	C492.440308,132.453232 479.646820,131.621704 466.331451,129.756409 
	C464.885712,129.515106 463.440277,129.065384 461.994232,129.063522 
	C437.401489,129.031754 412.808594,129.036652 388.216003,129.117523 
	C386.851196,129.121994 385.488800,129.857193 383.245941,130.640335 
	C364.148773,130.708633 345.051636,130.776932 325.256256,130.425156 
	C309.735779,130.304962 294.215332,130.166168 278.694641,130.112869 
	C277.805786,130.109818 276.914490,130.804749 275.366180,131.637085 
	C259.325378,132.765411 244.619003,137.347504 232.570190,148.520340 
	C217.739151,162.273132 211.652618,179.885300 211.030182,199.553574 
	C210.498001,216.369568 210.482788,233.207642 210.537781,250.034958 
	C210.594788,267.483643 216.218353,282.995209 227.609467,296.339386 
	C243.792435,315.297028 264.933472,323.180389 289.739532,324.056213 
	C290.473633,323.789337 291.207703,323.522461 292.431793,322.591919 
	C292.967773,322.506195 293.503784,322.420441 294.711090,322.680939 
	C306.141541,323.225861 315.558258,317.393066 325.367249,312.876495 
	C326.177032,312.503601 326.452026,310.969299 327.000000,310.000000 
	C327.000000,310.000000 326.975281,309.974213 327.673462,309.961395 
	C328.751831,308.913025 329.830170,307.864655 330.896088,306.893585 
	C330.896088,306.893585 330.825195,306.860291 331.432465,306.831268 
	C331.953644,306.295441 332.474823,305.759583 333.146515,304.918671 
	C333.146515,304.918671 333.476868,304.837585 334.154724,304.679504 
	C335.033051,303.682617 335.911377,302.685730 336.812103,301.793610 
	C336.812103,301.793610 336.722137,301.735504 337.454254,301.755798 
	C338.500275,300.386627 339.546295,299.017456 340.933105,297.767792 
	C340.933105,297.767792 340.582275,297.682404 341.136902,297.444000 
	C341.360321,297.119019 341.583710,296.794006 341.838531,296.145233 
	C341.937378,295.923615 342.107910,295.805145 343.072205,295.632202 
	C343.615356,294.654755 344.158508,293.677277 344.748962,292.798523 
	C344.748962,292.798523 344.641602,292.819702 345.182831,292.463287 
	C345.382416,292.087128 345.582031,291.710938 345.787720,291.088867 
	C345.787720,291.088867 346.017303,291.000549 346.711761,290.868927 
	C347.766510,288.864899 348.821259,286.860840 349.938965,284.923370 
	C349.938965,284.923370 349.847534,284.917389 350.261932,284.586151 
	C350.375458,284.257355 350.488983,283.928528 350.681580,283.781250 
	C350.681580,283.781250 350.546692,283.636322 351.258698,283.510834 
	C353.406006,278.743896 356.525604,274.155609 357.442841,269.162689 
	C358.478607,263.524414 361.200043,262.842865 365.967438,262.913818 
	C398.736145,263.401581 431.507874,263.688477 465.044098,263.372131 
	C465.704254,263.297089 466.364441,263.222076 467.556427,263.621399 
	C478.328705,267.301392 489.099030,270.987183 499.880310,274.640564 
	C500.321350,274.790009 500.865509,274.634918 501.260345,274.645477 
	C501.260345,274.645477 501.274719,274.542450 501.524231,275.138336 
	C502.101776,275.345795 502.679291,275.553253 503.169189,275.788971 
	C503.169189,275.788971 503.164062,275.697021 503.396912,276.358551 
	C504.378998,276.782288 505.361115,277.206055 506.256439,277.665222 
	C506.256439,277.665222 506.264496,277.571869 506.494415,278.203918 
	C507.801575,279.035492 509.108704,279.867096 510.250977,280.707733 
	C510.250977,280.707733 510.275238,280.544403 510.491669,281.135284 
	C511.032867,281.397186 511.574036,281.659119 512.050598,281.958313 
	C512.050598,281.958313 512.047058,281.883759 512.357300,282.314850 
	C512.665894,282.480560 512.974548,282.646240 513.176636,282.827820 
	C513.176636,282.827820 513.182251,282.720306 513.335205,283.180267 
	C513.715210,283.452148 514.095215,283.724060 514.915833,284.184906 
	C514.915833,284.184906 515.131592,284.613037 515.392334,285.146393 
	C515.714478,285.368622 516.036560,285.590851 516.188293,285.814850 
	C516.188293,285.814850 516.209534,285.645813 516.445923,286.157410 
	C516.767456,286.335785 517.088989,286.514191 517.282043,286.715637 
	C517.282043,286.715637 517.293823,286.585632 517.495361,287.096771 
	C517.809631,287.262665 518.123962,287.428558 518.185486,287.863525 
	C518.185486,287.863525 518.404541,287.566406 518.518311,288.101196 
z"/>
<path fill="#FFFEFF" opacity="1.000000" stroke="none" 
	d="
M325.954468,130.845215 
	C345.051636,130.776932 364.148773,130.708633 384.131500,130.547729 
	C412.317291,130.417114 439.617523,130.379089 466.917755,130.341064 
	C479.646820,131.621704 492.440308,132.453232 505.092865,134.267517 
	C542.410217,139.618607 577.671021,150.836777 609.427795,171.816040 
	C643.940186,194.615646 665.672729,226.543503 676.696716,265.997162 
	C685.520691,297.577332 688.277222,329.863739 685.954041,362.515625 
	C682.445007,411.834015 660.629150,450.993530 620.462463,480.094910 
	C589.539307,502.499207 555.198242,516.378601 517.799194,523.154541 
	C516.025391,523.475891 514.254944,523.815308 511.694763,524.293640 
	C517.941467,531.007141 523.764221,537.323242 529.649414,543.580688 
	C577.341248,594.289734 625.052490,644.980652 672.741150,695.692749 
	C691.430420,715.566895 696.884277,738.517151 686.431213,763.863647 
	C675.719666,789.837097 656.969238,807.052856 627.896057,809.615784 
	C599.670471,812.104126 577.043579,801.900940 559.005615,779.314209 
	C524.507874,736.117004 488.978455,693.743652 453.869202,651.034912 
	C422.252899,612.575134 390.628540,574.122131 358.995209,535.676392 
	C357.563782,533.936707 356.008759,532.298645 354.511292,530.613281 
	C354.046112,530.746948 353.580933,530.880615 353.115753,531.014282 
	C353.115753,532.885742 353.115753,534.757263 353.115753,536.628723 
	C353.114746,603.117371 353.105194,669.605957 353.118866,736.094604 
	C353.122162,752.214661 350.775055,767.906494 341.127045,781.221802 
	C323.426392,805.650696 298.376221,812.968201 269.685364,809.117615 
	C246.071259,805.948364 227.760605,793.955994 217.754211,771.840759 
	C214.194855,763.974060 212.982605,754.961609 211.327393,746.351379 
	C210.458466,741.831421 210.840668,737.050415 210.839447,732.387268 
	C210.817459,647.568420 210.814606,562.749634 210.831924,477.930786 
	C210.834549,465.118195 210.219635,452.250458 211.171295,439.503876 
	C213.583191,407.198608 243.824387,377.552704 276.157349,374.975281 
	C313.454926,372.002106 342.205963,390.663086 355.796082,427.151978 
	C357.949432,428.051697 359.746002,428.388367 361.543060,428.391174 
	C383.869019,428.426208 406.195282,428.466949 428.521027,428.389618 
	C440.343689,428.348663 452.165527,428.080780 464.419556,427.985596 
	C473.653412,425.784973 482.455475,423.514069 491.257538,421.243164 
	C491.257538,421.243134 491.151367,421.211365 491.508514,421.214325 
	C493.957458,420.183899 496.049255,419.150513 498.141083,418.117157 
	C498.141083,418.117157 498.081146,418.066925 498.407654,418.071808 
	C499.061584,417.786560 499.389038,417.496460 499.716461,417.206360 
	C499.716461,417.206329 499.919006,417.252106 500.282532,417.090302 
	C501.878662,416.068268 503.111298,415.208069 504.343903,414.347839 
	C504.343903,414.347839 504.253571,414.317169 504.565918,414.283386 
	C505.709351,413.645569 506.540466,413.041534 507.371582,412.437500 
	C507.371552,412.437469 507.081146,412.097687 507.490021,412.179626 
	C508.294861,411.860260 508.690826,411.458984 509.086792,411.057709 
	C509.086792,411.057709 509.015076,411.014893 509.327789,410.951660 
	C510.565125,410.087311 511.489746,409.286224 512.414368,408.485138 
	C512.414368,408.485138 512.214417,408.152039 512.567871,408.215820 
	C513.297241,407.856812 513.673279,407.434052 514.049316,407.011292 
	C514.374756,406.923096 514.637695,406.743378 515.194336,406.135681 
	C516.053833,405.210114 516.557190,404.621094 517.060486,404.032104 
	C517.060486,404.032104 517.007812,404.000732 517.273926,403.959564 
	C517.729309,403.623840 517.918640,403.329315 518.107971,403.034790 
	C518.107971,403.034760 518.033447,403.032990 518.287598,402.976227 
	C518.703552,402.613953 518.865295,402.308411 519.027100,402.002899 
	C519.371582,401.666077 519.716125,401.329254 520.412231,400.591064 
	C521.540283,399.145203 522.316833,398.100708 523.093384,397.056213 
	C523.093384,397.056213 523.013428,397.040741 523.308105,396.874084 
	C524.524231,395.183411 525.445740,393.659424 526.367310,392.135437 
	C526.645691,391.805054 526.924011,391.474640 527.507935,390.695068 
	C529.242126,387.166046 530.670654,384.086182 532.099182,381.006317 
	C532.099182,381.006317 532.295532,380.877167 532.547363,380.507874 
	C539.248291,362.136658 540.377014,343.742096 536.867920,325.005280 
	C536.792786,324.527588 536.717651,324.049896 536.463257,322.905151 
	C534.264343,312.869049 531.350037,303.881958 525.199463,296.276672 
	C525.082642,295.950836 524.965820,295.625000 524.568542,294.905945 
	C523.868225,293.991089 523.448364,293.469482 523.028503,292.947876 
	C523.028503,292.947876 522.994019,292.988770 522.969299,292.717621 
	C522.648743,292.252563 522.352966,292.058655 522.057129,291.864746 
	C522.057129,291.864746 522.054016,291.939514 521.970581,291.640289 
	C521.020874,290.460480 520.154602,289.579895 519.288330,288.699310 
	C519.288330,288.699310 519.246460,288.780548 519.223633,288.519775 
	C518.935364,288.028137 518.669983,287.797272 518.404541,287.566406 
	C518.404541,287.566406 518.185486,287.863525 518.191284,287.490417 
	C517.895935,286.940063 517.594910,286.762848 517.293823,286.585632 
	C517.293823,286.585632 517.282043,286.715637 517.220703,286.453369 
	C516.842773,286.009338 516.526123,285.827576 516.209534,285.645813 
	C516.209534,285.645813 516.188293,285.814850 516.153442,285.537781 
	C515.789612,285.044830 515.460632,284.828918 515.131592,284.613037 
	C515.131592,284.613037 514.915833,284.184906 514.610229,283.864990 
	C513.930542,283.270111 513.556396,282.995209 513.182251,282.720306 
	C513.182251,282.720306 513.176636,282.827820 513.101440,282.574707 
	C512.699829,282.175629 512.373413,282.029694 512.047058,281.883759 
	C512.047058,281.883759 512.050598,281.958313 511.922729,281.690918 
	C511.288330,281.130463 510.781769,280.837433 510.275238,280.544403 
	C510.275238,280.544403 510.250977,280.707733 510.162109,280.419312 
	C508.803680,279.277863 507.534088,278.424866 506.264496,277.571869 
	C506.264496,277.571869 506.256439,277.665222 506.112152,277.392639 
	C505.033264,276.645721 504.098663,276.171356 503.164062,275.697021 
	C503.164062,275.697021 503.169189,275.788971 503.039001,275.530151 
	C502.364105,275.028381 501.819397,274.785400 501.274719,274.542450 
	C501.274719,274.542450 501.260345,274.645477 501.106018,274.369141 
	C490.422150,268.028229 479.044189,264.593231 467.024597,263.147064 
	C466.364441,263.222076 465.704254,263.297089 464.339722,263.517487 
	C460.751495,263.133606 457.873291,262.178925 454.982941,262.140503 
	C423.693970,261.724487 392.403137,261.450104 361.112640,261.152344 
	C360.149872,261.143158 359.185547,261.300293 358.748840,261.336395 
	C355.914520,269.042267 353.230621,276.339294 350.546692,283.636322 
	C350.546692,283.636322 350.681580,283.781250 350.415283,283.840027 
	C350.048492,284.238342 349.948029,284.577881 349.847534,284.917389 
	C349.847534,284.917389 349.938965,284.923370 349.656250,285.103760 
	C348.254791,287.189636 347.136047,289.095093 346.017303,291.000549 
	C346.017303,291.000549 345.787720,291.088867 345.504272,291.380310 
	C345.027771,292.054382 344.834686,292.437042 344.641602,292.819702 
	C344.641602,292.819702 344.748962,292.798523 344.455658,292.934204 
	C343.558289,293.976532 342.954193,294.883179 342.350098,295.789856 
	C342.107910,295.805145 341.937378,295.923615 341.550110,296.431458 
	C341.035217,297.039246 340.808746,297.360840 340.582275,297.682404 
	C340.582275,297.682404 340.933105,297.767792 340.489746,297.862732 
	C338.938293,299.216919 337.830200,300.476196 336.722137,301.735504 
	C336.722137,301.735504 336.812103,301.793610 336.491272,301.858765 
	C335.272583,302.895172 334.374725,303.866364 333.476868,304.837585 
	C333.476868,304.837585 333.146515,304.918671 332.808533,305.160278 
	C331.922089,305.888031 331.373657,306.374176 330.825195,306.860291 
	C330.825195,306.860291 330.896088,306.893585 330.590393,306.937073 
	C329.181549,307.978424 328.078430,308.976318 326.975281,309.974213 
	C326.975281,309.974213 327.000000,310.000000 326.645752,310.065369 
	C316.557861,316.886200 305.679718,320.617096 294.039764,322.334686 
	C293.503784,322.420441 292.967773,322.506195 291.966797,322.822266 
	C290.747711,323.383636 289.993652,323.714600 289.239563,324.045593 
	C264.933472,323.180389 243.792435,315.297028 227.609467,296.339386 
	C216.218353,282.995209 210.594788,267.483643 210.537781,250.034958 
	C210.482788,233.207642 210.498001,216.369568 211.030182,199.553574 
	C211.652618,179.885300 217.739151,162.273132 232.570190,148.520340 
	C244.619003,137.347504 259.325378,132.765411 276.161163,131.447418 
	C293.288910,131.120255 309.621704,130.982727 325.954468,130.845215 
z"/>
<path fill="#61458D" opacity="1.000000" stroke="none" 
	d="
M350.902710,283.573578 
	C353.230621,276.339294 355.914520,269.042267 358.748840,261.336395 
	C359.185547,261.300293 360.149872,261.143158 361.112640,261.152344 
	C392.403137,261.450104 423.693970,261.724487 454.982941,262.140503 
	C457.873291,262.178925 460.751495,263.133606 463.956970,263.851440 
	C431.507874,263.688477 398.736145,263.401581 365.967438,262.913818 
	C361.200043,262.842865 358.478607,263.524414 357.442841,269.162689 
	C356.525604,274.155609 353.406006,278.743896 350.902710,283.573578 
z"/>
<path fill="#4E2E7C" opacity="1.000000" stroke="none" 
	d="
M463.987732,427.915314 
	C452.165527,428.080780 440.343689,428.348663 428.521027,428.389618 
	C406.195282,428.466949 383.869019,428.426208 361.543060,428.391174 
	C359.746002,428.388367 357.949432,428.051697 356.020325,427.427673 
	C391.637299,426.987549 427.386597,426.989929 463.588684,427.223572 
	C464.041473,427.454834 463.987732,427.915314 463.987732,427.915314 
z"/>
<path fill="#5F438B" opacity="1.000000" stroke="none" 
	d="
M536.657104,325.330688 
	C540.377014,343.742096 539.248291,362.136658 532.515503,380.394714 
	C533.628967,373.530548 535.731812,366.461060 536.249084,359.277405 
	C536.935303,349.746674 536.379333,340.126770 536.367981,330.545197 
	C536.366089,328.915527 536.418823,327.285828 536.657104,325.330688 
z"/>
<path fill="#3D1C6B" opacity="1.000000" stroke="none" 
	d="
M466.624603,130.048737 
	C439.617523,130.379089 412.317291,130.417114 384.571167,130.353699 
	C385.488800,129.857193 386.851196,129.121994 388.216003,129.117523 
	C412.808594,129.036652 437.401489,129.031754 461.994232,129.063522 
	C463.440277,129.065384 464.885712,129.515106 466.624603,130.048737 
z"/>
<path fill="#5F438B" opacity="1.000000" stroke="none" 
	d="
M467.290527,263.384216 
	C479.044189,264.593231 490.422150,268.028229 501.156677,274.357239 
	C500.865509,274.634918 500.321350,274.790009 499.880310,274.640564 
	C489.099030,270.987183 478.328705,267.301392 467.290527,263.384216 
z"/>
<path fill="#61458D" opacity="1.000000" stroke="none" 
	d="
M294.375427,322.507812 
	C305.679718,320.617096 316.557861,316.886200 326.633484,310.052673 
	C326.452026,310.969299 326.177032,312.503601 325.367249,312.876495 
	C315.558258,317.393066 306.141541,323.225861 294.375427,322.507812 
z"/>
<path fill="#361269" opacity="1.000000" stroke="none" 
	d="
M325.605347,130.635193 
	C309.621704,130.982727 293.288910,131.120255 276.490234,131.216293 
	C276.914490,130.804749 277.805786,130.109818 278.694641,130.112869 
	C294.215332,130.166168 309.735779,130.304962 325.605347,130.635193 
z"/>
<path fill="#5F438B" opacity="1.000000" stroke="none" 
	d="
M525.256714,296.670502 
	C531.350037,303.881958 534.264343,312.869049 536.254639,322.604614 
	C535.182556,320.581573 534.109741,318.204651 533.103027,315.800049 
	C530.491089,309.561310 527.908325,303.310394 525.256714,296.670502 
z"/>
<path fill="#5F438B" opacity="1.000000" stroke="none" 
	d="
M464.419556,427.985596 
	C463.987732,427.915314 464.041473,427.454834 464.062622,427.223755 
	C472.866913,425.045868 481.650055,423.098999 490.845367,421.197632 
	C482.455475,423.514069 473.653412,425.784973 464.419556,427.985596 
z"/>
<path fill="#5F438B" opacity="1.000000" stroke="none" 
	d="
M531.795532,381.176086 
	C530.670654,384.086182 529.242126,387.166046 527.531982,390.471436 
	C528.664246,387.579956 530.078064,384.462891 531.795532,381.176086 
z"/>
<path fill="#5F438B" opacity="1.000000" stroke="none" 
	d="
M497.754028,418.087799 
	C496.049255,419.150513 493.957458,420.183899 491.503784,421.269531 
	C493.216949,420.234009 495.291992,419.146240 497.754028,418.087799 
z"/>
<path fill="#61458D" opacity="1.000000" stroke="none" 
	d="
M346.364532,290.934753 
	C347.136047,289.095093 348.254791,287.189636 349.624756,285.070496 
	C348.821259,286.860840 347.766510,288.864899 346.364532,290.934753 
z"/>
<path fill="#61458D" opacity="1.000000" stroke="none" 
	d="
M337.088196,301.745667 
	C337.830200,300.476196 338.938293,299.216919 340.319336,297.802979 
	C339.546295,299.017456 338.500275,300.386627 337.088196,301.745667 
z"/>
<path fill="#5F438B" opacity="1.000000" stroke="none" 
	d="
M503.980164,414.306335 
	C503.111298,415.208069 501.878662,416.068268 500.322693,416.994568 
	C501.205048,416.128693 502.410736,415.196747 503.980164,414.306335 
z"/>
<path fill="#5F438B" opacity="1.000000" stroke="none" 
	d="
M526.035950,392.247894 
	C525.445740,393.659424 524.524231,395.183411 523.334778,396.904816 
	C523.946106,395.521606 524.825317,393.940979 526.035950,392.247894 
z"/>
<path fill="#5F438B" opacity="1.000000" stroke="none" 
	d="
M512.057678,408.413269 
	C511.489746,409.286224 510.565125,410.087311 509.347900,410.988220 
	C509.937225,410.172485 510.819092,409.256958 512.057678,408.413269 
z"/>
<path fill="#5F438B" opacity="1.000000" stroke="none" 
	d="
M522.729492,397.111328 
	C522.316833,398.100708 521.540283,399.145203 520.476929,400.354706 
	C520.915344,399.401947 521.640503,398.284210 522.729492,397.111328 
z"/>
<path fill="#5F438B" opacity="1.000000" stroke="none" 
	d="
M519.268433,289.055908 
	C520.154602,289.579895 521.020874,290.460480 522.006470,291.629669 
	C521.166687,291.083008 520.207581,290.247742 519.268433,289.055908 
z"/>
<path fill="#61458D" opacity="1.000000" stroke="none" 
	d="
M327.324371,309.967804 
	C328.078430,308.976318 329.181549,307.978424 330.596619,306.898407 
	C329.830170,307.864655 328.751831,308.913025 327.324371,309.967804 
z"/>
<path fill="#61458D" opacity="1.000000" stroke="none" 
	d="
M289.489563,324.050903 
	C289.993652,323.714600 290.747711,323.383636 291.721802,323.154114 
	C291.207703,323.522461 290.473633,323.789337 289.489563,324.050903 
z"/>
<path fill="#5F438B" opacity="1.000000" stroke="none" 
	d="
M506.379456,277.887878 
	C507.534088,278.424866 508.803680,279.277863 510.244568,280.414764 
	C509.108704,279.867096 507.801575,279.035492 506.379456,277.887878 
z"/>
<path fill="#5F438B" opacity="1.000000" stroke="none" 
	d="
M503.280487,276.027771 
	C504.098663,276.171356 505.033264,276.645721 506.155518,277.374939 
	C505.361115,277.206055 504.378998,276.782288 503.280487,276.027771 
z"/>
<path fill="#61458D" opacity="1.000000" stroke="none" 
	d="
M333.815796,304.758545 
	C334.374725,303.866364 335.272583,302.895172 336.480103,301.806396 
	C335.911377,302.685730 335.033051,303.682617 333.815796,304.758545 
z"/>
<path fill="#5F438B" opacity="1.000000" stroke="none" 
	d="
M507.019836,412.380676 
	C506.540466,413.041534 505.709351,413.645569 504.575012,414.330200 
	C505.070526,413.715179 505.869293,413.019501 507.019836,412.380676 
z"/>
<path fill="#61458D" opacity="1.000000" stroke="none" 
	d="
M342.711151,295.711029 
	C342.954193,294.883179 343.558289,293.976532 344.432007,292.884827 
	C344.158508,293.677277 343.615356,294.654755 342.711151,295.711029 
z"/>
<path fill="#5F438B" opacity="1.000000" stroke="none" 
	d="
M523.054077,293.215942 
	C523.448364,293.469482 523.868225,293.991089 524.348206,294.760986 
	C523.965454,294.500885 523.522583,293.992432 523.054077,293.215942 
z"/>
<path fill="#5F438B" opacity="1.000000" stroke="none" 
	d="
M516.750244,404.090210 
	C516.557190,404.621094 516.053833,405.210114 515.278198,405.908173 
	C515.483948,405.394257 515.961975,404.771271 516.750244,404.090210 
z"/>
<path fill="#61458D" opacity="1.000000" stroke="none" 
	d="
M331.128845,306.845764 
	C331.373657,306.374176 331.922089,305.888031 332.733276,305.312805 
	C332.474823,305.759583 331.953644,306.295441 331.128845,306.845764 
z"/>
<path fill="#5F438B" opacity="1.000000" stroke="none" 
	d="
M501.399475,274.840393 
	C501.819397,274.785400 502.364105,275.028381 503.082825,275.516022 
	C502.679291,275.553253 502.101776,275.345795 501.399475,274.840393 
z"/>
<path fill="#5F438B" opacity="1.000000" stroke="none" 
	d="
M510.383453,280.839844 
	C510.781769,280.837433 511.288330,281.130463 511.955048,281.672272 
	C511.574036,281.659119 511.032867,281.397186 510.383453,280.839844 
z"/>
<path fill="#5F438B" opacity="1.000000" stroke="none" 
	d="
M513.258728,282.950287 
	C513.556396,282.995209 513.930542,283.270111 514.389954,283.770508 
	C514.095215,283.724060 513.715210,283.452148 513.258728,282.950287 
z"/>
<path fill="#5F438B" opacity="1.000000" stroke="none" 
	d="
M513.747559,407.076416 
	C513.673279,407.434052 513.297241,407.856812 512.648499,408.392517 
	C512.732422,408.050812 513.089111,407.596191 513.747559,407.076416 
z"/>
<path fill="#5F438B" opacity="1.000000" stroke="none" 
	d="
M508.784088,411.107300 
	C508.690826,411.458984 508.294861,411.860260 507.622803,412.359375 
	C507.724945,412.023773 508.103180,411.590332 508.784088,411.107300 
z"/>
<path fill="#61458D" opacity="1.000000" stroke="none" 
	d="
M340.859589,297.563202 
	C340.808746,297.360840 341.035217,297.039246 341.534424,296.593353 
	C341.583710,296.794006 341.360321,297.119019 340.859589,297.563202 
z"/>
<path fill="#61458D" opacity="1.000000" stroke="none" 
	d="
M344.912231,292.641479 
	C344.834686,292.437042 345.027771,292.054382 345.501221,291.503235 
	C345.582031,291.710938 345.382416,292.087128 344.912231,292.641479 
z"/>
<path fill="#5F438B" opacity="1.000000" stroke="none" 
	d="
M512.202148,282.099304 
	C512.373413,282.029694 512.699829,282.175629 513.154663,282.566772 
	C512.974548,282.646240 512.665894,282.480560 512.202148,282.099304 
z"/>
<path fill="#5F438B" opacity="1.000000" stroke="none" 
	d="
M499.400085,417.283569 
	C499.389038,417.496460 499.061584,417.786560 498.399353,418.110016 
	C498.404297,417.882507 498.744019,417.621643 499.400085,417.283569 
z"/>
<path fill="#61458D" opacity="1.000000" stroke="none" 
	d="
M350.054749,284.751770 
	C349.948029,284.577881 350.048492,284.238342 350.375732,283.749268 
	C350.488983,283.928528 350.375458,284.257355 350.054749,284.751770 
z"/>
<path fill="#5F438B" opacity="1.000000" stroke="none" 
	d="
M515.261963,284.879700 
	C515.460632,284.828918 515.789612,285.044830 516.238647,285.536896 
	C516.036560,285.590851 515.714478,285.368622 515.261963,284.879700 
z"/>
<path fill="#5F438B" opacity="1.000000" stroke="none" 
	d="
M522.174011,292.090515 
	C522.352966,292.058655 522.648743,292.252563 522.995850,292.714996 
	C522.795105,292.761108 522.542969,292.538696 522.174011,292.090515 
z"/>
<path fill="#5F438B" opacity="1.000000" stroke="none" 
	d="
M517.885681,403.158569 
	C517.918640,403.329315 517.729309,403.623840 517.280518,403.989441 
	C517.235229,403.801117 517.449280,403.541718 517.885681,403.158569 
z"/>
<path fill="#5F438B" opacity="1.000000" stroke="none" 
	d="
M518.818909,402.144958 
	C518.865295,402.308411 518.703552,402.613953 518.288818,403.013458 
	C518.227478,402.833954 518.419067,402.560486 518.818909,402.144958 
z"/>
<path fill="#5F438B" opacity="1.000000" stroke="none" 
	d="
M516.327759,285.901611 
	C516.526123,285.827576 516.842773,286.009338 517.284912,286.441833 
	C517.088989,286.514191 516.767456,286.335785 516.327759,285.901611 
z"/>
<path fill="#5F438B" opacity="1.000000" stroke="none" 
	d="
M517.394592,286.841187 
	C517.594910,286.762848 517.895935,286.940063 518.317627,287.355896 
	C518.123962,287.428558 517.809631,287.262665 517.394592,286.841187 
z"/>
<path fill="#5F438B" opacity="1.000000" stroke="none" 
	d="
M518.461426,287.833801 
	C518.669983,287.797272 518.935364,288.028137 519.269287,288.519348 
	C519.064636,288.553528 518.791504,288.327362 518.461426,287.833801 
z"/>
</svg>