<svg version="1.1" id="Layer_1" xmlns="http://www.w3.org/2000/svg" xmlns:xlink="http://www.w3.org/1999/xlink" x="0px" y="0px"
	 width="100%" viewBox="0 0 2560 920" enable-background="new 0 0 2560 920" xml:space="preserve">
<path fill="#FFFFFF" opacity="1.000000" stroke="none" 
	d="
M1815.000000,921.000000 
	C1210.442993,921.000000 605.885986,921.000000 1.000000,921.000000 
	C1.000000,755.973267 1.000000,590.946350 1.368351,425.561768 
	C2.086533,425.558228 2.647706,425.857422 2.756032,426.274292 
	C10.009815,454.186432 32.909378,465.436920 58.581795,461.740967 
	C81.871223,458.388062 97.851913,438.097748 97.954811,415.571686 
	C98.122292,378.906464 98.000000,342.239899 98.000000,305.573914 
	C98.000000,303.802185 98.000000,302.030426 98.000000,300.000305 
	C121.162140,300.000305 143.799835,299.971710 166.436859,300.081604 
	C167.615814,300.087311 169.206589,300.975830 169.902954,301.953735 
	C182.364639,319.453522 194.735565,337.018066 207.089935,354.594055 
	C227.519592,383.658325 247.687881,412.911041 268.498718,441.699463 
	C273.915283,449.192413 281.085999,455.780090 290.177643,458.891296 
	C306.533783,464.488464 322.317657,463.878784 336.792267,453.045013 
	C348.868011,444.006683 354.633453,431.446686 354.700409,417.011597 
	C354.762177,403.697052 348.748535,391.654144 341.224060,380.896149 
	C327.413422,361.150452 312.965576,341.851166 298.840210,322.324707 
	C287.540771,306.704712 276.325623,291.023773 265.219849,275.574066 
	C271.666412,270.759857 278.113159,266.613190 283.743286,261.557220 
	C289.628510,256.272125 294.996185,250.339600 300.123413,244.294250 
	C318.933441,222.115829 328.290649,195.857849 330.734863,167.358215 
	C332.035431,152.193344 331.297699,136.867233 328.207825,121.619881 
	C323.264008,97.223785 312.630676,75.903160 296.011780,57.709743 
	C282.288513,42.686340 265.785278,31.278265 246.887741,23.365723 
	C224.955872,14.182680 202.204346,9.087435 178.425491,9.029938 
	C134.926544,8.924755 91.426422,8.853021 47.928276,9.067901 
	C28.893126,9.161934 14.823480,18.012758 6.009294,34.983837 
	C4.288927,38.296280 2.667216,41.659954 1.000000,45.000000 
	C1.000000,30.339338 1.000000,15.678677 1.000000,1.000000 
	C327.693512,1.000000 654.387024,1.000000 981.398499,1.389887 
	C975.330017,2.849663 968.956360,4.003851 962.554871,4.974086 
	C940.925049,8.252391 920.488953,15.387396 900.851990,24.724581 
	C882.843384,33.287479 865.805237,43.665302 851.274414,57.427433 
	C839.448364,68.627815 827.612061,80.033180 817.375427,92.642647 
	C803.844543,109.309959 794.008362,128.433548 786.171082,148.470657 
	C776.950928,172.043304 772.314209,196.621841 771.125549,221.807022 
	C770.682739,231.188843 771.164917,240.689438 772.124329,250.043671 
	C773.381714,262.303680 774.649536,274.681458 777.489990,286.633789 
	C782.321777,306.965576 789.818665,326.400391 800.176941,344.705658 
	C809.841492,361.785187 821.674927,377.199646 835.076843,391.396881 
	C840.924500,397.591522 847.325378,403.431183 854.183411,408.467377 
	C865.870483,417.049835 877.704407,425.581482 890.223816,432.847046 
	C909.631042,444.109894 930.522644,452.165771 952.675964,456.158783 
	C966.892700,458.721252 981.275635,460.853821 995.673706,461.768494 
	C1008.020203,462.552826 1020.528076,461.785858 1032.900635,460.855072 
	C1042.579590,460.126923 1052.299438,458.699341 1061.757690,456.524414 
	C1083.743652,451.468750 1104.693848,443.658142 1124.393188,432.366791 
	C1138.850586,424.080078 1152.115356,414.303040 1164.244873,403.044312 
	C1170.972168,396.799835 1177.122070,389.804291 1182.766968,382.551697 
	C1192.363403,370.222198 1197.335693,356.481079 1194.058472,340.426239 
	C1187.833740,309.932709 1150.953735,294.711334 1124.561279,313.315857 
	C1114.639160,320.310242 1106.843628,330.248779 1097.330933,337.917633 
	C1088.059082,345.392395 1078.467285,352.956512 1067.892334,358.227295 
	C1045.750122,369.263336 1022.077454,373.585175 997.101318,371.197266 
	C983.768250,369.922546 970.909180,367.439484 958.349792,362.997009 
	C935.771729,355.010590 916.824219,341.617188 901.833618,323.143707 
	C882.288635,299.057800 872.955872,270.818207 871.083374,240.101089 
	C870.192322,225.483185 871.695190,210.924805 875.038696,196.653214 
	C882.306885,165.629135 897.804871,139.495972 922.930725,119.712494 
	C947.701965,100.208244 976.619324,91.833626 1007.764343,91.183510 
	C1016.984192,90.991051 1026.334961,92.504562 1035.478271,94.087616 
	C1061.016235,98.509254 1083.083252,109.966354 1101.610962,128.129288 
	C1107.468872,133.871933 1112.995972,139.972092 1119.077881,145.461777 
	C1130.136108,155.443237 1142.957886,159.591736 1158.010132,157.072464 
	C1190.579468,151.621384 1205.443848,116.901588 1189.532104,89.334351 
	C1180.583008,73.829857 1167.415894,61.551414 1153.597290,50.391068 
	C1138.409546,38.124840 1121.816040,27.893095 1103.717773,20.252993 
	C1087.685913,13.485230 1071.234619,8.178692 1054.111938,4.985621 
	C1047.393921,3.732815 1040.703125,2.332916 1034.000000,1.000005 
	C1173.026855,1.000000 1312.053711,1.000000 1451.422729,1.384762 
	C1451.086060,2.177354 1450.430786,2.893350 1449.724731,2.947700 
	C1434.168823,4.145257 1419.229736,8.084984 1404.460815,12.879218 
	C1386.356445,18.756218 1369.404541,26.888741 1353.136108,36.852531 
	C1329.936523,51.061527 1310.213623,69.040176 1293.499512,90.226921 
	C1279.893555,107.473526 1269.347168,126.657021 1261.326050,147.193588 
	C1252.613403,169.500870 1247.364990,192.635101 1246.174683,216.461533 
	C1245.181519,236.341156 1245.889160,256.226044 1249.866089,275.948975 
	C1253.442627,293.686462 1258.677490,310.817932 1266.087036,327.245941 
	C1276.280884,349.847107 1289.585815,370.543091 1306.980103,388.270355 
	C1316.175415,397.641693 1326.037476,406.477051 1336.338135,414.618622 
	C1352.953979,427.751770 1371.431519,437.868561 1391.174072,445.646637 
	C1410.606689,453.302612 1430.750244,458.346680 1451.408081,460.797974 
	C1463.013672,462.175201 1474.843140,461.682159 1486.572632,461.994843 
	C1501.053711,462.380920 1515.325684,460.774994 1529.556519,458.068085 
	C1556.962036,452.855194 1582.569092,443.293182 1606.708984,429.169403 
	C1631.153442,414.867523 1652.029907,396.776825 1669.746826,374.800049 
	C1685.768311,354.926331 1698.028564,333.025116 1706.574585,308.966949 
	C1713.043335,290.756470 1716.941895,271.969299 1718.823730,252.840866 
	C1719.814575,242.768768 1719.388428,232.500031 1718.891479,222.354874 
	C1718.388672,212.086472 1717.270264,201.827469 1715.959473,191.623688 
	C1713.166138,169.880676 1705.843506,149.480270 1696.325928,129.891052 
	C1687.596436,111.923553 1676.372314,95.598831 1663.191528,80.490578 
	C1651.134033,66.669830 1637.526001,54.781521 1622.678345,44.160725 
	C1608.210815,33.811821 1592.616577,25.500862 1576.221924,18.735661 
	C1559.072754,11.659139 1541.299927,6.673985 1522.906982,3.971756 
	C1517.247925,3.140341 1511.634399,1.999276 1506.000000,0.999995 
	C1857.566040,1.000000 2209.132080,1.000000 2561.000000,1.000000 
	C2561.000000,138.026718 2561.000000,275.053650 2560.601074,412.386780 
	C2559.801514,409.287964 2559.398193,405.883270 2559.000488,402.477936 
	C2556.702881,382.811432 2539.411621,366.306732 2519.149902,366.152954 
	C2461.662109,365.716583 2404.168701,366.000000 2346.677490,366.000000 
	C2344.895996,366.000000 2343.114502,366.000000 2341.224854,366.000000 
	C2341.224854,331.479614 2341.224854,297.411591 2341.224854,263.000000 
	C2343.239746,263.000000 2345.035156,263.013519 2346.830322,262.997986 
	C2385.072021,262.667297 2423.317139,262.536346 2461.552246,261.840729 
	C2469.905518,261.688751 2477.543945,257.596558 2483.531738,251.786713 
	C2494.177490,241.457062 2498.428711,228.956345 2496.152344,213.850388 
	C2493.412354,195.667252 2477.409668,179.079697 2457.261475,179.027390 
	C2420.267334,178.931335 2383.272705,179.000000 2346.278320,179.000000 
	C2344.535889,179.000000 2342.793213,179.000000 2341.367676,179.000000 
	C2341.367676,151.194717 2341.367676,124.125015 2341.367676,97.000000 
	C2397.392822,97.000000 2453.050293,97.016777 2508.708008,96.957069 
	C2511.942383,96.953598 2515.296143,96.767448 2518.389648,95.919342 
	C2532.195801,92.134331 2542.596680,84.362457 2548.153076,70.602760 
	C2551.602539,62.060658 2552.652344,53.614445 2551.095947,44.479561 
	C2547.699219,24.540480 2532.399658,9.325989 2512.170654,9.193314 
	C2437.851807,8.705883 2363.528076,8.988085 2289.206055,9.042263 
	C2286.138184,9.044499 2283.005371,9.375080 2280.013672,10.046297 
	C2259.094727,14.739780 2244.121582,33.053474 2244.087402,54.653076 
	C2243.903076,171.134964 2243.990479,287.617279 2244.041992,404.099426 
	C2244.043701,408.007538 2244.481445,411.941345 2245.030273,415.818665 
	C2247.181885,431.016113 2255.666016,441.634308 2268.860107,449.046570 
	C2277.093506,453.672119 2286.094971,454.830383 2295.097656,454.883392 
	C2338.922852,455.141388 2382.750732,455.123718 2426.576660,454.958191 
	C2457.822510,454.840179 2489.069092,454.482666 2520.310303,453.944244 
	C2539.181885,453.619019 2557.140625,436.559357 2559.072754,417.975952 
	C2559.181885,416.928497 2560.333496,415.989410 2561.000000,414.999939 
	C2561.000000,491.693512 2561.000000,568.387024 2560.631348,645.404907 
	C2559.176514,641.191284 2558.093750,636.652588 2557.004150,632.115479 
	C2548.905762,598.395447 2530.701172,571.252136 2502.479980,551.368225 
	C2480.313477,535.750488 2454.747803,529.529114 2427.915527,529.185303 
	C2417.468750,529.051453 2406.898926,530.413757 2396.553223,532.117249 
	C2372.536377,536.071899 2351.877930,547.168030 2334.021484,563.525635 
	C2324.140137,572.577515 2315.796143,582.930359 2308.983398,594.505737 
	C2297.754639,613.585266 2291.908936,634.361450 2290.121338,656.252136 
	C2289.388672,665.226074 2289.597656,674.332764 2290.111328,683.337219 
	C2290.642822,692.654602 2291.182129,702.123108 2293.254150,711.173767 
	C2300.433350,742.529175 2316.305664,768.671936 2341.489746,789.071655 
	C2363.982666,807.291199 2389.941895,815.694763 2418.454834,816.899902 
	C2426.193115,817.227051 2433.988281,816.429382 2441.747803,815.982178 
	C2458.113525,815.038757 2473.638184,810.586609 2488.163574,803.251831 
	C2505.980713,794.254639 2521.036377,781.735718 2532.974854,765.560730 
	C2545.571777,748.493469 2554.013428,729.664001 2558.067627,708.829956 
	C2558.655273,705.810791 2560.003662,702.939697 2561.000000,700.000000 
	C2561.000000,773.633911 2561.000000,847.267822 2561.000000,921.000000 
	C2320.306396,921.000000 2079.613037,921.000000 1838.474365,920.615723 
	C1839.533936,919.485657 1841.189453,918.942871 1842.516113,917.957336 
	C1847.153320,914.513000 1852.564209,911.624146 1856.067993,907.236145 
	C1864.597778,896.553284 1866.516846,883.302368 1866.838989,870.206055 
	C1867.412354,846.895813 1867.000000,823.561401 1867.000000,800.237061 
	C1867.000000,798.671448 1867.000000,797.105896 1867.000000,795.117920 
	C1896.618530,818.447998 1921.651733,820.105469 1951.013428,815.626831 
	C1973.321533,812.223999 1992.506226,800.843262 2008.497192,784.863647 
	C2022.145630,771.224792 2033.197510,755.671997 2040.748047,737.724792 
	C2048.052734,720.362000 2052.418213,702.295898 2052.818359,683.552246 
	C2053.095947,670.546448 2052.084473,657.465881 2050.888184,644.488892 
	C2049.622559,630.759583 2045.292847,617.681519 2039.546753,605.220703 
	C2030.693604,586.021545 2018.141113,569.474060 2001.605835,556.202393 
	C1990.849854,547.569153 1978.904419,541.013062 1965.601196,536.940430 
	C1949.123413,531.895874 1932.437012,530.833435 1915.396606,532.954285 
	C1900.826172,534.767761 1887.622559,539.845215 1875.910889,548.652588 
	C1872.019165,551.579224 1868.468872,554.959717 1864.729736,558.160706 
	C1861.678345,554.086365 1859.081543,550.089844 1855.963379,546.552979 
	C1845.853149,535.084839 1832.516357,532.339539 1818.214233,534.205322 
	C1808.137573,535.519775 1799.885620,540.843811 1794.621338,549.880981 
	C1788.539429,560.322021 1786.105469,571.892273 1786.085815,583.750549 
	C1785.931152,677.380798 1785.918213,771.011536 1786.131714,864.641541 
	C1786.152100,873.594421 1787.156494,882.746521 1789.220215,891.446472 
	C1792.385376,904.789795 1799.375488,915.540466 1813.948486,919.133423 
	C1814.423462,919.250488 1814.655029,920.355469 1815.000000,921.000000 
M2081.997070,48.496887 
	C2076.594727,45.324966 2071.295166,41.960777 2065.771729,39.015915 
	C2046.694336,28.844595 2026.611206,21.482185 2005.477783,16.678614 
	C1985.527466,12.143968 1965.463989,9.066770 1944.999634,9.022002 
	C1909.010986,8.943276 1873.019653,9.237744 1837.034668,8.868354 
	C1824.785034,8.742609 1813.802368,11.727349 1804.481689,19.308172 
	C1793.327515,28.380043 1786.120239,40.249344 1786.098267,54.937298 
	C1785.922607,172.566895 1785.984863,290.196899 1786.073975,407.826691 
	C1786.076660,411.325073 1786.852051,414.913910 1787.812988,418.305939 
	C1794.633545,442.381775 1814.182495,454.799927 1837.959595,454.883636 
	C1872.366455,455.004791 1906.775879,454.131042 1941.184692,454.085724 
	C1958.296753,454.063202 1975.121094,452.165558 1991.899048,449.046021 
	C2013.175293,445.090118 2033.589233,438.504883 2053.141602,429.334503 
	C2070.767334,421.067627 2086.983887,410.589813 2101.781494,397.834412 
	C2114.552490,386.825897 2126.154297,374.795929 2135.959473,361.103394 
	C2149.912109,341.619598 2160.117432,320.250214 2166.928223,297.299988 
	C2172.163330,279.659912 2174.844971,261.504700 2175.836426,243.199722 
	C2176.406738,232.666595 2175.827393,221.999649 2174.871826,211.474106 
	C2173.756836,199.196182 2172.429932,186.842209 2169.836914,174.814011 
	C2164.724609,151.100800 2155.590332,128.928055 2142.221680,108.517380 
	C2132.697510,93.976387 2121.946289,80.534912 2108.680420,69.306053 
	C2100.268799,62.186287 2091.302490,55.721973 2081.997070,48.496887 
M448.041809,447.554779 
	C458.277130,453.843018 469.675934,454.968506 481.303925,454.991577 
	C497.967529,455.024628 514.631653,455.073547 531.294922,454.986633 
	C588.534546,454.688049 645.776733,454.561096 703.011047,453.827820 
	C716.093994,453.660187 726.489563,446.410675 733.903625,435.845673 
	C740.603210,426.298981 742.719421,415.546631 741.136230,403.695099 
	C738.207764,381.772675 720.887939,366.277832 700.300903,366.136597 
	C642.980408,365.743317 585.655518,366.000000 528.332336,366.000000 
	C526.583984,366.000000 524.835632,366.000000 523.345886,366.000000 
	C523.345886,331.234985 523.345886,297.166351 523.345886,263.000000 
	C552.847107,263.000000 582.002930,263.087799 611.157715,262.954102 
	C621.902771,262.904846 632.719177,262.995636 643.368103,261.810364 
	C653.665039,260.664276 662.453674,255.992126 669.282410,247.509949 
	C676.864258,238.092270 678.820984,227.758804 678.147461,216.000473 
	C677.026306,196.427948 659.336792,179.085175 639.387329,179.029541 
	C602.394165,178.926407 565.400513,179.000000 528.407104,179.000000 
	C526.651550,179.000000 524.896057,179.000000 523.320801,179.000000 
	C523.320801,151.286789 523.320801,124.217445 523.320801,97.000000 
	C525.459778,97.000000 527.280579,97.000000 529.101440,97.000000 
	C583.591736,97.000000 638.083740,97.234055 692.571350,96.851425 
	C708.075623,96.742546 720.117554,88.920586 727.798462,75.395905 
	C732.923340,66.371918 734.409485,56.651623 733.199829,46.019791 
	C730.937134,26.130859 713.827698,9.248916 694.211365,9.150319 
	C619.893066,8.776775 545.571838,8.988089 471.251709,9.042252 
	C468.184021,9.044487 465.051941,9.376286 462.059723,10.045638 
	C440.771301,14.807816 426.040710,32.959335 426.029419,54.568516 
	C425.967621,172.714172 425.903229,290.860046 426.112518,409.005341 
	C426.141327,425.252960 433.561798,438.181427 448.041809,447.554779 
M2228.954102,614.541748 
	C2240.624512,609.888000 2252.010986,605.006897 2262.405029,597.492615 
	C2281.918945,583.384949 2279.119873,558.064880 2264.357422,544.057739 
	C2254.277344,534.493408 2242.218750,530.552429 2227.877197,532.799561 
	C2214.364990,534.916809 2202.561279,539.999329 2192.046875,548.473206 
	C2188.203613,551.570435 2184.456543,554.786499 2180.582275,558.017944 
	C2170.642822,541.550171 2157.525879,532.297241 2138.087646,533.929016 
	C2127.102295,534.851257 2118.340332,539.180603 2111.930176,548.244690 
	C2104.078857,559.346863 2102.255859,572.281433 2102.167969,585.149414 
	C2101.779785,641.970520 2101.869141,698.796448 2102.135010,755.619019 
	C2102.177002,764.577698 2103.283447,773.687683 2105.197998,782.443420 
	C2107.815674,794.418091 2114.130371,804.208252 2125.940674,809.463684 
	C2132.985596,812.598450 2140.459717,812.292480 2147.839355,811.932434 
	C2159.918701,811.343079 2169.079102,805.445862 2174.932617,794.980347 
	C2180.718506,784.635620 2182.851318,773.223511 2182.979980,761.462219 
	C2183.368896,725.868774 2183.514648,690.271912 2184.102539,654.682068 
	C2184.258301,645.261169 2186.841064,635.687439 2195.281494,630.660095 
	C2205.701172,624.454102 2217.213867,620.084045 2228.954102,614.541748 
z"/>
<path fill="#000000" opacity="1.000000" stroke="none" 
	d="
M1505.531372,0.999995 
	C1511.634399,1.999276 1517.247925,3.140341 1522.906982,3.971756 
	C1541.299927,6.673985 1559.072754,11.659139 1576.221924,18.735661 
	C1592.616577,25.500862 1608.210815,33.811821 1622.678345,44.160725 
	C1637.526001,54.781521 1651.134033,66.669830 1663.191528,80.490578 
	C1676.372314,95.598831 1687.596436,111.923553 1696.325928,129.891052 
	C1705.843506,149.480270 1713.166138,169.880676 1715.959473,191.623688 
	C1717.270264,201.827469 1718.388672,212.086472 1718.891479,222.354874 
	C1719.388428,232.500031 1719.814575,242.768768 1718.823730,252.840866 
	C1716.941895,271.969299 1713.043335,290.756470 1706.574585,308.966949 
	C1698.028564,333.025116 1685.768311,354.926331 1669.746826,374.800049 
	C1652.029907,396.776825 1631.153442,414.867523 1606.708984,429.169403 
	C1582.569092,443.293182 1556.962036,452.855194 1529.556519,458.068085 
	C1515.325684,460.774994 1501.053711,462.380920 1486.572632,461.994843 
	C1474.843140,461.682159 1463.013672,462.175201 1451.408081,460.797974 
	C1430.750244,458.346680 1410.606689,453.302612 1391.174072,445.646637 
	C1371.431519,437.868561 1352.953979,427.751770 1336.338135,414.618622 
	C1326.037476,406.477051 1316.175415,397.641693 1306.980103,388.270355 
	C1289.585815,370.543091 1276.280884,349.847107 1266.087036,327.245941 
	C1258.677490,310.817932 1253.442627,293.686462 1249.866089,275.948975 
	C1245.889160,256.226044 1245.181519,236.341156 1246.174683,216.461533 
	C1247.364990,192.635101 1252.613403,169.500870 1261.326050,147.193588 
	C1269.347168,126.657021 1279.893555,107.473526 1293.499512,90.226921 
	C1310.213623,69.040176 1329.936523,51.061527 1353.136108,36.852531 
	C1369.404541,26.888741 1386.356445,18.756218 1404.460815,12.879218 
	C1419.229736,8.084984 1434.168823,4.145257 1449.724731,2.947700 
	C1450.430786,2.893350 1451.086060,2.177354 1451.882446,1.384762 
	C1469.687622,1.000000 1487.375122,1.000000 1505.531372,0.999995 
M1451.782715,368.966156 
	C1455.193237,369.321228 1458.675537,369.351471 1462.001953,370.086945 
	C1477.363403,373.483490 1492.817627,372.427948 1507.966675,369.773468 
	C1528.218872,366.224823 1547.192139,358.735168 1563.966675,346.494812 
	C1578.798096,335.672211 1591.075684,322.391785 1600.097046,306.388031 
	C1614.317993,281.160339 1621.138428,254.049835 1618.913452,225.021927 
	C1618.119995,214.670135 1617.138062,204.212112 1614.849731,194.118210 
	C1607.981445,163.820023 1592.310791,138.623688 1567.818970,119.492867 
	C1542.561523,99.763901 1513.118286,91.364944 1481.430054,91.216782 
	C1471.116089,91.168556 1460.724731,93.287758 1450.482666,95.069221 
	C1425.936890,99.338531 1404.939941,110.974548 1386.889771,127.774422 
	C1374.798950,139.027634 1365.874268,152.717285 1358.959717,167.779968 
	C1351.526489,183.972519 1347.464722,201.076385 1346.228027,218.625366 
	C1345.178589,233.515656 1345.791992,248.487198 1348.867554,263.349213 
	C1355.164551,293.777344 1368.688843,319.781311 1392.574829,340.176514 
	C1409.651489,354.757294 1429.250977,363.799500 1451.782715,368.966156 
z"/>
<path fill="#000000" opacity="1.000000" stroke="none" 
	d="
M1.000000,45.468658 
	C2.667216,41.659954 4.288927,38.296280 6.009294,34.983837 
	C14.823480,18.012758 28.893126,9.161934 47.928276,9.067901 
	C91.426422,8.853021 134.926544,8.924755 178.425491,9.029938 
	C202.204346,9.087435 224.955872,14.182680 246.887741,23.365723 
	C265.785278,31.278265 282.288513,42.686340 296.011780,57.709743 
	C312.630676,75.903160 323.264008,97.223785 328.207825,121.619881 
	C331.297699,136.867233 332.035431,152.193344 330.734863,167.358215 
	C328.290649,195.857849 318.933441,222.115829 300.123413,244.294250 
	C294.996185,250.339600 289.628510,256.272125 283.743286,261.557220 
	C278.113159,266.613190 271.666412,270.759857 265.219849,275.574066 
	C276.325623,291.023773 287.540771,306.704712 298.840210,322.324707 
	C312.965576,341.851166 327.413422,361.150452 341.224060,380.896149 
	C348.748535,391.654144 354.762177,403.697052 354.700409,417.011597 
	C354.633453,431.446686 348.868011,444.006683 336.792267,453.045013 
	C322.317657,463.878784 306.533783,464.488464 290.177643,458.891296 
	C281.085999,455.780090 273.915283,449.192413 268.498718,441.699463 
	C247.687881,412.911041 227.519592,383.658325 207.089935,354.594055 
	C194.735565,337.018066 182.364639,319.453522 169.902954,301.953735 
	C169.206589,300.975830 167.615814,300.087311 166.436859,300.081604 
	C143.799835,299.971710 121.162140,300.000305 98.000000,300.000305 
	C98.000000,302.030426 98.000000,303.802185 98.000000,305.573914 
	C98.000000,342.239899 98.122292,378.906464 97.954811,415.571686 
	C97.851913,438.097748 81.871223,458.388062 58.581795,461.740967 
	C32.909378,465.436920 10.009815,454.186432 2.756032,426.274292 
	C2.647706,425.857422 2.086533,425.558228 1.368351,425.102051 
	C1.000000,350.645782 1.000000,276.291534 1.399232,201.464508 
	C2.173167,200.750244 2.814969,200.568314 2.883961,200.258728 
	C5.354939,189.170929 12.008998,180.633987 20.770203,174.202667 
	C32.689964,165.452728 46.458801,163.000259 60.991627,166.058151 
	C70.595779,168.078995 78.883835,173.110657 85.350182,180.133667 
	C93.613762,189.108627 98.502090,199.979919 98.055679,212.488602 
	C98.641853,212.729507 98.936134,212.958298 99.227814,212.955032 
	C126.639015,212.648270 154.082092,213.015854 181.449249,211.746719 
	C198.471085,210.957352 212.725098,202.959747 222.248306,188.230713 
	C230.972931,174.736801 233.568527,159.931656 231.056427,144.040054 
	C228.530838,128.063095 221.474609,115.140297 207.827393,105.932144 
	C196.230362,98.107315 183.122269,95.482246 169.674942,95.151176 
	C147.191483,94.597656 124.684486,95.000008 102.187393,95.000008 
	C100.900124,95.000008 99.612862,95.000008 97.982597,95.000008 
	C97.982597,97.891144 98.402756,100.437958 97.918205,102.799118 
	C92.521996,129.094482 70.907806,145.616577 44.898708,143.070709 
	C25.842291,141.205399 12.878158,131.368973 4.816854,114.389420 
	C3.628516,111.886421 2.276361,109.461205 1.000001,107.000000 
	C1.000000,86.645775 1.000000,66.291542 1.000000,45.468658 
z"/>
<path fill="#000000" opacity="1.000000" stroke="none" 
	d="
M1033.531372,1.000005 
	C1040.703125,2.332916 1047.393921,3.732815 1054.111938,4.985621 
	C1071.234619,8.178692 1087.685913,13.485230 1103.717773,20.252993 
	C1121.816040,27.893095 1138.409546,38.124840 1153.597290,50.391068 
	C1167.415894,61.551414 1180.583008,73.829857 1189.532104,89.334351 
	C1205.443848,116.901588 1190.579468,151.621384 1158.010132,157.072464 
	C1142.957886,159.591736 1130.136108,155.443237 1119.077881,145.461777 
	C1112.995972,139.972092 1107.468872,133.871933 1101.610962,128.129288 
	C1083.083252,109.966354 1061.016235,98.509254 1035.478271,94.087616 
	C1026.334961,92.504562 1016.984192,90.991051 1007.764343,91.183510 
	C976.619324,91.833626 947.701965,100.208244 922.930725,119.712494 
	C897.804871,139.495972 882.306885,165.629135 875.038696,196.653214 
	C871.695190,210.924805 870.192322,225.483185 871.083374,240.101089 
	C872.955872,270.818207 882.288635,299.057800 901.833618,323.143707 
	C916.824219,341.617188 935.771729,355.010590 958.349792,362.997009 
	C970.909180,367.439484 983.768250,369.922546 997.101318,371.197266 
	C1022.077454,373.585175 1045.750122,369.263336 1067.892334,358.227295 
	C1078.467285,352.956512 1088.059082,345.392395 1097.330933,337.917633 
	C1106.843628,330.248779 1114.639160,320.310242 1124.561279,313.315857 
	C1150.953735,294.711334 1187.833740,309.932709 1194.058472,340.426239 
	C1197.335693,356.481079 1192.363403,370.222198 1182.766968,382.551697 
	C1177.122070,389.804291 1170.972168,396.799835 1164.244873,403.044312 
	C1152.115356,414.303040 1138.850586,424.080078 1124.393188,432.366791 
	C1104.693848,443.658142 1083.743652,451.468750 1061.757690,456.524414 
	C1052.299438,458.699341 1042.579590,460.126923 1032.900635,460.855072 
	C1020.528076,461.785858 1008.020203,462.552826 995.673706,461.768494 
	C981.275635,460.853821 966.892700,458.721252 952.675964,456.158783 
	C930.522644,452.165771 909.631042,444.109894 890.223816,432.847046 
	C877.704407,425.581482 865.870483,417.049835 854.183411,408.467377 
	C847.325378,403.431183 840.924500,397.591522 835.076843,391.396881 
	C821.674927,377.199646 809.841492,361.785187 800.176941,344.705658 
	C789.818665,326.400391 782.321777,306.965576 777.489990,286.633789 
	C774.649536,274.681458 773.381714,262.303680 772.124329,250.043671 
	C771.164917,240.689438 770.682739,231.188843 771.125549,221.807022 
	C772.314209,196.621841 776.950928,172.043304 786.171082,148.470657 
	C794.008362,128.433548 803.844543,109.309959 817.375427,92.642647 
	C827.612061,80.033180 839.448364,68.627815 851.274414,57.427433 
	C865.805237,43.665302 882.843384,33.287479 900.851990,24.724581 
	C920.488953,15.387396 940.925049,8.252391 962.554871,4.974086 
	C968.956360,4.003851 975.330017,2.849663 981.858215,1.389887 
	C999.020935,1.000000 1016.041809,1.000000 1033.531372,1.000005 
z"/>
<path fill="#000000" opacity="1.000000" stroke="none" 
	d="
M2561.000000,414.666626 
	C2560.333496,415.989410 2559.181885,416.928497 2559.072754,417.975952 
	C2557.140625,436.559357 2539.181885,453.619019 2520.310303,453.944244 
	C2489.069092,454.482666 2457.822510,454.840179 2426.576660,454.958191 
	C2382.750732,455.123718 2338.922852,455.141388 2295.097656,454.883392 
	C2286.094971,454.830383 2277.093506,453.672119 2268.860107,449.046570 
	C2255.666016,441.634308 2247.181885,431.016113 2245.030273,415.818665 
	C2244.481445,411.941345 2244.043701,408.007538 2244.041992,404.099426 
	C2243.990479,287.617279 2243.903076,171.134964 2244.087402,54.653076 
	C2244.121582,33.053474 2259.094727,14.739780 2280.013672,10.046297 
	C2283.005371,9.375080 2286.138184,9.044499 2289.206055,9.042263 
	C2363.528076,8.988085 2437.851807,8.705883 2512.170654,9.193314 
	C2532.399658,9.325989 2547.699219,24.540480 2551.095947,44.479561 
	C2552.652344,53.614445 2551.602539,62.060658 2548.153076,70.602760 
	C2542.596680,84.362457 2532.195801,92.134331 2518.389648,95.919342 
	C2515.296143,96.767448 2511.942383,96.953598 2508.708008,96.957069 
	C2453.050293,97.016777 2397.392822,97.000000 2341.367676,97.000000 
	C2341.367676,124.125015 2341.367676,151.194717 2341.367676,179.000000 
	C2342.793213,179.000000 2344.535889,179.000000 2346.278320,179.000000 
	C2383.272705,179.000000 2420.267334,178.931335 2457.261475,179.027390 
	C2477.409668,179.079697 2493.412354,195.667252 2496.152344,213.850388 
	C2498.428711,228.956345 2494.177490,241.457062 2483.531738,251.786713 
	C2477.543945,257.596558 2469.905518,261.688751 2461.552246,261.840729 
	C2423.317139,262.536346 2385.072021,262.667297 2346.830322,262.997986 
	C2345.035156,263.013519 2343.239746,263.000000 2341.224854,263.000000 
	C2341.224854,297.411591 2341.224854,331.479614 2341.224854,366.000000 
	C2343.114502,366.000000 2344.895996,366.000000 2346.677490,366.000000 
	C2404.168701,366.000000 2461.662109,365.716583 2519.149902,366.152954 
	C2539.411621,366.306732 2556.702881,382.811432 2559.000488,402.477936 
	C2559.398193,405.883270 2559.801514,409.287964 2560.601074,412.846466 
	C2561.000000,413.444458 2561.000000,413.888885 2561.000000,414.666626 
z"/>
<path fill="#FD8524" opacity="1.000000" stroke="none" 
	d="
M1815.468750,921.000000 
	C1814.655029,920.355469 1814.423462,919.250488 1813.948486,919.133423 
	C1799.375488,915.540466 1792.385376,904.789795 1789.220215,891.446472 
	C1787.156494,882.746521 1786.152100,873.594421 1786.131714,864.641541 
	C1785.918213,771.011536 1785.931152,677.380798 1786.085815,583.750549 
	C1786.105469,571.892273 1788.539429,560.322021 1794.621338,549.880981 
	C1799.885620,540.843811 1808.137573,535.519775 1818.214233,534.205322 
	C1832.516357,532.339539 1845.853149,535.084839 1855.963379,546.552979 
	C1859.081543,550.089844 1861.678345,554.086365 1864.729736,558.160706 
	C1868.468872,554.959717 1872.019165,551.579224 1875.910889,548.652588 
	C1887.622559,539.845215 1900.826172,534.767761 1915.396606,532.954285 
	C1932.437012,530.833435 1949.123413,531.895874 1965.601196,536.940430 
	C1978.904419,541.013062 1990.849854,547.569153 2001.605835,556.202393 
	C2018.141113,569.474060 2030.693604,586.021545 2039.546753,605.220703 
	C2045.292847,617.681519 2049.622559,630.759583 2050.888184,644.488892 
	C2052.084473,657.465881 2053.095947,670.546448 2052.818359,683.552246 
	C2052.418213,702.295898 2048.052734,720.362000 2040.748047,737.724792 
	C2033.197510,755.671997 2022.145630,771.224792 2008.497192,784.863647 
	C1992.506226,800.843262 1973.321533,812.223999 1951.013428,815.626831 
	C1921.651733,820.105469 1896.618530,818.447998 1867.000000,795.117920 
	C1867.000000,797.105896 1867.000000,798.671448 1867.000000,800.237061 
	C1867.000000,823.561401 1867.412354,846.895813 1866.838989,870.206055 
	C1866.516846,883.302368 1864.597778,896.553284 1856.067993,907.236145 
	C1852.564209,911.624146 1847.153320,914.513000 1842.516113,917.957336 
	C1841.189453,918.942871 1839.533936,919.485657 1838.014648,920.615723 
	C1830.645752,921.000000 1823.291504,921.000000 1815.468750,921.000000 
M1867.075317,693.139771 
	C1867.373901,693.902466 1867.809326,694.640747 1867.950439,695.431580 
	C1870.071777,707.318481 1875.114380,717.895874 1883.296753,726.662170 
	C1894.555054,738.723877 1908.482178,743.384399 1925.063599,741.145203 
	C1936.445801,739.608032 1945.656982,734.453064 1953.034180,726.266052 
	C1963.553101,714.592407 1968.626587,700.198486 1969.854492,684.799072 
	C1971.550293,663.533997 1968.677734,643.121887 1954.899292,625.605164 
	C1941.119385,608.086731 1917.795532,602.965881 1899.455444,611.450378 
	C1877.287231,621.705994 1868.069458,641.253235 1866.177612,664.486023 
	C1865.430664,673.660400 1866.674438,682.996948 1867.075317,693.139771 
z"/>
<path fill="#FD8524" opacity="1.000000" stroke="none" 
	d="
M2561.000000,699.666748 
	C2560.003662,702.939697 2558.655273,705.810791 2558.067627,708.829956 
	C2554.013428,729.664001 2545.571777,748.493469 2532.974854,765.560730 
	C2521.036377,781.735718 2505.980713,794.254639 2488.163574,803.251831 
	C2473.638184,810.586609 2458.113525,815.038757 2441.747803,815.982178 
	C2433.988281,816.429382 2426.193115,817.227051 2418.454834,816.899902 
	C2389.941895,815.694763 2363.982666,807.291199 2341.489746,789.071655 
	C2316.305664,768.671936 2300.433350,742.529175 2293.254150,711.173767 
	C2291.182129,702.123108 2290.642822,692.654602 2290.111328,683.337219 
	C2289.597656,674.332764 2289.388672,665.226074 2290.121338,656.252136 
	C2291.908936,634.361450 2297.754639,613.585266 2308.983398,594.505737 
	C2315.796143,582.930359 2324.140137,572.577515 2334.021484,563.525635 
	C2351.877930,547.168030 2372.536377,536.071899 2396.553223,532.117249 
	C2406.898926,530.413757 2417.468750,529.051453 2427.915527,529.185303 
	C2454.747803,529.529114 2480.313477,535.750488 2502.479980,551.368225 
	C2530.701172,571.252136 2548.905762,598.395447 2557.004150,632.115479 
	C2558.093750,636.652588 2559.176514,641.191284 2560.631348,645.864624 
	C2561.000000,646.000000 2561.000000,646.500000 2560.666504,646.882446 
	C2560.555420,648.509949 2560.777832,649.755005 2561.000000,651.000000 
	C2561.000000,665.354248 2561.000000,679.708435 2560.679688,694.641479 
	C2560.572998,696.146851 2560.786377,697.073425 2561.000000,698.000000 
	C2561.000000,698.444458 2561.000000,698.888916 2561.000000,699.666748 
M2463.514893,625.010925 
	C2453.886230,612.281250 2441.384766,605.939697 2425.131348,605.856384 
	C2402.577393,605.740784 2387.860352,620.026794 2380.248779,636.896729 
	C2374.067139,650.598083 2372.236084,665.254517 2373.797607,680.516357 
	C2375.102539,693.270508 2377.807617,705.251038 2384.619141,716.195251 
	C2393.449463,730.382935 2406.156250,738.790955 2422.754150,739.843628 
	C2440.611572,740.976196 2454.708496,733.211670 2465.048340,718.699280 
	C2473.259766,707.174194 2476.985107,693.958130 2477.873535,680.127625 
	C2479.129639,660.572876 2476.286621,641.790649 2463.514893,625.010925 
z"/>
<path fill="#FFFFFF" opacity="1.000000" stroke="none" 
	d="
M1.000001,107.468658 
	C2.276361,109.461205 3.628516,111.886421 4.816854,114.389420 
	C12.878158,131.368973 25.842291,141.205399 44.898708,143.070709 
	C70.907806,145.616577 92.521996,129.094482 97.918205,102.799118 
	C98.402756,100.437958 97.982597,97.891144 97.982597,95.000008 
	C99.612862,95.000008 100.900124,95.000008 102.187393,95.000008 
	C124.684486,95.000008 147.191483,94.597656 169.674942,95.151176 
	C183.122269,95.482246 196.230362,98.107315 207.827393,105.932144 
	C221.474609,115.140297 228.530838,128.063095 231.056427,144.040054 
	C233.568527,159.931656 230.972931,174.736801 222.248306,188.230713 
	C212.725098,202.959747 198.471085,210.957352 181.449249,211.746719 
	C154.082092,213.015854 126.639015,212.648270 99.227814,212.955032 
	C98.936134,212.958298 98.641853,212.729507 98.055679,212.488602 
	C98.502090,199.979919 93.613762,189.108627 85.350182,180.133667 
	C78.883835,173.110657 70.595779,168.078995 60.991627,166.058151 
	C46.458801,163.000259 32.689964,165.452728 20.770203,174.202667 
	C12.008998,180.633987 5.354939,189.170929 2.883961,200.258728 
	C2.814969,200.568314 2.173167,200.750244 1.399232,200.995850 
	C1.000000,169.979111 1.000000,138.958206 1.000001,107.468658 
z"/>
<path fill="#FFFFFF" opacity="1.000000" stroke="none" 
	d="
M2561.000000,650.600037 
	C2560.777832,649.755005 2560.555420,648.509949 2560.666504,647.132446 
	C2561.000000,648.066711 2561.000000,649.133362 2561.000000,650.600037 
z"/>
<path fill="#FFFFFF" opacity="1.000000" stroke="none" 
	d="
M2561.000000,697.625000 
	C2560.786377,697.073425 2560.572998,696.146851 2560.679688,695.110107 
	C2561.000000,695.750000 2561.000000,696.500000 2561.000000,697.625000 
z"/>
<path fill="#000000" opacity="1.000000" stroke="none" 
	d="
M2082.291016,48.730316 
	C2091.302490,55.721973 2100.268799,62.186287 2108.680420,69.306053 
	C2121.946289,80.534912 2132.697510,93.976387 2142.221680,108.517380 
	C2155.590332,128.928055 2164.724609,151.100800 2169.836914,174.814011 
	C2172.429932,186.842209 2173.756836,199.196182 2174.871826,211.474106 
	C2175.827393,221.999649 2176.406738,232.666595 2175.836426,243.199722 
	C2174.844971,261.504700 2172.163330,279.659912 2166.928223,297.299988 
	C2160.117432,320.250214 2149.912109,341.619598 2135.959473,361.103394 
	C2126.154297,374.795929 2114.552490,386.825897 2101.781494,397.834412 
	C2086.983887,410.589813 2070.767334,421.067627 2053.141602,429.334503 
	C2033.589233,438.504883 2013.175293,445.090118 1991.899048,449.046021 
	C1975.121094,452.165558 1958.296753,454.063202 1941.184692,454.085724 
	C1906.775879,454.131042 1872.366455,455.004791 1837.959595,454.883636 
	C1814.182495,454.799927 1794.633545,442.381775 1787.812988,418.305939 
	C1786.852051,414.913910 1786.076660,411.325073 1786.073975,407.826691 
	C1785.984863,290.196899 1785.922607,172.566895 1786.098267,54.937298 
	C1786.120239,40.249344 1793.327515,28.380043 1804.481689,19.308172 
	C1813.802368,11.727349 1824.785034,8.742609 1837.034668,8.868354 
	C1873.019653,9.237744 1909.010986,8.943276 1944.999634,9.022002 
	C1965.463989,9.066770 1985.527466,12.143968 2005.477783,16.678614 
	C2026.611206,21.482185 2046.694336,28.844595 2065.771729,39.015915 
	C2071.295166,41.960777 2076.594727,45.324966 2082.291016,48.730316 
M1883.000000,166.500000 
	C1883.000000,232.926605 1883.000000,299.353210 1883.000000,366.947754 
	C1908.407959,365.949860 1933.241821,365.511993 1957.991455,363.833252 
	C1977.968140,362.478210 1996.670654,356.048828 2014.102173,346.017242 
	C2035.391113,333.765747 2051.756592,316.849243 2062.583496,294.811981 
	C2072.227295,275.182953 2076.409912,254.095383 2076.800781,232.413116 
	C2076.979248,222.520584 2075.299316,212.549973 2073.954346,202.684036 
	C2071.297607,183.193771 2064.086426,165.563156 2052.330566,149.643005 
	C2037.768188,129.922455 2018.881470,116.424484 1996.037476,107.925041 
	C1974.533081,99.923973 1952.200195,97.394096 1929.506958,97.040398 
	C1915.510986,96.822258 1901.508789,96.993423 1887.509399,97.009949 
	C1886.072754,97.011642 1884.636230,97.151489 1883.000000,97.237762 
	C1883.000000,120.213669 1883.000000,142.856827 1883.000000,166.500000 
z"/>
<path fill="#000000" opacity="1.000000" stroke="none" 
	d="
M447.762238,447.298645 
	C433.561798,438.181427 426.141327,425.252960 426.112518,409.005341 
	C425.903229,290.860046 425.967621,172.714172 426.029419,54.568516 
	C426.040710,32.959335 440.771301,14.807816 462.059723,10.045638 
	C465.051941,9.376286 468.184021,9.044487 471.251709,9.042252 
	C545.571838,8.988089 619.893066,8.776775 694.211365,9.150319 
	C713.827698,9.248916 730.937134,26.130859 733.199829,46.019791 
	C734.409485,56.651623 732.923340,66.371918 727.798462,75.395905 
	C720.117554,88.920586 708.075623,96.742546 692.571350,96.851425 
	C638.083740,97.234055 583.591736,97.000000 529.101440,97.000000 
	C527.280579,97.000000 525.459778,97.000000 523.320801,97.000000 
	C523.320801,124.217445 523.320801,151.286789 523.320801,179.000000 
	C524.896057,179.000000 526.651550,179.000000 528.407104,179.000000 
	C565.400513,179.000000 602.394165,178.926407 639.387329,179.029541 
	C659.336792,179.085175 677.026306,196.427948 678.147461,216.000473 
	C678.820984,227.758804 676.864258,238.092270 669.282410,247.509949 
	C662.453674,255.992126 653.665039,260.664276 643.368103,261.810364 
	C632.719177,262.995636 621.902771,262.904846 611.157715,262.954102 
	C582.002930,263.087799 552.847107,263.000000 523.345886,263.000000 
	C523.345886,297.166351 523.345886,331.234985 523.345886,366.000000 
	C524.835632,366.000000 526.583984,366.000000 528.332336,366.000000 
	C585.655518,366.000000 642.980408,365.743317 700.300903,366.136597 
	C720.887939,366.277832 738.207764,381.772675 741.136230,403.695099 
	C742.719421,415.546631 740.603210,426.298981 733.903625,435.845673 
	C726.489563,446.410675 716.093994,453.660187 703.011047,453.827820 
	C645.776733,454.561096 588.534546,454.688049 531.294922,454.986633 
	C514.631653,455.073547 497.967529,455.024628 481.303925,454.991577 
	C469.675934,454.968506 458.277130,453.843018 447.762238,447.298645 
z"/>
<path fill="#FD8524" opacity="1.000000" stroke="none" 
	d="
M2228.604248,614.731201 
	C2217.213867,620.084045 2205.701172,624.454102 2195.281494,630.660095 
	C2186.841064,635.687439 2184.258301,645.261169 2184.102539,654.682068 
	C2183.514648,690.271912 2183.368896,725.868774 2182.979980,761.462219 
	C2182.851318,773.223511 2180.718506,784.635620 2174.932617,794.980347 
	C2169.079102,805.445862 2159.918701,811.343079 2147.839355,811.932434 
	C2140.459717,812.292480 2132.985596,812.598450 2125.940674,809.463684 
	C2114.130371,804.208252 2107.815674,794.418091 2105.197998,782.443420 
	C2103.283447,773.687683 2102.177002,764.577698 2102.135010,755.619019 
	C2101.869141,698.796448 2101.779785,641.970520 2102.167969,585.149414 
	C2102.255859,572.281433 2104.078857,559.346863 2111.930176,548.244690 
	C2118.340332,539.180603 2127.102295,534.851257 2138.087646,533.929016 
	C2157.525879,532.297241 2170.642822,541.550171 2180.582275,558.017944 
	C2184.456543,554.786499 2188.203613,551.570435 2192.046875,548.473206 
	C2202.561279,539.999329 2214.364990,534.916809 2227.877197,532.799561 
	C2242.218750,530.552429 2254.277344,534.493408 2264.357422,544.057739 
	C2279.119873,558.064880 2281.918945,583.384949 2262.405029,597.492615 
	C2252.010986,605.006897 2240.624512,609.888000 2228.604248,614.731201 
z"/>
<path fill="#FFFFFF" opacity="1.000000" stroke="none" 
	d="
M1451.403076,368.748077 
	C1429.250977,363.799500 1409.651489,354.757294 1392.574829,340.176514 
	C1368.688843,319.781311 1355.164551,293.777344 1348.867554,263.349213 
	C1345.791992,248.487198 1345.178589,233.515656 1346.228027,218.625366 
	C1347.464722,201.076385 1351.526489,183.972519 1358.959717,167.779968 
	C1365.874268,152.717285 1374.798950,139.027634 1386.889771,127.774422 
	C1404.939941,110.974548 1425.936890,99.338531 1450.482666,95.069221 
	C1460.724731,93.287758 1471.116089,91.168556 1481.430054,91.216782 
	C1513.118286,91.364944 1542.561523,99.763901 1567.818970,119.492867 
	C1592.310791,138.623688 1607.981445,163.820023 1614.849731,194.118210 
	C1617.138062,204.212112 1618.119995,214.670135 1618.913452,225.021927 
	C1621.138428,254.049835 1614.317993,281.160339 1600.097046,306.388031 
	C1591.075684,322.391785 1578.798096,335.672211 1563.966675,346.494812 
	C1547.192139,358.735168 1528.218872,366.224823 1507.966675,369.773468 
	C1492.817627,372.427948 1477.363403,373.483490 1462.001953,370.086945 
	C1458.675537,369.351471 1455.193237,369.321228 1451.403076,368.748077 
z"/>
<path fill="#FFFFFF" opacity="1.000000" stroke="none" 
	d="
M1867.043457,692.699707 
	C1866.674438,682.996948 1865.430664,673.660400 1866.177612,664.486023 
	C1868.069458,641.253235 1877.287231,621.705994 1899.455444,611.450378 
	C1917.795532,602.965881 1941.119385,608.086731 1954.899292,625.605164 
	C1968.677734,643.121887 1971.550293,663.533997 1969.854492,684.799072 
	C1968.626587,700.198486 1963.553101,714.592407 1953.034180,726.266052 
	C1945.656982,734.453064 1936.445801,739.608032 1925.063599,741.145203 
	C1908.482178,743.384399 1894.555054,738.723877 1883.296753,726.662170 
	C1875.114380,717.895874 1870.071777,707.318481 1867.950439,695.431580 
	C1867.809326,694.640747 1867.373901,693.902466 1867.043457,692.699707 
z"/>
<path fill="#FFFFFF" opacity="1.000000" stroke="none" 
	d="
M2463.769043,625.274414 
	C2476.286621,641.790649 2479.129639,660.572876 2477.873535,680.127625 
	C2476.985107,693.958130 2473.259766,707.174194 2465.048340,718.699280 
	C2454.708496,733.211670 2440.611572,740.976196 2422.754150,739.843628 
	C2406.156250,738.790955 2393.449463,730.382935 2384.619141,716.195251 
	C2377.807617,705.251038 2375.102539,693.270508 2373.797607,680.516357 
	C2372.236084,665.254517 2374.067139,650.598083 2380.248779,636.896729 
	C2387.860352,620.026794 2402.577393,605.740784 2425.131348,605.856384 
	C2441.384766,605.939697 2453.886230,612.281250 2463.769043,625.274414 
z"/>
<path fill="#FFFFFF" opacity="1.000000" stroke="none" 
	d="
M1883.000000,166.000000 
	C1883.000000,142.856827 1883.000000,120.213669 1883.000000,97.237762 
	C1884.636230,97.151489 1886.072754,97.011642 1887.509399,97.009949 
	C1901.508789,96.993423 1915.510986,96.822258 1929.506958,97.040398 
	C1952.200195,97.394096 1974.533081,99.923973 1996.037476,107.925041 
	C2018.881470,116.424484 2037.768188,129.922455 2052.330566,149.643005 
	C2064.086426,165.563156 2071.297607,183.193771 2073.954346,202.684036 
	C2075.299316,212.549973 2076.979248,222.520584 2076.800781,232.413116 
	C2076.409912,254.095383 2072.227295,275.182953 2062.583496,294.811981 
	C2051.756592,316.849243 2035.391113,333.765747 2014.102173,346.017242 
	C1996.670654,356.048828 1977.968140,362.478210 1957.991455,363.833252 
	C1933.241821,365.511993 1908.407959,365.949860 1883.000000,366.947754 
	C1883.000000,299.353210 1883.000000,232.926605 1883.000000,166.000000 
z"/>
</svg>