<?xml version="1.0" standalone="no"?>
<!DOCTYPE svg PUBLIC "-//W3C//DTD SVG 20010904//EN"
 "http://www.w3.org/TR/2001/REC-SVG-20010904/DTD/svg10.dtd">
<svg version="1.0" xmlns="http://www.w3.org/2000/svg"
 width="160.000000pt" height="106.000000pt" viewBox="0 0 160.000000 106.000000"
 preserveAspectRatio="xMidYMid meet">

<g transform="translate(0.000000,106.000000) scale(0.100000,-0.100000)"
fill="#000000" stroke="none">
<path d="M90 995 c-20 -59 -21 -71 -10 -147 6 -46 13 -108 15 -138 2 -30 6
-73 10 -95 4 -27 3 -35 -3 -26 -5 7 -15 11 -20 7 -6 -4 -27 0 -47 8 l-35 15 0
-190 0 -189 68 0 c55 0 74 -4 92 -20 13 -11 26 -17 30 -13 3 5 19 25 34 46 20
27 33 36 46 32 12 -4 19 0 22 11 2 14 6 13 23 -7 11 -12 14 -19 8 -15 -9 5
-13 1 -13 -11 0 -28 -73 -95 -93 -87 -14 5 -17 0 -17 -31 0 -29 -8 -45 -35
-72 -19 -19 -35 -37 -35 -39 0 -9 19 -3 32 9 34 33 128 87 152 87 35 0 106 41
106 61 0 8 -15 22 -32 30 -18 8 -35 22 -36 33 -2 10 0 16 5 13 5 -3 10 3 10
14 1 10 -4 19 -10 19 -7 0 -22 24 -35 53 -21 49 -25 53 -55 52 -40 -2 -57 -11
-57 -31 0 -11 -6 -13 -22 -8 -13 4 -26 11 -30 17 -10 17 2 36 19 30 10 -4 14
-2 10 4 -5 7 0 9 12 6 22 -6 54 14 59 36 2 9 -4 12 -17 8 -16 -4 -25 5 -45 49
-31 64 -35 94 -10 73 11 -9 17 -10 22 -2 4 7 15 -7 26 -33 10 -24 23 -41 28
-38 6 4 8 -1 4 -13 -7 -22 1 -53 14 -53 4 0 5 12 2 28 l-5 27 29 -25 c16 -14
31 -27 34 -30 46 -47 375 -226 386 -209 6 10 57 4 80 -9 11 -6 0 -8 -37 -5
-31 3 -49 1 -42 -4 7 -5 -3 -8 -27 -8 -44 0 -62 -12 -40 -25 25 -16 66 -11 90
10 28 24 21 24 91 -1 47 -17 57 -25 54 -41 -6 -30 -13 -34 -35 -20 -28 17 -46
16 -30 -3 10 -12 10 -18 0 -30 -7 -8 -17 -12 -23 -8 -6 3 -7 1 -3 -5 4 -7 3
-12 -2 -12 -12 0 -72 -60 -72 -72 0 -18 22 -5 69 42 28 27 56 50 64 50 8 0 34
14 58 32 24 17 53 32 64 33 11 1 35 5 54 9 32 8 34 7 28 -14 -3 -12 -4 -20 -1
-17 5 5 84 -65 84 -76 0 -4 -4 -7 -10 -7 -5 0 -10 8 -10 18 -1 16 -1 16 -11 0
-7 -13 -5 -22 9 -35 43 -41 56 -43 267 -43 l205 0 0 213 c0 228 2 215 -55 317
-12 21 -15 22 -21 7 -3 -10 -17 -17 -33 -17 -14 0 -42 -5 -62 -10 -28 -8 -43
-7 -65 4 -29 16 -54 7 -54 -19 0 -17 57 -27 80 -15 21 11 46 5 54 -15 2 -7 18
-16 35 -20 33 -7 52 -25 27 -25 -8 0 -28 -11 -44 -25 -24 -20 -37 -24 -84 -21
-30 2 -65 9 -77 15 -18 10 -26 9 -48 -8 -30 -25 -52 -26 -79 -6 -10 8 -27 15
-38 15 -14 0 -17 -5 -12 -22 3 -13 6 -30 6 -38 0 -12 2 -12 9 -2 13 20 175 22
196 1 29 -28 9 -49 -49 -49 -28 -1 -62 -7 -75 -14 -14 -8 -30 -12 -36 -9 -17
6 -33 -17 -37 -52 l-3 -30 -32 35 c-18 19 -33 29 -33 23 0 -13 -16 -12 -45 4
-11 6 -35 11 -53 11 -19 0 -43 7 -55 15 -12 8 -37 18 -55 21 -17 4 -32 10 -32
13 0 12 36 39 64 48 17 6 32 18 34 27 3 14 -6 19 -37 24 -25 4 -41 12 -41 20
0 34 35 140 50 154 9 9 19 22 23 30 3 8 6 -5 7 -30 4 -81 9 -105 26 -117 24
-18 29 -9 14 26 -15 37 -6 85 15 77 9 -3 15 1 15 11 0 13 3 13 15 3 13 -11 15
-8 15 14 0 16 4 25 10 21 6 -3 10 -2 10 3 0 8 -36 180 -45 217 -3 11 6 0 19
-25 14 -25 25 -42 26 -39 1 17 -38 94 -97 192 l-65 107 -388 0 -388 0 -22 -65z
m606 -65 c2 -105 -15 -160 -49 -160 -13 0 -17 -5 -13 -15 7 -18 1 -18 -49 0
-23 8 -78 14 -131 15 l-91 0 8 48 c16 99 40 141 94 170 42 22 132 41 184 39
l45 -2 2 -95z m-422 -155 c3 -8 1 -15 -4 -15 -6 0 -10 7 -10 15 0 8 2 15 4 15
2 0 6 -7 10 -15z m386 -139 c0 -7 7 -37 17 -65 l16 -52 -26 -27 c-15 -16 -27
-37 -26 -48 0 -17 1 -16 9 4 12 28 27 28 35 1 11 -34 -21 -55 -85 -56 -53 -2
-57 0 -110 49 l-55 50 46 -6 c69 -8 81 -1 108 62 30 71 49 102 61 102 6 0 10
-6 10 -14z m-340 -76 c6 -11 8 -20 6 -20 -3 0 -10 9 -16 20 -6 11 -8 20 -6 20
3 0 10 -9 16 -20z m319 -202 c13 -21 14 -21 27 -3 16 21 30 14 20 -11 -5 -12
-13 -14 -34 -9 -30 7 -52 23 -52 36 0 17 25 9 39 -13z m351 -147 c0 -5 -9 -7
-20 -4 -11 3 -20 7 -20 9 0 2 9 4 20 4 11 0 20 -4 20 -9z m70 -11 c0 -5 -4
-10 -10 -10 -5 0 -10 5 -10 10 0 6 5 10 10 10 6 0 10 -4 10 -10z m360 -30 c0
-5 -4 -10 -10 -10 -5 0 -10 5 -10 10 0 6 5 10 10 10 6 0 10 -4 10 -10z"/>
<path d="M600 490 c0 -5 7 -7 15 -4 8 4 15 8 15 10 0 2 -7 4 -15 4 -8 0 -15
-4 -15 -10z"/>
<path d="M1061 704 c0 -11 3 -14 6 -6 3 7 2 16 -1 19 -3 4 -6 -2 -5 -13z"/>
<path d="M905 550 c-3 -5 -1 -10 4 -10 6 0 11 5 11 10 0 6 -2 10 -4 10 -3 0
-8 -4 -11 -10z"/>
<path d="M890 498 c0 -19 2 -20 10 -8 13 19 13 30 0 30 -5 0 -10 -10 -10 -22z"/>
<path d="M1132 500 c-27 -25 -28 -37 -3 -45 18 -6 71 9 71 20 0 16 -22 45 -33
45 -7 0 -23 -9 -35 -20z"/>
<path d="M950 375 c0 -8 5 -15 10 -15 6 0 10 7 10 15 0 8 -4 15 -10 15 -5 0
-10 -7 -10 -15z"/>
<path d="M1026 102 c37 -33 74 -53 74 -40 -1 24 -35 53 -64 56 -29 2 -29 2
-10 -16z"/>
<path d="M450 51 c0 -12 5 -21 10 -21 6 0 10 6 10 14 0 8 -4 18 -10 21 -5 3
-10 -3 -10 -14z"/>
<path d="M0 28 c0 -15 3 -17 19 -8 11 5 29 10 40 10 12 0 21 3 21 8 0 4 -18 7
-40 7 -32 1 -40 -3 -40 -17z"/>
<path d="M505 30 c3 -5 11 -10 16 -10 6 0 7 5 4 10 -3 6 -11 10 -16 10 -6 0
-7 -4 -4 -10z"/>
</g>
</svg>
