<?xml version="1.0" standalone="no"?>
<!DOCTYPE svg PUBLIC "-//W3C//DTD SVG 20010904//EN"
 "http://www.w3.org/TR/2001/REC-SVG-20010904/DTD/svg10.dtd">
<svg version="1.0" xmlns="http://www.w3.org/2000/svg"
 width="160.000000pt" height="107.000000pt" viewBox="0 0 160.000000 107.000000"
 preserveAspectRatio="xMidYMid meet">

<g transform="translate(0.000000,107.000000) scale(0.100000,-0.100000)"
fill="#000000" stroke="none">
<path d="M806 1021 c-20 -27 -36 -55 -36 -62 -1 -8 -14 -39 -30 -69 -28 -51
-43 -139 -22 -126 5 3 9 -9 9 -27 2 -89 21 -256 31 -273 11 -19 11 -19 13 1 1
11 3 38 4 60 4 89 18 172 35 215 10 25 20 51 22 59 5 18 47 25 64 10 8 -6 14
-9 14 -5 0 4 13 0 30 -9 36 -19 40 -19 40 -1 0 9 -24 24 -60 37 -33 12 -60 24
-60 28 1 18 140 167 163 175 18 7 45 6 80 -1 28 -6 53 -9 55 -8 2 2 -1 13 -8
24 -10 20 -19 21 -160 21 l-148 0 -36 -49z"/>
<path d="M1227 1035 c9 -19 19 -33 21 -30 7 7 -19 65 -29 65 -5 0 -1 -16 8
-35z"/>
<path d="M1310 1060 c0 -5 5 -10 11 -10 5 0 7 5 4 10 -3 6 -8 10 -11 10 -2 0
-4 -4 -4 -10z"/>
<path d="M1399 1053 c19 -9 36 -25 39 -35 2 -10 11 -18 19 -18 8 0 12 4 8 9
-3 5 -1 12 4 15 5 4 13 1 17 -5 5 -8 3 -9 -6 -4 -9 6 -11 4 -5 -5 6 -10 11 -9
22 5 7 11 13 13 13 6 0 -7 5 -9 12 -5 6 4 8 3 4 -4 -3 -6 -2 -13 4 -17 5 -3
10 -11 10 -17 0 -6 -9 -3 -19 6 -13 12 -21 14 -26 6 -3 -5 -11 -7 -17 -4 -5 4
-4 -4 2 -17 17 -33 24 -38 16 -12 -4 12 -2 24 4 28 5 3 10 3 10 -2 1 -4 10
-19 21 -32 14 -17 23 -21 31 -13 6 6 17 8 24 5 11 -4 14 9 14 61 l0 67 -72 -2
c-85 -2 -93 -5 -76 -27 12 -15 11 -16 -4 -3 -10 7 -15 17 -12 22 3 5 -12 9
-33 9 l-38 0 34 -17z m182 -80 c13 -16 12 -17 -3 -4 -16 12 -18 11 -18 -3 0
-9 -4 -16 -10 -16 -14 0 -13 13 2 28 15 15 13 15 29 -5z"/>
<path d="M1340 1045 c-13 -15 -22 -55 -13 -55 2 0 8 12 14 27 8 22 12 24 19
13 6 -8 10 -11 10 -6 0 6 9 0 20 -12 26 -27 30 -27 30 -2 0 13 -9 22 -27 26
-16 4 -31 11 -34 16 -3 5 -12 2 -19 -7z"/>
<path d="M1389 983 c-1 -4 -1 -12 0 -16 1 -5 -9 -6 -21 -2 -18 5 -20 4 -8 -4
16 -11 60 -15 60 -5 0 9 -30 36 -31 27z"/>
<path d="M1446 957 c3 -10 9 -15 12 -12 3 3 0 11 -7 18 -10 9 -11 8 -5 -6z"/>
<path d="M1334 935 c8 -8 20 -15 27 -15 7 0 4 6 -7 15 -25 19 -40 19 -20 0z"/>
<path d="M1570 931 c0 -6 -6 -11 -14 -11 -8 0 -17 -4 -21 -10 -3 -5 7 -7 26
-5 39 5 43 9 24 25 -10 8 -15 9 -15 1z"/>
<path d="M1376 905 c-3 -9 0 -15 8 -15 8 0 16 7 20 15 3 9 0 15 -8 15 -8 0
-16 -7 -20 -15z"/>
<path d="M1440 900 c0 -5 5 -10 11 -10 5 0 7 5 4 10 -3 6 -8 10 -11 10 -2 0
-4 -4 -4 -10z"/>
<path d="M1504 901 c4 -5 1 -12 -4 -14 -6 -3 -5 -4 2 -3 15 3 23 26 8 26 -6 0
-9 -4 -6 -9z"/>
<path d="M1466 883 c-6 -14 -5 -15 5 -6 7 7 10 15 7 18 -3 3 -9 -2 -12 -12z"/>
<path d="M1555 891 c-12 -11 -3 -18 20 -13 14 2 25 7 25 11 0 7 -38 9 -45 2z"/>
<path d="M1515 870 c-3 -5 -1 -10 4 -10 6 0 11 5 11 10 0 6 -2 10 -4 10 -3 0
-8 -4 -11 -10z"/>
<path d="M1576 862 c-3 -5 1 -9 9 -9 8 0 12 4 9 9 -3 4 -7 8 -9 8 -2 0 -6 -4
-9 -8z"/>
<path d="M1535 849 c-4 -6 -4 -13 -1 -16 3 -4 6 -1 6 6 0 7 5 9 10 6 6 -3 10
-1 10 4 0 14 -17 14 -25 0z"/>
<path d="M1505 840 c-3 -5 -1 -10 4 -10 6 0 11 5 11 10 0 6 -2 10 -4 10 -3 0
-8 -4 -11 -10z"/>
<path d="M1391 819 c5 -11 14 -17 20 -14 15 10 10 22 -11 28 -17 4 -18 2 -9
-14z"/>
<path d="M1460 801 c0 -6 5 -13 10 -16 6 -3 10 1 10 9 0 9 -4 16 -10 16 -5 0
-10 -4 -10 -9z"/>
<path d="M862 785 c-18 -13 -20 -19 -10 -35 7 -10 19 -18 27 -18 9 1 35 -2 59
-6 23 -4 42 -5 42 -1 0 20 -26 48 -55 61 -42 17 -36 17 -63 -1z m93 -35 c8
-13 -25 -13 -45 0 -12 8 -9 10 12 10 15 0 30 -4 33 -10z"/>
<path d="M1517 780 c3 -11 16 -26 29 -35 20 -13 23 -13 18 0 -4 8 -10 15 -16
15 -5 0 -7 4 -4 8 2 4 -4 13 -14 19 -15 10 -17 9 -13 -7z"/>
<path d="M1586 785 c-9 -26 -7 -32 5 -12 6 10 9 21 6 23 -2 3 -7 -2 -11 -11z"/>
<path d="M1188 781 c-26 -4 -50 -10 -54 -13 -13 -14 8 -27 36 -21 18 3 30 1
30 -5 0 -11 -63 -26 -96 -23 -33 3 -49 -21 -63 -94 -11 -65 -11 -69 10 -91 18
-19 20 -27 11 -36 -12 -12 -13 -10 -16 14 0 7 -9 14 -19 16 -16 3 -18 0 -12
-20 10 -33 17 -37 43 -27 25 10 39 40 54 119 12 65 22 80 51 74 39 -7 77 -26
77 -39 0 -6 11 -17 24 -24 20 -11 23 -19 20 -54 -2 -23 -11 -57 -20 -76 -47
-98 -60 -171 -31 -171 6 0 7 -3 4 -6 -4 -4 -14 -1 -24 7 -15 12 -16 12 -10 -3
3 -10 2 -18 -4 -18 -16 0 -52 -38 -45 -48 6 -10 -29 -80 -45 -92 -3 -3 -14
-20 -24 -39 -16 -31 -16 -35 -1 -43 22 -13 20 -33 -6 -51 -23 -16 -22 -16 15
-16 20 -1 37 4 37 9 0 6 5 10 11 10 5 0 8 -4 4 -9 -3 -6 3 -9 14 -8 11 1 25
11 32 24 17 32 41 31 33 -2 -4 -15 -2 -25 5 -25 6 0 11 13 11 29 0 17 6 31 16
35 8 3 13 2 10 -3 -9 -14 21 -21 32 -8 16 21 23 55 12 62 -5 3 -10 1 -10 -4 0
-6 -6 -11 -14 -11 -7 0 -25 -9 -40 -21 l-27 -21 7 26 c5 21 2 27 -19 35 -14 6
-28 19 -32 29 -9 32 41 123 86 154 22 16 49 48 61 73 14 28 27 44 35 41 7 -3
13 -1 13 5 0 30 -25 112 -52 166 -16 34 -27 67 -23 73 11 18 -22 58 -55 65
-44 10 -37 28 9 23 31 -3 38 0 33 12 -6 18 -23 30 -37 29 -5 -1 -31 -5 -57 -8z
m62 -95 c0 -11 -19 -15 -25 -6 -3 5 1 10 9 10 9 0 16 -2 16 -4z m5 -346 c3 -6
-1 -7 -9 -4 -18 7 -21 14 -7 14 6 0 13 -4 16 -10z m-45 -74 c0 -3 -4 -8 -10
-11 -5 -3 -10 -1 -10 4 0 6 5 11 10 11 6 0 10 -2 10 -4z m-27 -20 c4 -10 1
-13 -9 -9 -7 3 -14 9 -14 14 0 14 17 10 23 -5z"/>
<path d="M1330 770 c0 -5 5 -10 10 -10 6 0 10 5 10 10 0 6 -4 10 -10 10 -5 0
-10 -4 -10 -10z"/>
<path d="M1330 721 c0 -5 5 -13 10 -16 6 -3 10 -2 10 4 0 5 -4 13 -10 16 -5 3
-10 2 -10 -4z"/>
<path d="M1425 451 c-3 -5 -1 -12 5 -16 5 -3 10 1 10 9 0 18 -6 21 -15 7z"/>
<path d="M900 424 c0 -13 35 -33 55 -33 19 0 19 1 -1 9 -12 5 -25 13 -29 19
-7 12 -25 15 -25 5z"/>
<path d="M1470 401 c0 -6 5 -13 10 -16 6 -3 10 1 10 9 0 9 -4 16 -10 16 -5 0
-10 -4 -10 -9z"/>
<path d="M1010 390 c-30 -5 -32 -7 -14 -13 12 -4 24 -15 26 -25 7 -25 58 -28
58 -3 0 30 -31 48 -70 41z"/>
<path d="M764 377 c3 -10 6 -27 6 -38 0 -10 5 -19 11 -19 6 0 9 7 5 15 -8 22
2 18 15 -6 6 -12 7 -19 1 -15 -5 3 -13 -1 -16 -10 -4 -10 -2 -13 6 -8 7 5 9 2
6 -7 -4 -10 1 -15 12 -16 15 -1 17 3 10 25 -13 46 -38 98 -39 82 -1 -13 -3
-13 -12 0 -9 12 -10 12 -5 -3z"/>
<path d="M1365 359 c-4 -6 -5 -12 -2 -15 2 -3 7 2 10 11 7 17 1 20 -8 4z"/>
<path d="M1520 361 c0 -6 4 -13 10 -16 6 -3 7 1 4 9 -7 18 -14 21 -14 7z"/>
<path d="M1401 324 c0 -11 3 -14 6 -6 3 7 2 16 -1 19 -3 4 -6 -2 -5 -13z"/>
<path d="M220 300 c0 -5 4 -10 9 -10 6 0 13 5 16 10 3 6 -1 10 -9 10 -9 0 -16
-4 -16 -10z"/>
<path d="M291 294 c0 -11 3 -14 6 -6 3 7 2 16 -1 19 -3 4 -6 -2 -5 -13z"/>
<path d="M367 296 c-4 -9 -14 -16 -22 -16 -9 0 -13 -4 -10 -10 3 -5 -1 -10 -9
-10 -9 0 -16 -4 -16 -10 0 -5 6 -10 13 -10 8 0 7 -4 -3 -10 -8 -5 -11 -10 -6
-10 5 0 2 -8 -5 -17 -12 -14 -12 -16 0 -8 11 6 13 3 9 -13 -4 -12 -2 -22 4
-22 5 0 6 -5 3 -11 -4 -6 -9 -42 -11 -80 -4 -53 -2 -69 9 -69 17 0 50 91 41
115 -5 13 -4 16 4 11 14 -8 17 33 5 50 -5 5 -1 2 8 -8 9 -9 19 -14 23 -11 3 4
6 1 6 -5 0 -6 -4 -13 -10 -17 -5 -3 -7 -12 -4 -20 4 -8 10 -12 15 -9 13 8 11
-13 -3 -36 -11 -17 -10 -22 2 -30 12 -8 11 -10 -7 -10 -16 0 -21 -4 -16 -16 3
-9 15 -14 32 -12 21 2 29 12 41 48 8 25 17 47 20 50 6 6 11 37 19 107 1 9 8
10 24 4 21 -8 24 -7 22 15 0 14 -7 29 -15 35 -11 6 -5 8 18 5 26 -3 30 -1 21
10 -19 23 -48 17 -55 -11 -5 -20 -11 -24 -27 -19 -16 5 -19 3 -14 -10 7 -19
-2 -48 -13 -41 -4 2 -5 -6 -3 -19 3 -13 -2 -30 -12 -40 -21 -21 -33 -13 -15 9
7 9 14 33 14 53 1 24 8 43 21 54 11 10 15 17 8 18 -7 0 -11 6 -9 13 1 6 1 9
-1 5 -8 -14 -23 -9 -23 7 0 9 -9 15 -25 15 -14 0 -25 -6 -25 -12 0 -10 -2 -10
-9 0 -7 11 -9 11 -14 -2z m63 -6 c0 -5 -2 -10 -4 -10 -3 0 -8 5 -11 10 -3 6
-1 10 4 10 6 0 11 -4 11 -10z m-25 -20 c-3 -5 -12 -10 -18 -10 -7 0 -6 4 3 10
19 12 23 12 15 0z m27 -22 c-7 -7 -12 -8 -12 -2 0 14 12 26 19 19 2 -3 -1 -11
-7 -17z m-37 -8 c3 -6 -1 -7 -9 -4 -18 7 -21 14 -7 14 6 0 13 -4 16 -10z m5
-35 c0 -12 -19 -12 -23 0 -4 9 -1 12 9 8 7 -3 14 -7 14 -8z"/>
<path d="M617 303 c-2 -5 -17 -53 -31 -108 -15 -55 -34 -118 -42 -140 -17 -50
-17 -55 0 -55 10 0 18 22 27 70 13 75 28 103 23 45 -3 -41 12 -46 26 -9 7 17
15 24 25 20 11 -4 19 3 25 20 11 27 8 133 -4 152 -8 13 -42 16 -49 5z m33 -54
c-10 -22 -15 -27 -21 -17 -15 23 -10 56 9 60 23 5 26 -7 12 -43z"/>
<path d="M150 289 c0 -4 9 -26 21 -50 l20 -44 -6 38 c-4 24 -2 37 5 37 6 0 9
-4 5 -9 -3 -5 -1 -12 5 -16 6 -4 7 -11 4 -17 -5 -7 -2 -8 5 -4 7 5 10 11 7 14
-3 3 -1 11 5 19 12 13 0 18 -41 15 -8 0 -18 5 -22 11 -4 7 -8 9 -8 6z"/>
<path d="M236 251 c-3 -5 1 -11 9 -15 8 -3 15 -1 15 4 0 13 -18 22 -24 11z"/>
<path d="M1390 245 c0 -5 5 -17 10 -25 5 -8 10 -10 10 -5 0 6 -5 17 -10 25 -5
8 -10 11 -10 5z"/>
<path d="M240 209 c0 -5 5 -7 10 -4 6 3 10 8 10 11 0 2 -4 4 -10 4 -5 0 -10
-5 -10 -11z"/>
<path d="M271 204 c0 -11 3 -14 6 -6 3 7 2 16 -1 19 -3 4 -6 -2 -5 -13z"/>
<path d="M250 181 c0 -6 4 -13 10 -16 6 -3 7 1 4 9 -7 18 -14 21 -14 7z"/>
<path d="M170 105 c0 -14 4 -25 9 -25 4 0 6 11 3 25 -2 14 -6 25 -8 25 -2 0
-4 -11 -4 -25z"/>
<path d="M1582 108 c-16 -16 -15 -28 3 -28 8 0 15 9 15 20 0 23 -2 24 -18 8z"/>
<path d="M840 35 c0 -22 5 -35 13 -35 9 0 12 11 9 35 -5 45 -22 45 -22 0z"/>
<path d="M160 41 c-6 -11 -6 -22 -1 -25 5 -3 11 5 13 19 6 30 2 32 -12 6z"/>
<path d="M1565 39 c-4 -6 -5 -13 -2 -16 7 -7 27 6 27 18 0 12 -17 12 -25 -2z"/>
<path d="M1255 31 c-8 -15 3 -31 21 -31 9 0 14 7 12 17 -4 20 -24 28 -33 14z"/>
<path d="M185 10 c-3 -5 -1 -10 4 -10 6 0 11 5 11 10 0 6 -2 10 -4 10 -3 0 -8
-4 -11 -10z"/>
</g>
</svg>
